{
	"asset":{
		"generator":"Khronos glTF Blender I/O v4.2.60",
		"version":"2.0"
	},
	"extensionsUsed":[
		"KHR_materials_transmission"
	],
	"scene":0,
	"scenes":[
		{
			"name":"Scene",
			"nodes":[
				0,
				1,
				2,
				3,
				4,
				5
			]
		}
	],
	"nodes":[
		{
			"mesh":0,
			"name":"Cube"
		},
		{
			"mesh":1,
			"name":"Cylinder",
			"rotation":[
				0,
				0,
				0.7071046233177185,
				0.7071089148521423
			],
			"scale":[
				0.31327199935913086,
				0.13192158937454224,
				0.31327199935913086
			],
			"translation":[
				-1.2247248888015747,
				0.2990421652793884,
				-0.014059342443943024
			]
		},
		{
			"mesh":2,
			"name":"Cylinder.001",
			"rotation":[
				0,
				0,
				0.7071046233177185,
				0.7071089148521423
			],
			"scale":[
				0.31327199935913086,
				0.13192158937454224,
				0.31327199935913086
			],
			"translation":[
				-1.2247248888015747,
				0.2990421652793884,
				-2.8859505653381348
			]
		},
		{
			"mesh":3,
			"name":"Cylinder.002",
			"rotation":[
				-0.7071089148521423,
				-0.7071046233177185,
				0,
				1.1520265275066777e-07
			],
			"scale":[
				0.31327199935913086,
				0.13192158937454224,
				0.31327199935913086
			],
			"translation":[
				1.2146351337432861,
				0.2990421652793884,
				-2.8859505653381348
			]
		},
		{
			"mesh":4,
			"name":"Cylinder.003",
			"rotation":[
				-0.7071089148521423,
				-0.7071046233177185,
				0,
				1.1520265275066777e-07
			],
			"scale":[
				0.31327199935913086,
				0.13192158937454224,
				0.31327199935913086
			],
			"translation":[
				1.2146353721618652,
				0.2990421652793884,
				-0.0304415225982666
			]
		},
		{
			"mesh":5,
			"name":"Cube.001",
			"scale":[
				0.21712158620357513,
				0.10040557384490967,
				0.011690721847116947
			],
			"translation":[
				-0.10018575191497803,
				0.4647565484046936,
				-3.774850368499756
			]
		}
	],
	"materials":[
		{
			"doubleSided":true,
			"name":"Car",
			"pbrMetallicRoughness":{
				"baseColorFactor":[
					0.8002997636795044,
					0.05956176295876503,
					0.06129512935876846,
					1
				],
				"metallicFactor":0,
				"roughnessFactor":0.5
			}
		},
		{
			"doubleSided":true,
			"name":"Border",
			"pbrMetallicRoughness":{
				"baseColorFactor":[
					0,
					0,
					0,
					1
				],
				"metallicFactor":0,
				"roughnessFactor":0.5
			}
		},
		{
			"doubleSided":true,
			"extensions":{
				"KHR_materials_transmission":{
					"transmissionFactor":1
				}
			},
			"name":"Window",
			"pbrMetallicRoughness":{
				"baseColorFactor":[
					0.5228603482246399,
					0.5043495297431946,
					0.5313608050346375,
					1
				],
				"metallicFactor":0,
				"roughnessFactor":0
			}
		},
		{
			"doubleSided":true,
			"name":"Tire",
			"pbrMetallicRoughness":{
				"baseColorFactor":[
					0.02049991488456726,
					0.02049991488456726,
					0.02049991488456726,
					1
				],
				"metallicFactor":0,
				"roughnessFactor":0.5
			}
		},
		{
			"doubleSided":true,
			"name":"Inner Tire",
			"pbrMetallicRoughness":{
				"baseColorFactor":[
					0.10223712027072906,
					0.09972231090068817,
					0.08286422491073608,
					1
				],
				"metallicFactor":0,
				"roughnessFactor":0.5
			}
		},
		{
			"doubleSided":true,
			"name":"Silver",
			"pbrMetallicRoughness":{
				"baseColorFactor":[
					0.4245043098926544,
					0.4245043098926544,
					0.4245043098926544,
					1
				],
				"metallicFactor":0,
				"roughnessFactor":0.5
			}
		}
	],
	"meshes":[
		{
			"name":"Cube.001",
			"primitives":[
				{
					"attributes":{
						"POSITION":0,
						"NORMAL":1,
						"TEXCOORD_0":2
					},
					"indices":3,
					"material":0
				},
				{
					"attributes":{
						"POSITION":4,
						"NORMAL":5,
						"TEXCOORD_0":6
					},
					"indices":7,
					"material":1
				},
				{
					"attributes":{
						"POSITION":8,
						"NORMAL":9,
						"TEXCOORD_0":10
					},
					"indices":11,
					"material":2
				}
			]
		},
		{
			"name":"Cylinder",
			"primitives":[
				{
					"attributes":{
						"POSITION":12,
						"NORMAL":13,
						"TEXCOORD_0":14
					},
					"indices":15,
					"material":3
				},
				{
					"attributes":{
						"POSITION":16,
						"NORMAL":17,
						"TEXCOORD_0":18
					},
					"indices":19,
					"material":4
				}
			]
		},
		{
			"name":"Cylinder.001",
			"primitives":[
				{
					"attributes":{
						"POSITION":20,
						"NORMAL":21,
						"TEXCOORD_0":22
					},
					"indices":15,
					"material":3
				},
				{
					"attributes":{
						"POSITION":23,
						"NORMAL":24,
						"TEXCOORD_0":25
					},
					"indices":19,
					"material":4
				}
			]
		},
		{
			"name":"Cylinder.002",
			"primitives":[
				{
					"attributes":{
						"POSITION":26,
						"NORMAL":27,
						"TEXCOORD_0":28
					},
					"indices":15,
					"material":3
				},
				{
					"attributes":{
						"POSITION":29,
						"NORMAL":30,
						"TEXCOORD_0":31
					},
					"indices":19,
					"material":4
				}
			]
		},
		{
			"name":"Cylinder.003",
			"primitives":[
				{
					"attributes":{
						"POSITION":32,
						"NORMAL":33,
						"TEXCOORD_0":34
					},
					"indices":15,
					"material":3
				},
				{
					"attributes":{
						"POSITION":35,
						"NORMAL":36,
						"TEXCOORD_0":37
					},
					"indices":19,
					"material":4
				}
			]
		},
		{
			"name":"Cube",
			"primitives":[
				{
					"attributes":{
						"POSITION":38,
						"NORMAL":39,
						"TEXCOORD_0":40
					},
					"indices":41,
					"material":5
				}
			]
		}
	],
	"accessors":[
		{
			"bufferView":0,
			"componentType":5126,
			"count":5423,
			"max":[
				1.5054073333740234,
				2.891505479812622,
				1.5935969352722168
			],
			"min":[
				-1.4982491731643677,
				0.2621948719024658,
				-3.774759292602539
			],
			"type":"VEC3"
		},
		{
			"bufferView":1,
			"componentType":5126,
			"count":5423,
			"type":"VEC3"
		},
		{
			"bufferView":2,
			"componentType":5126,
			"count":5423,
			"type":"VEC2"
		},
		{
			"bufferView":3,
			"componentType":5123,
			"count":9264,
			"type":"SCALAR"
		},
		{
			"bufferView":4,
			"componentType":5126,
			"count":238,
			"max":[
				1.4801304340362549,
				2.891505479812622,
				1.5125058889389038
			],
			"min":[
				-1.4729725122451782,
				0.38204872608184814,
				-3.686504364013672
			],
			"type":"VEC3"
		},
		{
			"bufferView":5,
			"componentType":5126,
			"count":238,
			"type":"VEC3"
		},
		{
			"bufferView":6,
			"componentType":5126,
			"count":238,
			"type":"VEC2"
		},
		{
			"bufferView":7,
			"componentType":5123,
			"count":648,
			"type":"SCALAR"
		},
		{
			"bufferView":8,
			"componentType":5126,
			"count":96,
			"max":[
				1.472005844116211,
				2.891505479812622,
				1.5125058889389038
			],
			"min":[
				-1.4648478031158447,
				0.41555970907211304,
				-3.6616322994232178
			],
			"type":"VEC3"
		},
		{
			"bufferView":9,
			"componentType":5126,
			"count":96,
			"type":"VEC3"
		},
		{
			"bufferView":10,
			"componentType":5126,
			"count":96,
			"type":"VEC2"
		},
		{
			"bufferView":11,
			"componentType":5123,
			"count":168,
			"type":"SCALAR"
		},
		{
			"bufferView":12,
			"componentType":5126,
			"count":352,
			"max":[
				1,
				1,
				1
			],
			"min":[
				-1,
				-1,
				-1
			],
			"type":"VEC3"
		},
		{
			"bufferView":13,
			"componentType":5126,
			"count":352,
			"type":"VEC3"
		},
		{
			"bufferView":14,
			"componentType":5126,
			"count":352,
			"type":"VEC2"
		},
		{
			"bufferView":15,
			"componentType":5123,
			"count":666,
			"type":"SCALAR"
		},
		{
			"bufferView":16,
			"componentType":5126,
			"count":32,
			"max":[
				0.7937373518943787,
				0.6499752402305603,
				0.793736457824707
			],
			"min":[
				-0.7937355637550354,
				0.6499752402305603,
				-0.793736457824707
			],
			"type":"VEC3"
		},
		{
			"bufferView":17,
			"componentType":5126,
			"count":32,
			"type":"VEC3"
		},
		{
			"bufferView":18,
			"componentType":5126,
			"count":32,
			"type":"VEC2"
		},
		{
			"bufferView":19,
			"componentType":5123,
			"count":90,
			"type":"SCALAR"
		},
		{
			"bufferView":20,
			"componentType":5126,
			"count":352,
			"max":[
				1,
				1,
				1
			],
			"min":[
				-1,
				-1,
				-1
			],
			"type":"VEC3"
		},
		{
			"bufferView":21,
			"componentType":5126,
			"count":352,
			"type":"VEC3"
		},
		{
			"bufferView":22,
			"componentType":5126,
			"count":352,
			"type":"VEC2"
		},
		{
			"bufferView":23,
			"componentType":5126,
			"count":32,
			"max":[
				0.7937373518943787,
				0.6499752402305603,
				0.793736457824707
			],
			"min":[
				-0.7937355637550354,
				0.6499752402305603,
				-0.793736457824707
			],
			"type":"VEC3"
		},
		{
			"bufferView":24,
			"componentType":5126,
			"count":32,
			"type":"VEC3"
		},
		{
			"bufferView":25,
			"componentType":5126,
			"count":32,
			"type":"VEC2"
		},
		{
			"bufferView":26,
			"componentType":5126,
			"count":352,
			"max":[
				1,
				1,
				1
			],
			"min":[
				-1,
				-1,
				-1
			],
			"type":"VEC3"
		},
		{
			"bufferView":27,
			"componentType":5126,
			"count":352,
			"type":"VEC3"
		},
		{
			"bufferView":28,
			"componentType":5126,
			"count":352,
			"type":"VEC2"
		},
		{
			"bufferView":29,
			"componentType":5126,
			"count":32,
			"max":[
				0.7937373518943787,
				0.6499752402305603,
				0.793736457824707
			],
			"min":[
				-0.7937355637550354,
				0.6499752402305603,
				-0.793736457824707
			],
			"type":"VEC3"
		},
		{
			"bufferView":30,
			"componentType":5126,
			"count":32,
			"type":"VEC3"
		},
		{
			"bufferView":31,
			"componentType":5126,
			"count":32,
			"type":"VEC2"
		},
		{
			"bufferView":32,
			"componentType":5126,
			"count":352,
			"max":[
				1,
				1,
				1
			],
			"min":[
				-1,
				-1,
				-1
			],
			"type":"VEC3"
		},
		{
			"bufferView":33,
			"componentType":5126,
			"count":352,
			"type":"VEC3"
		},
		{
			"bufferView":34,
			"componentType":5126,
			"count":352,
			"type":"VEC2"
		},
		{
			"bufferView":35,
			"componentType":5126,
			"count":32,
			"max":[
				0.7937373518943787,
				0.6499752402305603,
				0.793736457824707
			],
			"min":[
				-0.7937355637550354,
				0.6499752402305603,
				-0.793736457824707
			],
			"type":"VEC3"
		},
		{
			"bufferView":36,
			"componentType":5126,
			"count":32,
			"type":"VEC3"
		},
		{
			"bufferView":37,
			"componentType":5126,
			"count":32,
			"type":"VEC2"
		},
		{
			"bufferView":38,
			"componentType":5126,
			"count":52,
			"max":[
				1,
				1,
				1
			],
			"min":[
				-1,
				-1,
				-1
			],
			"type":"VEC3"
		},
		{
			"bufferView":39,
			"componentType":5126,
			"count":52,
			"type":"VEC3"
		},
		{
			"bufferView":40,
			"componentType":5126,
			"count":52,
			"type":"VEC2"
		},
		{
			"bufferView":41,
			"componentType":5123,
			"count":108,
			"type":"SCALAR"
		}
	],
	"bufferViews":[
		{
			"buffer":0,
			"byteLength":65076,
			"byteOffset":0,
			"target":34962
		},
		{
			"buffer":0,
			"byteLength":65076,
			"byteOffset":65076,
			"target":34962
		},
		{
			"buffer":0,
			"byteLength":43384,
			"byteOffset":130152,
			"target":34962
		},
		{
			"buffer":0,
			"byteLength":18528,
			"byteOffset":173536,
			"target":34963
		},
		{
			"buffer":0,
			"byteLength":2856,
			"byteOffset":192064,
			"target":34962
		},
		{
			"buffer":0,
			"byteLength":2856,
			"byteOffset":194920,
			"target":34962
		},
		{
			"buffer":0,
			"byteLength":1904,
			"byteOffset":197776,
			"target":34962
		},
		{
			"buffer":0,
			"byteLength":1296,
			"byteOffset":199680,
			"target":34963
		},
		{
			"buffer":0,
			"byteLength":1152,
			"byteOffset":200976,
			"target":34962
		},
		{
			"buffer":0,
			"byteLength":1152,
			"byteOffset":202128,
			"target":34962
		},
		{
			"buffer":0,
			"byteLength":768,
			"byteOffset":203280,
			"target":34962
		},
		{
			"buffer":0,
			"byteLength":336,
			"byteOffset":204048,
			"target":34963
		},
		{
			"buffer":0,
			"byteLength":4224,
			"byteOffset":204384,
			"target":34962
		},
		{
			"buffer":0,
			"byteLength":4224,
			"byteOffset":208608,
			"target":34962
		},
		{
			"buffer":0,
			"byteLength":2816,
			"byteOffset":212832,
			"target":34962
		},
		{
			"buffer":0,
			"byteLength":1332,
			"byteOffset":215648,
			"target":34963
		},
		{
			"buffer":0,
			"byteLength":384,
			"byteOffset":216980,
			"target":34962
		},
		{
			"buffer":0,
			"byteLength":384,
			"byteOffset":217364,
			"target":34962
		},
		{
			"buffer":0,
			"byteLength":256,
			"byteOffset":217748,
			"target":34962
		},
		{
			"buffer":0,
			"byteLength":180,
			"byteOffset":218004,
			"target":34963
		},
		{
			"buffer":0,
			"byteLength":4224,
			"byteOffset":218184,
			"target":34962
		},
		{
			"buffer":0,
			"byteLength":4224,
			"byteOffset":222408,
			"target":34962
		},
		{
			"buffer":0,
			"byteLength":2816,
			"byteOffset":226632,
			"target":34962
		},
		{
			"buffer":0,
			"byteLength":384,
			"byteOffset":229448,
			"target":34962
		},
		{
			"buffer":0,
			"byteLength":384,
			"byteOffset":229832,
			"target":34962
		},
		{
			"buffer":0,
			"byteLength":256,
			"byteOffset":230216,
			"target":34962
		},
		{
			"buffer":0,
			"byteLength":4224,
			"byteOffset":230472,
			"target":34962
		},
		{
			"buffer":0,
			"byteLength":4224,
			"byteOffset":234696,
			"target":34962
		},
		{
			"buffer":0,
			"byteLength":2816,
			"byteOffset":238920,
			"target":34962
		},
		{
			"buffer":0,
			"byteLength":384,
			"byteOffset":241736,
			"target":34962
		},
		{
			"buffer":0,
			"byteLength":384,
			"byteOffset":242120,
			"target":34962
		},
		{
			"buffer":0,
			"byteLength":256,
			"byteOffset":242504,
			"target":34962
		},
		{
			"buffer":0,
			"byteLength":4224,
			"byteOffset":242760,
			"target":34962
		},
		{
			"buffer":0,
			"byteLength":4224,
			"byteOffset":246984,
			"target":34962
		},
		{
			"buffer":0,
			"byteLength":2816,
			"byteOffset":251208,
			"target":34962
		},
		{
			"buffer":0,
			"byteLength":384,
			"byteOffset":254024,
			"target":34962
		},
		{
			"buffer":0,
			"byteLength":384,
			"byteOffset":254408,
			"target":34962
		},
		{
			"buffer":0,
			"byteLength":256,
			"byteOffset":254792,
			"target":34962
		},
		{
			"buffer":0,
			"byteLength":624,
			"byteOffset":255048,
			"target":34962
		},
		{
			"buffer":0,
			"byteLength":624,
			"byteOffset":255672,
			"target":34962
		},
		{
			"buffer":0,
			"byteLength":416,
			"byteOffset":256296,
			"target":34962
		},
		{
			"buffer":0,
			"byteLength":216,
			"byteOffset":256712,
			"target":34963
		}
	],
	"buffers":[
		{
			"byteLength":256928,
			"uri":"bus.bin"
		}
	]
}
