<svg width="99" height="99" viewBox="0 0 99 99" fill="none" xmlns="http://www.w3.org/2000/svg">
<circle cx="49.5" cy="49.5" r="45.5" fill="white" stroke="#E50012" stroke-width="8"/>
<path d="M91 49.5C91 54.9499 89.9266 60.3464 87.841 65.3814C85.7554 70.4164 82.6986 74.9913 78.8449 78.8449C74.9913 82.6986 70.4164 85.7554 65.3814 87.841C60.3463 89.9266 54.9499 91 49.5 91C44.0501 91 38.6536 89.9266 33.6186 87.841C28.5836 85.7554 24.0087 82.6986 20.1551 78.8449C16.3014 74.9913 13.2446 70.4164 11.159 65.3814C9.07343 60.3463 8 54.9499 8 49.5L49.5 49.5H91Z" fill="#FF0707"/>
<mask id="path-3-outside-1_14_44" maskUnits="userSpaceOnUse" x="31" y="22" width="32" height="55" fill="black">
<rect fill="white" x="31" y="22" width="32" height="55"/>
<path d="M58.7716 26.4545V73H46.1352V38.0909H45.8625L35.6807 44.1818V33.4545L47.1352 26.4545H58.7716Z"/>
</mask>
<path d="M58.7716 26.4545V73H46.1352V38.0909H45.8625L35.6807 44.1818V33.4545L47.1352 26.4545H58.7716Z" fill="white"/>
<path d="M58.7716 26.4545H62.7716V22.4545H58.7716V26.4545ZM58.7716 73V77H62.7716V73H58.7716ZM46.1352 73H42.1352V77H46.1352V73ZM46.1352 38.0909H50.1352V34.0909H46.1352V38.0909ZM45.8625 38.0909V34.0909H44.7574L43.809 34.6582L45.8625 38.0909ZM35.6807 44.1818H31.6807V51.2358L37.7342 47.6145L35.6807 44.1818ZM35.6807 33.4545L33.5949 30.0414L31.6807 31.2112V33.4545H35.6807ZM47.1352 26.4545V22.4545H46.0098L45.0494 23.0414L47.1352 26.4545ZM54.7716 26.4545V73H62.7716V26.4545H54.7716ZM58.7716 69H46.1352V77H58.7716V69ZM50.1352 73V38.0909H42.1352V73H50.1352ZM46.1352 34.0909H45.8625V42.0909H46.1352V34.0909ZM43.809 34.6582L33.6272 40.7491L37.7342 47.6145L47.916 41.5236L43.809 34.6582ZM39.6807 44.1818V33.4545H31.6807V44.1818H39.6807ZM37.7665 36.8677L49.221 29.8677L45.0494 23.0414L33.5949 30.0414L37.7665 36.8677ZM47.1352 30.4545H58.7716V22.4545H47.1352V30.4545Z" fill="#E50012" mask="url(#path-3-outside-1_14_44)"/>
</svg>
