<svg width="99" height="99" viewBox="0 0 99 99" fill="none" xmlns="http://www.w3.org/2000/svg">
<circle cx="49.5" cy="49.5" r="45.5" fill="white" stroke="#E50012" stroke-width="8"/>
<path d="M91 49.5C91 54.9499 89.9266 60.3464 87.841 65.3814C85.7554 70.4164 82.6986 74.9913 78.8449 78.8449C74.9913 82.6986 70.4164 85.7554 65.3814 87.841C60.3463 89.9266 54.9499 91 49.5 91C44.0501 91 38.6536 89.9266 33.6186 87.841C28.5836 85.7554 24.0087 82.6986 20.1551 78.8449C16.3014 74.9913 13.2446 70.4164 11.159 65.3814C9.07343 60.3463 8 54.9499 8 49.5L49.5 49.5H91Z" fill="#FF0707"/>
<mask id="path-3-outside-1_26_106" maskUnits="userSpaceOnUse" x="15" y="24" width="70" height="50" fill="black">
<rect fill="white" x="15" y="24" width="70" height="50"/>
<path d="M39.3448 29.2727V70H28.288V39.4545H28.0494L19.1403 44.7841V35.3977L29.163 29.2727H39.3448ZM48.827 70V62.0455L64.0202 49.4773C65.0278 48.642 65.8895 47.8598 66.6055 47.1307C67.3346 46.3883 67.8914 45.6259 68.2759 44.8438C68.6736 44.0616 68.8725 43.1932 68.8725 42.2386C68.8725 41.1913 68.6471 40.2964 68.1964 39.554C67.7589 38.8116 67.149 38.2415 66.3668 37.8438C65.5846 37.4328 64.6831 37.2273 63.6623 37.2273C62.6414 37.2273 61.7399 37.4328 60.9577 37.8438C60.1888 38.2547 59.5922 38.858 59.168 39.6534C58.7437 40.4489 58.5316 41.4167 58.5316 42.5568H48.0316C48.0316 39.6932 48.6746 37.2273 49.9606 35.1591C51.2466 33.0909 53.0628 31.5 55.4094 30.3864C57.756 29.2727 60.507 28.7159 63.6623 28.7159C66.9236 28.7159 69.7475 29.2396 72.1339 30.2869C74.5335 31.321 76.3829 32.7794 77.6822 34.6619C78.9947 36.5445 79.6509 38.7519 79.6509 41.2841C79.6509 42.8485 79.3261 44.4062 78.6765 45.9574C78.0269 47.4953 76.8602 49.1989 75.1765 51.0682C73.4928 52.9375 71.0998 55.1648 67.9975 57.75L64.1793 60.9318V61.1705H80.0884V70H48.827Z"/>
</mask>
<path d="M39.3448 29.2727V70H28.288V39.4545H28.0494L19.1403 44.7841V35.3977L29.163 29.2727H39.3448ZM48.827 70V62.0455L64.0202 49.4773C65.0278 48.642 65.8895 47.8598 66.6055 47.1307C67.3346 46.3883 67.8914 45.6259 68.2759 44.8438C68.6736 44.0616 68.8725 43.1932 68.8725 42.2386C68.8725 41.1913 68.6471 40.2964 68.1964 39.554C67.7589 38.8116 67.149 38.2415 66.3668 37.8438C65.5846 37.4328 64.6831 37.2273 63.6623 37.2273C62.6414 37.2273 61.7399 37.4328 60.9577 37.8438C60.1888 38.2547 59.5922 38.858 59.168 39.6534C58.7437 40.4489 58.5316 41.4167 58.5316 42.5568H48.0316C48.0316 39.6932 48.6746 37.2273 49.9606 35.1591C51.2466 33.0909 53.0628 31.5 55.4094 30.3864C57.756 29.2727 60.507 28.7159 63.6623 28.7159C66.9236 28.7159 69.7475 29.2396 72.1339 30.2869C74.5335 31.321 76.3829 32.7794 77.6822 34.6619C78.9947 36.5445 79.6509 38.7519 79.6509 41.2841C79.6509 42.8485 79.3261 44.4062 78.6765 45.9574C78.0269 47.4953 76.8602 49.1989 75.1765 51.0682C73.4928 52.9375 71.0998 55.1648 67.9975 57.75L64.1793 60.9318V61.1705H80.0884V70H48.827Z" fill="white"/>
<path d="M39.3448 29.2727H43.3448V25.2727H39.3448V29.2727ZM39.3448 70V74H43.3448V70H39.3448ZM28.288 70H24.288V74H28.288V70ZM28.288 39.4545H32.288V35.4545H28.288V39.4545ZM28.0494 39.4545V35.4545H26.9443L25.9959 36.0219L28.0494 39.4545ZM19.1403 44.7841H15.1403V51.838L21.1938 48.2168L19.1403 44.7841ZM19.1403 35.3977L17.0545 31.9846L15.1403 33.1544V35.3977H19.1403ZM29.163 29.2727V25.2727H28.0375L27.0772 25.8596L29.163 29.2727ZM35.3448 29.2727V70H43.3448V29.2727H35.3448ZM39.3448 66H28.288V74H39.3448V66ZM32.288 70V39.4545H24.288V70H32.288ZM28.288 35.4545H28.0494V43.4545H28.288V35.4545ZM25.9959 36.0219L17.0868 41.3514L21.1938 48.2168L30.1028 42.8872L25.9959 36.0219ZM23.1403 44.7841V35.3977H15.1403V44.7841H23.1403ZM21.2261 38.8109L31.2488 32.6859L27.0772 25.8596L17.0545 31.9846L21.2261 38.8109ZM29.163 33.2727H39.3448V25.2727H29.163V33.2727ZM48.827 70H44.827V74H48.827V70ZM48.827 62.0455L46.2774 58.9633L44.827 60.1631V62.0455H48.827ZM64.0202 49.4773L66.5698 52.5594L66.573 52.5568L64.0202 49.4773ZM66.6055 47.1307L63.7517 44.3279L63.7512 44.3283L66.6055 47.1307ZM68.2759 44.8438L64.7104 43.0308L64.6981 43.0549L64.6861 43.0793L68.2759 44.8438ZM68.1964 39.554L64.7502 41.5847L64.7636 41.6074L64.7772 41.6299L68.1964 39.554ZM66.3668 37.8438L64.5063 41.3847L64.53 41.3972L64.5538 41.4093L66.3668 37.8438ZM60.9577 37.8438L59.0972 34.3028L59.0847 34.3094L59.0722 34.316L60.9577 37.8438ZM59.168 39.6534L55.6385 37.7711L55.6385 37.7711L59.168 39.6534ZM58.5316 42.5568V46.5568H62.5316V42.5568H58.5316ZM48.0316 42.5568H44.0316V46.5568H48.0316V42.5568ZM49.9606 35.1591L46.5637 33.0469L46.5637 33.0469L49.9606 35.1591ZM55.4094 30.3864L57.1244 34.0001L57.1244 34.0001L55.4094 30.3864ZM72.1339 30.2869L70.5263 33.9497L70.5386 33.9551L70.5508 33.9604L72.1339 30.2869ZM77.6822 34.6619L74.3901 36.9339L74.3955 36.9418L74.4009 36.9496L77.6822 34.6619ZM78.6765 45.9574L82.3612 47.5139L82.366 47.5026L78.6765 45.9574ZM75.1765 51.0682L78.1486 53.7452L78.1486 53.7452L75.1765 51.0682ZM67.9975 57.75L70.5582 60.8229L67.9975 57.75ZM64.1793 60.9318L61.6186 57.8589L60.1793 59.0583V60.9318H64.1793ZM64.1793 61.1705H60.1793V65.1705H64.1793V61.1705ZM80.0884 61.1705H84.0884V57.1705H80.0884V61.1705ZM80.0884 70V74H84.0884V70H80.0884ZM52.827 70V62.0455H44.827V70H52.827ZM51.3767 65.1276L66.5698 52.5594L61.4706 46.3951L46.2774 58.9633L51.3767 65.1276ZM66.573 52.5568C67.6582 51.6572 68.6259 50.7822 69.4597 49.933L63.7512 44.3283C63.1531 44.9375 62.3974 45.6269 61.4675 46.3978L66.573 52.5568ZM69.4592 49.9335C70.4313 48.9438 71.2604 47.8396 71.8657 46.6082L64.6861 43.0793C64.5224 43.4123 64.2379 43.8327 63.7517 44.3279L69.4592 49.9335ZM71.8414 46.6567C72.5493 45.2646 72.8725 43.7669 72.8725 42.2386H64.8725C64.8725 42.6195 64.798 42.8585 64.7104 43.0308L71.8414 46.6567ZM72.8725 42.2386C72.8725 40.6105 72.5177 38.9641 71.6155 37.4781L64.7772 41.6299C64.7828 41.639 64.8033 41.6744 64.8246 41.7589C64.8469 41.8474 64.8725 42.0009 64.8725 42.2386H72.8725ZM71.6425 37.5232C70.8106 36.1114 69.6284 35.0148 68.1798 34.2782L64.5538 41.4093C64.6697 41.4682 64.7072 41.5117 64.7502 41.5847L71.6425 37.5232ZM68.2273 34.3028C66.788 33.5465 65.2301 33.2273 63.6623 33.2273V41.2273C64.1361 41.2273 64.3813 41.319 64.5063 41.3847L68.2273 34.3028ZM63.6623 33.2273C62.0944 33.2273 60.5366 33.5465 59.0972 34.3028L62.8182 41.3847C62.9433 41.319 63.1885 41.2273 63.6623 41.2273V33.2273ZM59.0722 34.316C57.5797 35.1138 56.4222 36.3016 55.6385 37.7711L62.6974 41.5358C62.7387 41.4583 62.7681 41.4267 62.7776 41.4172C62.7862 41.4084 62.8024 41.3933 62.8432 41.3715L59.0722 34.316ZM55.6385 37.7711C54.8342 39.2792 54.5316 40.9301 54.5316 42.5568H62.5316C62.5316 41.9033 62.6532 41.6185 62.6974 41.5358L55.6385 37.7711ZM58.5316 38.5568H48.0316V46.5568H58.5316V38.5568ZM52.0316 42.5568C52.0316 40.3066 52.5305 38.6012 53.3574 37.2712L46.5637 33.0469C44.8187 35.8534 44.0316 39.0798 44.0316 42.5568H52.0316ZM53.3574 37.2713C54.2111 35.8984 55.4226 34.8077 57.1244 34.0001L53.6945 26.7727C50.7031 28.1923 48.282 30.2834 46.5637 33.0469L53.3574 37.2713ZM57.1244 34.0001C58.8324 33.1895 60.975 32.7159 63.6623 32.7159V24.7159C60.0389 24.7159 56.6796 25.356 53.6945 26.7727L57.1244 34.0001ZM63.6623 32.7159C66.505 32.7159 68.7571 33.1732 70.5263 33.9497L73.7414 26.6242C70.7379 25.306 67.3423 24.7159 63.6623 24.7159V32.7159ZM70.5508 33.9604C72.361 34.7404 73.5758 35.7541 74.3901 36.9339L80.9743 32.3899C79.1901 29.8046 76.706 27.9016 73.7169 26.6135L70.5508 33.9604ZM74.4009 36.9496C75.1974 38.092 75.6509 39.4816 75.6509 41.2841H83.6509C83.6509 38.0222 82.792 34.997 80.9634 32.3743L74.4009 36.9496ZM75.6509 41.2841C75.6509 42.2792 75.4472 43.3134 74.987 44.4122L82.366 47.5026C83.205 45.4991 83.6509 43.4178 83.6509 41.2841H75.6509ZM74.9917 44.4009C74.5799 45.3758 73.7253 46.7025 72.2043 48.3912L78.1486 53.7452C79.995 51.6952 81.4738 49.6147 82.3612 47.5139L74.9917 44.4009ZM72.2043 48.3912C70.7007 50.0605 68.4688 52.1504 65.4368 54.6771L70.5582 60.8229C73.7307 58.1792 76.2848 55.8145 78.1486 53.7452L72.2043 48.3912ZM65.4368 54.6771L61.6186 57.8589L66.7401 64.0047L70.5582 60.8229L65.4368 54.6771ZM60.1793 60.9318V61.1705H68.1793V60.9318H60.1793ZM64.1793 65.1705H80.0884V57.1705H64.1793V65.1705ZM76.0884 61.1705V70H84.0884V61.1705H76.0884ZM80.0884 66H48.827V74H80.0884V66Z" fill="#E50012" mask="url(#path-3-outside-1_26_106)"/>
</svg>
