<svg width="99" height="99" viewBox="0 0 99 99" fill="none" xmlns="http://www.w3.org/2000/svg">
<circle cx="49.5" cy="49.5" r="45.5" fill="white" stroke="#E50012" stroke-width="8"/>
<path d="M91 49.5C91 54.9499 89.9266 60.3464 87.841 65.3814C85.7554 70.4164 82.6986 74.9913 78.8449 78.8449C74.9913 82.6986 70.4164 85.7554 65.3814 87.841C60.3463 89.9266 54.9499 91 49.5 91C44.0501 91 38.6536 89.9266 33.6186 87.841C28.5836 85.7554 24.0087 82.6986 20.1551 78.8449C16.3014 74.9913 13.2446 70.4164 11.159 65.3814C9.07343 60.3463 8 54.9499 8 49.5L49.5 49.5H91Z" fill="#FF0707"/>
<mask id="path-3-outside-1_26_138" maskUnits="userSpaceOnUse" x="14" y="24" width="72" height="51" fill="black">
<rect fill="white" x="14" y="24" width="72" height="51"/>
<path d="M38.2784 29.2727V70H27.2216V39.4545H26.983L18.0739 44.7841V35.3977L28.0966 29.2727H38.2784ZM63.6697 28.7159C66.0428 28.7159 68.29 29.0937 70.4112 29.8494C72.5324 30.5919 74.4084 31.7652 76.039 33.3693C77.683 34.9735 78.969 37.0682 79.897 39.6534C80.8383 42.2254 81.3156 45.3409 81.3288 49C81.3421 52.3409 80.9245 55.3437 80.076 58.0085C79.2408 60.66 78.0409 62.9205 76.4765 64.7898C74.9254 66.6591 73.0561 68.0909 70.8686 69.0852C68.6943 70.0663 66.2682 70.5568 63.5902 70.5568C60.5807 70.5568 57.9358 69.9801 55.6555 68.8267C53.3752 67.6733 51.5589 66.1222 50.2067 64.1733C48.8544 62.2244 48.0656 60.0568 47.8402 57.6705H58.7379C59.0031 58.9034 59.5864 59.7983 60.4879 60.3551C61.3894 60.8987 62.4235 61.1705 63.5902 61.1705C65.9235 61.1705 67.6271 60.1629 68.701 58.1477C69.7881 56.1193 70.3383 53.4148 70.3515 50.0341H70.1129C69.5959 51.2803 68.8137 52.3475 67.7663 53.2358C66.719 54.1241 65.4993 54.8068 64.1072 55.2841C62.7152 55.7614 61.2436 56 59.6925 56C57.2398 56 55.0921 55.4498 53.2493 54.3494C51.4065 53.2358 49.968 51.7178 48.9339 49.7955C47.8998 47.8598 47.3762 45.6591 47.3629 43.1932C47.3497 40.303 48.0324 37.7708 49.4112 35.5966C50.79 33.4223 52.7057 31.732 55.1584 30.5256C57.611 29.3191 60.4481 28.7159 63.6697 28.7159ZM63.7493 37.0682C62.6489 37.0682 61.6678 37.3201 60.8061 37.8239C59.9576 38.3277 59.2881 39.0104 58.7976 39.8722C58.3203 40.7339 58.0883 41.7083 58.1015 42.7955C58.1148 43.8826 58.3601 44.857 58.8373 45.7188C59.3279 46.5805 59.9908 47.2633 60.826 47.767C61.6745 48.2708 62.6489 48.5227 63.7493 48.5227C64.558 48.5227 65.307 48.3835 65.9964 48.1051C66.6858 47.8134 67.2824 47.4091 67.7862 46.892C68.3033 46.3617 68.701 45.7519 68.9794 45.0625C69.2711 44.3598 69.4103 43.6042 69.397 42.7955C69.3837 41.7083 69.1318 40.7339 68.6413 39.8722C68.1508 39.0104 67.4813 38.3277 66.6328 37.8239C65.7843 37.3201 64.8231 37.0682 63.7493 37.0682Z"/>
</mask>
<path d="M38.2784 29.2727V70H27.2216V39.4545H26.983L18.0739 44.7841V35.3977L28.0966 29.2727H38.2784ZM63.6697 28.7159C66.0428 28.7159 68.29 29.0937 70.4112 29.8494C72.5324 30.5919 74.4084 31.7652 76.039 33.3693C77.683 34.9735 78.969 37.0682 79.897 39.6534C80.8383 42.2254 81.3156 45.3409 81.3288 49C81.3421 52.3409 80.9245 55.3437 80.076 58.0085C79.2408 60.66 78.0409 62.9205 76.4765 64.7898C74.9254 66.6591 73.0561 68.0909 70.8686 69.0852C68.6943 70.0663 66.2682 70.5568 63.5902 70.5568C60.5807 70.5568 57.9358 69.9801 55.6555 68.8267C53.3752 67.6733 51.5589 66.1222 50.2067 64.1733C48.8544 62.2244 48.0656 60.0568 47.8402 57.6705H58.7379C59.0031 58.9034 59.5864 59.7983 60.4879 60.3551C61.3894 60.8987 62.4235 61.1705 63.5902 61.1705C65.9235 61.1705 67.6271 60.1629 68.701 58.1477C69.7881 56.1193 70.3383 53.4148 70.3515 50.0341H70.1129C69.5959 51.2803 68.8137 52.3475 67.7663 53.2358C66.719 54.1241 65.4993 54.8068 64.1072 55.2841C62.7152 55.7614 61.2436 56 59.6925 56C57.2398 56 55.0921 55.4498 53.2493 54.3494C51.4065 53.2358 49.968 51.7178 48.9339 49.7955C47.8998 47.8598 47.3762 45.6591 47.3629 43.1932C47.3497 40.303 48.0324 37.7708 49.4112 35.5966C50.79 33.4223 52.7057 31.732 55.1584 30.5256C57.611 29.3191 60.4481 28.7159 63.6697 28.7159ZM63.7493 37.0682C62.6489 37.0682 61.6678 37.3201 60.8061 37.8239C59.9576 38.3277 59.2881 39.0104 58.7976 39.8722C58.3203 40.7339 58.0883 41.7083 58.1015 42.7955C58.1148 43.8826 58.3601 44.857 58.8373 45.7188C59.3279 46.5805 59.9908 47.2633 60.826 47.767C61.6745 48.2708 62.6489 48.5227 63.7493 48.5227C64.558 48.5227 65.307 48.3835 65.9964 48.1051C66.6858 47.8134 67.2824 47.4091 67.7862 46.892C68.3033 46.3617 68.701 45.7519 68.9794 45.0625C69.2711 44.3598 69.4103 43.6042 69.397 42.7955C69.3837 41.7083 69.1318 40.7339 68.6413 39.8722C68.1508 39.0104 67.4813 38.3277 66.6328 37.8239C65.7843 37.3201 64.8231 37.0682 63.7493 37.0682Z" fill="white"/>
<path d="M38.2784 29.2727H42.2784V25.2727H38.2784V29.2727ZM38.2784 70V74H42.2784V70H38.2784ZM27.2216 70H23.2216V74H27.2216V70ZM27.2216 39.4545H31.2216V35.4545H27.2216V39.4545ZM26.983 39.4545V35.4545H25.8779L24.9295 36.0219L26.983 39.4545ZM18.0739 44.7841H14.0739V51.838L20.1274 48.2168L18.0739 44.7841ZM18.0739 35.3977L15.9881 31.9846L14.0739 33.1544V35.3977H18.0739ZM28.0966 29.2727V25.2727H26.9711L26.0108 25.8596L28.0966 29.2727ZM34.2784 29.2727V70H42.2784V29.2727H34.2784ZM38.2784 66H27.2216V74H38.2784V66ZM31.2216 70V39.4545H23.2216V70H31.2216ZM27.2216 35.4545H26.983V43.4545H27.2216V35.4545ZM24.9295 36.0219L16.0204 41.3514L20.1274 48.2168L29.0364 42.8872L24.9295 36.0219ZM22.0739 44.7841V35.3977H14.0739V44.7841H22.0739ZM20.1597 38.8109L30.1824 32.6859L26.0108 25.8596L15.9881 31.9846L20.1597 38.8109ZM28.0966 33.2727H38.2784V25.2727H28.0966V33.2727ZM70.4112 29.8494L69.0688 33.6175L69.0793 33.6212L69.0898 33.6249L70.4112 29.8494ZM76.039 33.3693L73.2339 36.2208L73.2397 36.2265L73.2455 36.2322L76.039 33.3693ZM79.897 39.6534L76.1322 41.0049L76.1364 41.0165L76.1407 41.0281L79.897 39.6534ZM81.3288 49L77.3288 49.0145L77.3289 49.0159L81.3288 49ZM80.076 58.0085L76.2645 56.7949L76.2608 56.8067L80.076 58.0085ZM76.4765 64.7898L73.409 62.2226L73.4036 62.229L73.3983 62.2355L76.4765 64.7898ZM70.8686 69.0852L72.5138 72.7313L72.5238 72.7267L70.8686 69.0852ZM55.6555 68.8267L53.8501 72.3961L53.8501 72.3961L55.6555 68.8267ZM47.8402 57.6705V53.6705H43.4446L43.8579 58.0466L47.8402 57.6705ZM58.7379 57.6705L62.6485 56.8295L61.9691 53.6705H58.7379V57.6705ZM60.4879 60.3551L58.3859 63.7583L58.4042 63.7696L58.4225 63.7806L60.4879 60.3551ZM68.701 58.1477L65.1754 56.2582L65.1709 56.2666L68.701 58.1477ZM70.3515 50.0341L74.3515 50.0498L74.3673 46.0341H70.3515V50.0341ZM70.1129 50.0341V46.0341H67.4419L66.4183 48.5012L70.1129 50.0341ZM67.7663 53.2358L65.1791 50.1852L65.1791 50.1852L67.7663 53.2358ZM53.2493 54.3494L51.1804 57.7729L51.1895 57.7783L51.1986 57.7838L53.2493 54.3494ZM48.9339 49.7955L45.4058 51.6803L45.4113 51.6904L48.9339 49.7955ZM47.3629 43.1932L43.363 43.2115L43.363 43.2147L47.3629 43.1932ZM49.4112 35.5966L46.0332 33.4544L49.4112 35.5966ZM55.1584 30.5256L56.9239 34.1148L56.9239 34.1148L55.1584 30.5256ZM60.8061 37.8239L58.7873 34.3707L58.7756 34.3775L58.7639 34.3844L60.8061 37.8239ZM58.7976 39.8722L55.3213 37.8934L55.3097 37.9137L55.2984 37.9342L58.7976 39.8722ZM58.1015 42.7955L54.1018 42.8442L54.1018 42.8442L58.1015 42.7955ZM58.8373 45.7188L55.3382 47.6567L55.3495 47.6772L55.3611 47.6975L58.8373 45.7188ZM60.826 47.767L58.76 51.1922L58.7719 51.1994L58.7838 51.2065L60.826 47.767ZM65.9964 48.1051L67.4943 51.8141L67.5247 51.8018L67.555 51.789L65.9964 48.1051ZM67.7862 46.892L64.9222 44.0996L64.9213 44.1006L67.7862 46.892ZM68.9794 45.0625L65.285 43.529L65.2776 43.5468L65.2704 43.5646L68.9794 45.0625ZM69.397 42.7955L65.3973 42.8442L65.3974 42.8526L65.3975 42.861L69.397 42.7955ZM68.6413 39.8722L65.1651 41.8509L65.1651 41.851L68.6413 39.8722ZM66.6328 37.8239L64.5906 41.2633L66.6328 37.8239ZM63.6697 32.7159C65.6103 32.7159 67.4013 33.0234 69.0688 33.6175L71.7536 26.0814C69.1787 25.1641 66.4754 24.7159 63.6697 24.7159V32.7159ZM69.0898 33.6249C70.6442 34.1689 72.0159 35.0226 73.2339 36.2208L78.8442 30.5178C76.8008 28.5077 74.4206 27.0148 71.7326 26.074L69.0898 33.6249ZM73.2455 36.2322C74.3784 37.3376 75.3694 38.88 76.1322 41.0049L83.6618 38.3019C82.5685 35.2564 80.9876 32.6093 78.8326 30.5065L73.2455 36.2322ZM76.1407 41.0281C76.8789 43.0453 77.3167 45.6731 77.3288 49.0145L85.3288 48.9855C85.3144 45.0087 84.7977 41.4055 83.6533 38.2787L76.1407 41.0281ZM77.3289 49.0159C77.3408 52.0183 76.9646 54.5963 76.2645 56.7949L83.8874 59.2221C84.8843 56.0912 85.3434 52.6635 85.3288 48.9841L77.3289 49.0159ZM76.2608 56.8067C75.561 59.0283 74.5932 60.8076 73.409 62.2226L79.5441 67.3569C81.4886 65.0333 82.9205 62.2918 83.8912 59.2103L76.2608 56.8067ZM73.3983 62.2355C72.2289 63.6448 70.8443 64.7024 69.2134 65.4438L72.5238 72.7267C75.2679 71.4794 77.6219 69.6734 79.5548 67.3441L73.3983 62.2355ZM69.2234 65.4392C67.6263 66.1599 65.7707 66.5568 63.5902 66.5568V74.5568C66.7657 74.5568 69.7624 73.9727 72.5137 72.7312L69.2234 65.4392ZM63.5902 66.5568C61.0969 66.5568 59.0902 66.0814 57.461 65.2573L53.8501 72.3961C56.7814 73.8788 60.0645 74.5568 63.5902 74.5568V66.5568ZM57.461 65.2573C55.7266 64.3801 54.4374 63.254 53.493 61.893L46.9203 66.4536C48.6805 68.9903 51.0238 70.9665 53.8501 72.3961L57.461 65.2573ZM53.493 61.893C52.5367 60.5147 51.984 59.0043 51.8225 57.2943L43.8579 58.0466C44.1472 61.1094 45.1721 63.9341 46.9203 66.4536L53.493 61.893ZM47.8402 61.6705H58.7379V53.6705H47.8402V61.6705ZM54.8273 58.5114C55.2744 60.5904 56.3834 62.5215 58.3859 63.7583L62.5899 56.9519C62.6101 56.9644 62.6383 56.9852 62.6678 57.0139C62.6971 57.0426 62.716 57.0679 62.7252 57.082C62.7442 57.1111 62.6964 57.0523 62.6485 56.8295L54.8273 58.5114ZM58.4225 63.7806C60.0134 64.7398 61.7767 65.1705 63.5902 65.1705V57.1705C63.0703 57.1705 62.7655 57.0575 62.5533 56.9296L58.4225 63.7806ZM63.5902 65.1705C65.344 65.1705 67.0832 64.7868 68.6542 63.8577C70.2298 62.9258 71.4029 61.5829 72.231 60.0289L65.1709 56.2666C64.9252 56.7277 64.7096 56.8962 64.5816 56.9719C64.4489 57.0503 64.1697 57.1705 63.5902 57.1705V65.1705ZM72.2266 60.0373C73.7336 57.2253 74.3368 53.8001 74.3515 50.0498L66.3516 50.0184C66.3398 53.0294 65.8426 55.0134 65.1754 56.2582L72.2266 60.0373ZM70.3515 46.0341H70.1129V54.0341H70.3515V46.0341ZM66.4183 48.5012C66.1491 49.15 65.751 49.7001 65.1791 50.1852L70.3535 56.2864C71.8763 54.995 73.0426 53.4106 73.8075 51.567L66.4183 48.5012ZM65.1791 50.1852C64.5388 50.7282 63.7641 51.1732 62.8099 51.5003L65.4045 59.0679C67.2345 58.4405 68.8992 57.5199 70.3535 56.2864L65.1791 50.1852ZM62.8099 51.5003C61.8576 51.8268 60.8262 52 59.6925 52V60C61.661 60 63.5728 59.6959 65.4045 59.0679L62.8099 51.5003ZM59.6925 52C57.8569 52 56.4385 51.5949 55.3 50.9151L51.1986 57.7838C53.7457 59.3047 56.6227 60 59.6925 60V52ZM55.3181 50.926C54.0968 50.1879 53.1565 49.2016 52.4566 47.9005L45.4113 51.6904C46.7796 54.234 48.7162 56.2837 51.1804 57.7729L55.3181 50.926ZM52.462 47.9106C51.7706 46.6163 51.3731 45.0688 51.3629 43.1717L43.363 43.2147C43.3793 46.2493 44.0291 49.1034 45.4059 51.6803L52.462 47.9106ZM51.3629 43.1748C51.3527 40.9528 51.8689 39.19 52.7892 37.7388L46.0332 33.4544C44.1959 36.3516 43.3466 39.6532 43.363 43.2115L51.3629 43.1748ZM52.7892 37.7388C53.7493 36.2248 55.0892 35.0173 56.9239 34.1148L53.3928 26.9363C50.3222 28.4467 47.8307 30.6199 46.0332 33.4544L52.7892 37.7388ZM56.9239 34.1148C58.7374 33.2228 60.9516 32.7159 63.6697 32.7159V24.7159C59.9447 24.7159 56.4847 25.4154 53.3928 26.9363L56.9239 34.1148ZM63.7493 33.0682C62.014 33.0682 60.3229 33.4729 58.7873 34.3707L62.8249 41.2771C63.0127 41.1672 63.2838 41.0682 63.7493 41.0682V33.0682ZM58.7639 34.3844C57.3158 35.2443 56.1533 36.4317 55.3213 37.8934L62.2738 41.851C62.4229 41.5891 62.5994 41.411 62.8482 41.2633L58.7639 34.3844ZM55.2984 37.9342C54.4506 39.4649 54.081 41.1364 54.1018 42.8442L62.1012 42.7467C62.0956 42.2802 62.19 42.0029 62.2967 41.8102L55.2984 37.9342ZM54.1018 42.8442C54.1223 44.5228 54.5081 46.1581 55.3382 47.6567L62.3365 43.7808C62.212 43.5559 62.1073 43.2423 62.1012 42.7467L54.1018 42.8442ZM55.3611 47.6975C56.1843 49.1438 57.3286 50.3288 58.76 51.1922L62.892 44.3419C62.6529 44.1977 62.4714 44.0172 62.3136 43.74L55.3611 47.6975ZM58.7838 51.2065C60.3194 52.1182 62.015 52.5227 63.7493 52.5227V44.5227C63.2827 44.5227 63.0295 44.4234 62.8681 44.3276L58.7838 51.2065ZM63.7493 52.5227C65.026 52.5227 66.2886 52.301 67.4943 51.8141L64.4986 44.3961C64.3254 44.4661 64.0899 44.5227 63.7493 44.5227V52.5227ZM67.555 51.789C68.7164 51.2976 69.7619 50.5961 70.6511 49.6835L64.9213 44.1006C64.803 44.222 64.6552 44.3293 64.4379 44.4212L67.555 51.789ZM70.6502 49.6844C71.5318 48.7802 72.2159 47.7302 72.6884 46.5604L65.2704 43.5646C65.186 43.7736 65.0747 43.9433 64.9222 44.0996L70.6502 49.6844ZM72.6738 46.596C73.1887 45.3554 73.4181 44.0517 73.3965 42.7299L65.3975 42.861C65.4024 43.1566 65.3534 43.3643 65.285 43.529L72.6738 46.596ZM73.3967 42.7467C73.376 41.0492 72.9748 39.3993 72.1176 37.8934L65.1651 41.851C65.2889 42.0685 65.3915 42.3675 65.3973 42.8442L73.3967 42.7467ZM72.1176 37.8934C71.2855 36.4317 70.1231 35.2443 68.675 34.3844L64.5906 41.2633C64.8395 41.411 65.016 41.5891 65.1651 41.8509L72.1176 37.8934ZM68.675 34.3844C67.1545 33.4817 65.4763 33.0682 63.7493 33.0682V41.0682C64.1699 41.0682 64.4142 41.1585 64.5906 41.2633L68.675 34.3844Z" fill="#E50012" mask="url(#path-3-outside-1_26_138)"/>
</svg>
