<svg width="99" height="99" viewBox="0 0 99 99" fill="none" xmlns="http://www.w3.org/2000/svg">
<circle cx="49.5" cy="49.5" r="45.5" fill="white" stroke="#E50012" stroke-width="8"/>
<path d="M91 49.5C91 54.9499 89.9266 60.3464 87.841 65.3814C85.7554 70.4164 82.6986 74.9913 78.8449 78.8449C74.9913 82.6986 70.4164 85.7554 65.3814 87.841C60.3463 89.9266 54.9499 91 49.5 91C44.0501 91 38.6536 89.9266 33.6186 87.841C28.5836 85.7554 24.0087 82.6986 20.1551 78.8449C16.3014 74.9913 13.2446 70.4164 11.159 65.3814C9.07343 60.3463 8 54.9499 8 49.5L49.5 49.5H91Z" fill="#FF0707"/>
<mask id="path-3-outside-1_26_126" maskUnits="userSpaceOnUse" x="14" y="24" width="72" height="51" fill="black">
<rect fill="white" x="14" y="24" width="72" height="51"/>
<path d="M38.2784 29.2727V70H27.2216V39.4545H26.983L18.0739 44.7841V35.3977L28.0966 29.2727H38.2784ZM64.7834 70.5568C62.4103 70.5568 60.1565 70.1856 58.022 69.4432C55.9008 68.6875 54.0182 67.5009 52.3743 65.8835C50.7303 64.2661 49.4377 62.1581 48.4964 59.5597C47.5684 56.9612 47.111 53.8125 47.1243 50.1136C47.1375 46.8125 47.5618 43.8428 48.397 41.2045C49.2455 38.5663 50.4453 36.3191 51.9964 34.4631C53.5608 32.607 55.4301 31.1884 57.6044 30.2074C59.7786 29.2131 62.1981 28.7159 64.8629 28.7159C67.8591 28.7159 70.4974 29.2926 72.7777 30.446C75.058 31.5994 76.8743 33.1439 78.2265 35.0795C79.5921 37.0019 80.3875 39.1231 80.6129 41.4432H69.7152C69.4633 40.2898 68.88 39.4479 67.9652 38.9176C67.0637 38.3741 66.0296 38.1023 64.8629 38.1023C62.5428 38.1023 60.8392 39.1098 59.7521 41.125C58.6783 43.1402 58.1281 45.7917 58.1015 49.0795H58.3402C58.8572 47.8333 59.6394 46.7661 60.6868 45.8778C61.7341 44.9896 62.9538 44.3068 64.3459 43.8295C65.7379 43.3523 67.2095 43.1136 68.7606 43.1136C71.2265 43.1136 73.3809 43.6705 75.2237 44.7841C77.0798 45.8977 78.5248 47.4223 79.5589 49.358C80.593 51.2936 81.1034 53.5076 81.0902 56C81.1034 58.9167 80.414 61.4688 79.022 63.6562C77.6432 65.8438 75.7275 67.5407 73.2748 68.7472C70.8222 69.9536 67.9917 70.5568 64.7834 70.5568ZM64.7038 62.2045C65.8042 62.2045 66.7786 61.9527 67.6271 61.4489C68.4889 60.9451 69.1584 60.2557 69.6356 59.3807C70.1262 58.5057 70.3648 57.5114 70.3515 56.3977C70.3648 55.2708 70.1262 54.2765 69.6356 53.4148C69.1584 52.5398 68.4889 51.8504 67.6271 51.3466C66.7786 50.8428 65.8042 50.5909 64.7038 50.5909C63.8951 50.5909 63.1461 50.7367 62.4567 51.0284C61.7805 51.3068 61.1906 51.7112 60.6868 52.2415C60.183 52.7585 59.7853 53.375 59.4936 54.0909C59.2152 54.7936 59.0693 55.5625 59.0561 56.3977C59.0693 57.5114 59.3212 58.5057 59.8118 59.3807C60.3023 60.2557 60.9718 60.9451 61.8203 61.4489C62.6688 61.9527 63.63 62.2045 64.7038 62.2045Z"/>
</mask>
<path d="M38.2784 29.2727V70H27.2216V39.4545H26.983L18.0739 44.7841V35.3977L28.0966 29.2727H38.2784ZM64.7834 70.5568C62.4103 70.5568 60.1565 70.1856 58.022 69.4432C55.9008 68.6875 54.0182 67.5009 52.3743 65.8835C50.7303 64.2661 49.4377 62.1581 48.4964 59.5597C47.5684 56.9612 47.111 53.8125 47.1243 50.1136C47.1375 46.8125 47.5618 43.8428 48.397 41.2045C49.2455 38.5663 50.4453 36.3191 51.9964 34.4631C53.5608 32.607 55.4301 31.1884 57.6044 30.2074C59.7786 29.2131 62.1981 28.7159 64.8629 28.7159C67.8591 28.7159 70.4974 29.2926 72.7777 30.446C75.058 31.5994 76.8743 33.1439 78.2265 35.0795C79.5921 37.0019 80.3875 39.1231 80.6129 41.4432H69.7152C69.4633 40.2898 68.88 39.4479 67.9652 38.9176C67.0637 38.3741 66.0296 38.1023 64.8629 38.1023C62.5428 38.1023 60.8392 39.1098 59.7521 41.125C58.6783 43.1402 58.1281 45.7917 58.1015 49.0795H58.3402C58.8572 47.8333 59.6394 46.7661 60.6868 45.8778C61.7341 44.9896 62.9538 44.3068 64.3459 43.8295C65.7379 43.3523 67.2095 43.1136 68.7606 43.1136C71.2265 43.1136 73.3809 43.6705 75.2237 44.7841C77.0798 45.8977 78.5248 47.4223 79.5589 49.358C80.593 51.2936 81.1034 53.5076 81.0902 56C81.1034 58.9167 80.414 61.4688 79.022 63.6562C77.6432 65.8438 75.7275 67.5407 73.2748 68.7472C70.8222 69.9536 67.9917 70.5568 64.7834 70.5568ZM64.7038 62.2045C65.8042 62.2045 66.7786 61.9527 67.6271 61.4489C68.4889 60.9451 69.1584 60.2557 69.6356 59.3807C70.1262 58.5057 70.3648 57.5114 70.3515 56.3977C70.3648 55.2708 70.1262 54.2765 69.6356 53.4148C69.1584 52.5398 68.4889 51.8504 67.6271 51.3466C66.7786 50.8428 65.8042 50.5909 64.7038 50.5909C63.8951 50.5909 63.1461 50.7367 62.4567 51.0284C61.7805 51.3068 61.1906 51.7112 60.6868 52.2415C60.183 52.7585 59.7853 53.375 59.4936 54.0909C59.2152 54.7936 59.0693 55.5625 59.0561 56.3977C59.0693 57.5114 59.3212 58.5057 59.8118 59.3807C60.3023 60.2557 60.9718 60.9451 61.8203 61.4489C62.6688 61.9527 63.63 62.2045 64.7038 62.2045Z" fill="white"/>
<path d="M38.2784 29.2727H42.2784V25.2727H38.2784V29.2727ZM38.2784 70V74H42.2784V70H38.2784ZM27.2216 70H23.2216V74H27.2216V70ZM27.2216 39.4545H31.2216V35.4545H27.2216V39.4545ZM26.983 39.4545V35.4545H25.8779L24.9295 36.0219L26.983 39.4545ZM18.0739 44.7841H14.0739V51.838L20.1274 48.2168L18.0739 44.7841ZM18.0739 35.3977L15.9881 31.9846L14.0739 33.1544V35.3977H18.0739ZM28.0966 29.2727V25.2727H26.9711L26.0108 25.8596L28.0966 29.2727ZM34.2784 29.2727V70H42.2784V29.2727H34.2784ZM38.2784 66H27.2216V74H38.2784V66ZM31.2216 70V39.4545H23.2216V70H31.2216ZM27.2216 35.4545H26.983V43.4545H27.2216V35.4545ZM24.9295 36.0219L16.0204 41.3514L20.1274 48.2168L29.0364 42.8872L24.9295 36.0219ZM22.0739 44.7841V35.3977H14.0739V44.7841H22.0739ZM20.1597 38.8109L30.1824 32.6859L26.0108 25.8596L15.9881 31.9846L20.1597 38.8109ZM28.0966 33.2727H38.2784V25.2727H28.0966V33.2727ZM58.022 69.4432L56.6796 73.2112L56.6938 73.2162L56.7079 73.2212L58.022 69.4432ZM52.3743 65.8835L55.1796 63.0322L55.1796 63.0322L52.3743 65.8835ZM48.4964 59.5597L44.7295 60.905L44.7325 60.9135L44.7356 60.922L48.4964 59.5597ZM47.1243 50.1136L43.1243 50.0976L43.1243 50.0993L47.1243 50.1136ZM48.397 41.2045L44.5891 39.9799L44.5863 39.9886L44.5835 39.9973L48.397 41.2045ZM51.9964 34.4631L48.9379 31.8852L48.9325 31.8916L48.9271 31.898L51.9964 34.4631ZM57.6044 30.2074L59.2495 33.8534L59.2588 33.8492L59.2679 33.845L57.6044 30.2074ZM72.7777 30.446L70.9722 34.0154L72.7777 30.446ZM78.2265 35.0795L74.9475 37.3704L74.9565 37.3832L74.9655 37.396L78.2265 35.0795ZM80.6129 41.4432V45.4432H85.0203L84.5942 41.0564L80.6129 41.4432ZM69.7152 41.4432L65.8073 42.2966L66.4945 45.4432H69.7152V41.4432ZM67.9652 38.9176L65.8998 42.3431L65.9293 42.3609L65.9591 42.3782L67.9652 38.9176ZM59.7521 41.125L56.2317 39.2258L56.2269 39.2348L56.2221 39.2439L59.7521 41.125ZM58.1015 49.0795L54.1017 49.0473L54.0692 53.0795H58.1015V49.0795ZM58.3402 49.0795V53.0795H61.0112L62.0348 50.6124L58.3402 49.0795ZM60.6868 45.8778L63.274 48.9285L63.274 48.9285L60.6868 45.8778ZM64.3459 43.8295L65.6432 47.6133L65.6432 47.6133L64.3459 43.8295ZM75.2237 44.7841L73.1549 48.2075L73.1657 48.2141L75.2237 44.7841ZM81.0902 56L77.0902 55.9787L77.0901 55.9985L77.0902 56.0182L81.0902 56ZM79.022 63.6562L75.6474 61.5087L75.6427 61.516L75.6381 61.5234L79.022 63.6562ZM73.2748 68.7472L71.5093 65.1579L71.5093 65.1579L73.2748 68.7472ZM67.6271 61.4489L65.6083 57.9957L65.5966 58.0025L65.585 58.0094L67.6271 61.4489ZM69.6356 59.3807L66.1465 57.4247L66.1352 57.4449L66.1241 57.4653L69.6356 59.3807ZM70.3515 56.3977L66.3518 56.3507L66.3513 56.398L66.3518 56.4453L70.3515 56.3977ZM69.6356 53.4148L66.1241 55.3302L66.1414 55.362L66.1594 55.3936L69.6356 53.4148ZM67.6271 51.3466L65.585 54.786L65.5966 54.7929L65.6083 54.7998L67.6271 51.3466ZM62.4567 51.0284L63.9797 54.7271L63.9975 54.7198L64.0152 54.7123L62.4567 51.0284ZM60.6868 52.2415L63.5517 55.0329L63.5693 55.0148L63.5868 54.9965L60.6868 52.2415ZM59.4936 54.0909L55.7892 52.5817L55.782 52.5996L55.7749 52.6175L59.4936 54.0909ZM59.0561 56.3977L55.0566 56.3342L55.0557 56.3898L55.0564 56.4453L59.0561 56.3977ZM59.8118 59.3807L56.3226 61.3367L56.3227 61.3367L59.8118 59.3807ZM61.8203 61.4489L63.8625 58.0094L63.8625 58.0094L61.8203 61.4489ZM64.7834 66.5568C62.835 66.5568 61.0272 66.2534 59.3361 65.6652L56.7079 73.2212C59.2858 74.1178 61.9855 74.5568 64.7834 74.5568V66.5568ZM59.3644 65.6751C57.8052 65.1197 56.4188 64.2514 55.1796 63.0322L49.5689 68.7349C51.6177 70.7505 53.9964 72.2553 56.6796 73.2112L59.3644 65.6751ZM55.1796 63.0322C54.0375 61.9085 53.035 60.3443 52.2573 58.1973L44.7356 60.922C45.8404 63.972 47.4232 66.6237 49.5689 68.7349L55.1796 63.0322ZM52.2634 58.2143C51.5342 56.1725 51.1121 53.5114 51.1242 50.128L43.1243 50.0993C43.1099 54.1136 43.6026 57.7498 44.7295 60.905L52.2634 58.2143ZM51.1242 50.1297C51.1362 47.1572 51.5181 44.5988 52.2105 42.4118L44.5835 39.9973C43.6054 43.0868 43.1389 46.4678 43.1243 50.0976L51.1242 50.1297ZM52.2049 42.4292C52.9185 40.2103 53.8893 38.4358 55.0657 37.0281L48.9271 31.898C47.0013 34.2025 45.5724 36.9222 44.5891 39.9799L52.2049 42.4292ZM55.0549 37.041C56.241 35.6338 57.6302 34.5841 59.2495 33.8534L55.9592 26.5614C53.2301 27.7928 50.8806 29.5802 48.9379 31.8852L55.0549 37.041ZM59.2679 33.845C60.8631 33.1156 62.7061 32.7159 64.8629 32.7159V24.7159C61.6902 24.7159 58.6942 25.3106 55.9408 26.5697L59.2679 33.845ZM64.8629 32.7159C67.3398 32.7159 69.3406 33.1901 70.9722 34.0154L74.5831 26.8767C71.6541 25.3951 68.3784 24.7159 64.8629 24.7159V32.7159ZM70.9722 34.0154C72.7131 34.8959 74.0041 36.0199 74.9475 37.3704L81.5056 32.7887C79.7445 30.2679 77.4029 28.3029 74.5831 26.8767L70.9722 34.0154ZM74.9655 37.396C75.9316 38.7559 76.4746 40.2133 76.6317 41.8299L84.5942 41.0564C84.3005 38.0329 83.2526 35.2479 81.4875 32.7631L74.9655 37.396ZM80.6129 37.4432H69.7152V45.4432H80.6129V37.4432ZM73.6231 40.5897C73.1625 38.4808 71.977 36.6198 69.9713 35.4571L65.9591 42.3782C65.9483 42.372 65.9214 42.3546 65.8874 42.3235C65.8531 42.292 65.8234 42.2574 65.8009 42.2249C65.7789 42.1931 65.7719 42.1753 65.7744 42.1811C65.7772 42.188 65.7913 42.2235 65.8073 42.2966L73.6231 40.5897ZM70.0306 35.4921C68.4397 34.5329 66.6764 34.1023 64.8629 34.1023V42.1023C65.3828 42.1023 65.6876 42.2152 65.8998 42.3431L70.0306 35.4921ZM64.8629 34.1023C63.1111 34.1023 61.3764 34.488 59.8089 35.415C58.2385 36.3438 57.0655 37.6803 56.2317 39.2258L63.2725 43.0242C63.5259 42.5545 63.7482 42.3797 63.8814 42.3009C64.0175 42.2204 64.2946 42.1023 64.8629 42.1023V34.1023ZM56.2221 39.2439C54.7408 42.0234 54.1313 45.379 54.1017 49.0473L62.1014 49.1118C62.1249 46.2043 62.6157 44.2569 63.2822 43.0061L56.2221 39.2439ZM58.1015 53.0795H58.3402V45.0795H58.1015V53.0795ZM62.0348 50.6124C62.304 49.9636 62.7021 49.4135 63.274 48.9285L58.0995 42.8272C56.5768 44.1187 55.4105 45.703 54.6456 47.5467L62.0348 50.6124ZM63.274 48.9285C63.9143 48.3854 64.689 47.9405 65.6432 47.6133L63.0486 40.0458C61.2186 40.6732 59.5539 41.5938 58.0995 42.8272L63.274 48.9285ZM65.6432 47.6133C66.5955 47.2868 67.6269 47.1136 68.7606 47.1136V39.1136C66.7921 39.1136 64.8803 39.4177 63.0486 40.0458L65.6432 47.6133ZM68.7606 47.1136C70.6053 47.1136 72.0226 47.5233 73.1549 48.2075L77.2925 41.3607C74.7392 39.8176 71.8478 39.1136 68.7606 39.1136V47.1136ZM73.1657 48.2141C74.3919 48.9498 75.333 49.9365 76.0309 51.2428L83.087 47.4731C81.7167 44.9082 79.7676 42.8457 77.2817 41.3541L73.1657 48.2141ZM76.0309 51.2428C76.7113 52.5165 77.1004 54.0597 77.0902 55.9787L85.0901 56.0213C85.1064 52.9555 84.4747 50.0706 83.087 47.4731L76.0309 51.2428ZM77.0902 56.0182C77.1004 58.2667 76.5777 60.0468 75.6474 61.5087L82.3966 65.8038C84.2504 62.8907 85.1064 59.5666 85.0901 55.9818L77.0902 56.0182ZM75.6381 61.5234C74.6766 63.0488 73.3378 64.2585 71.5093 65.1579L75.0404 72.3364C78.1172 70.823 80.6098 68.6387 82.4059 65.7891L75.6381 61.5234ZM71.5093 65.1579C69.6937 66.051 67.4854 66.5568 64.7834 66.5568V74.5568C68.498 74.5568 71.9507 73.8562 75.0404 72.3364L71.5093 65.1579ZM64.7038 66.2045C66.438 66.2045 68.1337 65.8 69.6693 64.8883L65.585 58.0094C65.4236 58.1053 65.1704 58.2045 64.7038 58.2045V66.2045ZM69.6459 64.9021C71.1349 64.0316 72.3209 62.8109 73.1472 61.2961L66.1241 57.4653C65.9958 57.7004 65.8429 57.8586 65.6083 57.9957L69.6459 64.9021ZM73.1248 61.3367C73.9949 59.7846 74.3719 58.0857 74.3513 56.3501L66.3518 56.4453C66.3577 56.9371 66.2574 57.2268 66.1465 57.4247L73.1248 61.3367ZM74.3513 56.4448C74.3717 54.7069 73.9994 52.9951 73.1119 51.436L66.1594 55.3936C66.2529 55.5579 66.3579 55.8348 66.3518 56.3507L74.3513 56.4448ZM73.1472 51.4994C72.3209 49.9845 71.1349 48.7639 69.6459 47.8934L65.6083 54.7998C65.8429 54.9369 65.9958 55.095 66.1241 55.3302L73.1472 51.4994ZM69.6693 47.9072C68.1337 46.9954 66.438 46.5909 64.7038 46.5909V54.5909C65.1704 54.5909 65.4236 54.6902 65.585 54.786L69.6693 47.9072ZM64.7038 46.5909C63.4031 46.5909 62.1191 46.828 60.8981 47.3445L64.0152 54.7123C64.173 54.6455 64.3871 54.5909 64.7038 54.5909V46.5909ZM60.9337 47.3297C59.7371 47.8224 58.678 48.5484 57.7868 49.4865L63.5868 54.9965C63.7032 54.8739 63.824 54.7912 63.9797 54.7271L60.9337 47.3297ZM57.8219 49.45C56.9333 50.3619 56.2615 51.4225 55.7892 52.5817L63.198 55.6001C63.309 55.3275 63.4326 55.1551 63.5517 55.0329L57.8219 49.45ZM55.7749 52.6175C55.3007 53.8142 55.0767 55.0667 55.0566 56.3342L63.0556 56.4612C63.062 56.0583 63.1297 55.773 63.2123 55.5644L55.7749 52.6175ZM55.0564 56.4453C55.0767 58.1526 55.4701 59.816 56.3226 61.3367L63.3009 57.4247C63.1723 57.1953 63.062 56.8701 63.0558 56.3501L55.0564 56.4453ZM56.3227 61.3367C57.1509 62.814 58.315 64.0195 59.7781 64.8883L63.8625 58.0094C63.6286 57.8706 63.4538 57.6973 63.3009 57.4247L56.3227 61.3367ZM59.7781 64.8883C61.2986 65.7911 62.9767 66.2045 64.7038 66.2045V58.2045C64.2832 58.2045 64.0389 58.1142 63.8625 58.0094L59.7781 64.8883Z" fill="#E50012" mask="url(#path-3-outside-1_26_126)"/>
</svg>
