<svg width="99" height="99" viewBox="0 0 99 99" fill="none" xmlns="http://www.w3.org/2000/svg">
<circle cx="49.5" cy="49.5" r="45.5" fill="white" stroke="#E50012" stroke-width="8"/>
<path d="M91 49.5C91 54.9499 89.9266 60.3464 87.841 65.3814C85.7554 70.4164 82.6986 74.9913 78.8449 78.8449C74.9913 82.6986 70.4164 85.7554 65.3814 87.841C60.3463 89.9266 54.9499 91 49.5 91C44.0501 91 38.6536 89.9266 33.6186 87.841C28.5836 85.7554 24.0087 82.6986 20.1551 78.8449C16.3014 74.9913 13.2446 70.4164 11.159 65.3814C9.07343 60.3463 8 54.9499 8 49.5L49.5 49.5H91Z" fill="#FF0707"/>
<mask id="path-3-outside-1_26_134" maskUnits="userSpaceOnUse" x="13" y="24" width="73" height="51" fill="black">
<rect fill="white" x="13" y="24" width="73" height="51"/>
<path d="M38.1144 29.2727V70H27.0575V39.4545H26.8189L17.9098 44.7841V35.3977L27.9325 29.2727H38.1144ZM64.2216 70.5568C60.9337 70.5568 57.9971 70.0464 55.4119 69.0256C52.8399 68.0047 50.8115 66.6193 49.3267 64.8693C47.8551 63.1193 47.1193 61.1439 47.1193 58.9432C47.1193 57.2595 47.5369 55.7216 48.3721 54.3295C49.2206 52.9375 50.3608 51.7841 51.7926 50.8693C53.2244 49.9413 54.822 49.3447 56.5852 49.0795V48.7614C54.2651 48.3636 52.356 47.3362 50.8579 45.679C49.3731 44.0085 48.6307 42.0398 48.6307 39.7727C48.6307 37.6383 49.3068 35.7424 50.6591 34.0852C52.0113 32.4148 53.8608 31.1023 56.2074 30.1477C58.554 29.1932 61.2254 28.7159 64.2216 28.7159C67.2178 28.7159 69.8892 29.1998 72.2358 30.1676C74.5824 31.1222 76.4318 32.4347 77.7841 34.1051C79.1363 35.7623 79.8125 37.6515 79.8125 39.7727C79.8125 42.053 79.0568 44.0218 77.5454 45.679C76.0341 47.3362 74.1382 48.3636 71.8579 48.7614V49.0795C73.6079 49.3447 75.1988 49.9413 76.6307 50.8693C78.0625 51.7841 79.2026 52.9375 80.0511 54.3295C80.8996 55.7216 81.3238 57.2595 81.3238 58.9432C81.3238 61.1439 80.5814 63.1193 79.0966 64.8693C77.625 66.6193 75.5966 68.0047 73.0113 69.0256C70.4394 70.0464 67.5095 70.5568 64.2216 70.5568ZM64.2216 62.9205C65.2689 62.9205 66.197 62.7083 67.0057 62.2841C67.8144 61.8598 68.4507 61.2765 68.9148 60.5341C69.392 59.7784 69.6307 58.9299 69.6307 57.9886C69.6307 57.0473 69.392 56.2121 68.9148 55.483C68.4507 54.7538 67.8144 54.1837 67.0057 53.7727C66.197 53.3485 65.2689 53.1364 64.2216 53.1364C63.1875 53.1364 62.2595 53.3485 61.4375 53.7727C60.6288 54.1837 59.9858 54.7538 59.5085 55.483C59.0445 56.2121 58.8125 57.0473 58.8125 57.9886C58.8125 58.9299 59.0445 59.7718 59.5085 60.5142C59.9858 61.2566 60.6288 61.8466 61.4375 62.2841C62.2595 62.7083 63.1875 62.9205 64.2216 62.9205ZM64.2216 45.5C65.1496 45.5 65.9716 45.3078 66.6875 44.9233C67.4034 44.5388 67.9668 44.0085 68.3778 43.3324C68.7888 42.6562 68.9943 41.8939 68.9943 41.0455C68.9943 40.197 68.7888 39.4479 68.3778 38.7983C67.9668 38.1354 67.4034 37.6184 66.6875 37.2472C65.9716 36.8627 65.1496 36.6705 64.2216 36.6705C63.3068 36.6705 62.4848 36.8627 61.7557 37.2472C61.0398 37.6184 60.4763 38.1354 60.0653 38.7983C59.6543 39.4479 59.4488 40.197 59.4488 41.0455C59.4488 41.8939 59.6543 42.6562 60.0653 43.3324C60.4763 43.9953 61.0398 44.5256 61.7557 44.9233C62.4848 45.3078 63.3068 45.5 64.2216 45.5Z"/>
</mask>
<path d="M38.1144 29.2727V70H27.0575V39.4545H26.8189L17.9098 44.7841V35.3977L27.9325 29.2727H38.1144ZM64.2216 70.5568C60.9337 70.5568 57.9971 70.0464 55.4119 69.0256C52.8399 68.0047 50.8115 66.6193 49.3267 64.8693C47.8551 63.1193 47.1193 61.1439 47.1193 58.9432C47.1193 57.2595 47.5369 55.7216 48.3721 54.3295C49.2206 52.9375 50.3608 51.7841 51.7926 50.8693C53.2244 49.9413 54.822 49.3447 56.5852 49.0795V48.7614C54.2651 48.3636 52.356 47.3362 50.8579 45.679C49.3731 44.0085 48.6307 42.0398 48.6307 39.7727C48.6307 37.6383 49.3068 35.7424 50.6591 34.0852C52.0113 32.4148 53.8608 31.1023 56.2074 30.1477C58.554 29.1932 61.2254 28.7159 64.2216 28.7159C67.2178 28.7159 69.8892 29.1998 72.2358 30.1676C74.5824 31.1222 76.4318 32.4347 77.7841 34.1051C79.1363 35.7623 79.8125 37.6515 79.8125 39.7727C79.8125 42.053 79.0568 44.0218 77.5454 45.679C76.0341 47.3362 74.1382 48.3636 71.8579 48.7614V49.0795C73.6079 49.3447 75.1988 49.9413 76.6307 50.8693C78.0625 51.7841 79.2026 52.9375 80.0511 54.3295C80.8996 55.7216 81.3238 57.2595 81.3238 58.9432C81.3238 61.1439 80.5814 63.1193 79.0966 64.8693C77.625 66.6193 75.5966 68.0047 73.0113 69.0256C70.4394 70.0464 67.5095 70.5568 64.2216 70.5568ZM64.2216 62.9205C65.2689 62.9205 66.197 62.7083 67.0057 62.2841C67.8144 61.8598 68.4507 61.2765 68.9148 60.5341C69.392 59.7784 69.6307 58.9299 69.6307 57.9886C69.6307 57.0473 69.392 56.2121 68.9148 55.483C68.4507 54.7538 67.8144 54.1837 67.0057 53.7727C66.197 53.3485 65.2689 53.1364 64.2216 53.1364C63.1875 53.1364 62.2595 53.3485 61.4375 53.7727C60.6288 54.1837 59.9858 54.7538 59.5085 55.483C59.0445 56.2121 58.8125 57.0473 58.8125 57.9886C58.8125 58.9299 59.0445 59.7718 59.5085 60.5142C59.9858 61.2566 60.6288 61.8466 61.4375 62.2841C62.2595 62.7083 63.1875 62.9205 64.2216 62.9205ZM64.2216 45.5C65.1496 45.5 65.9716 45.3078 66.6875 44.9233C67.4034 44.5388 67.9668 44.0085 68.3778 43.3324C68.7888 42.6562 68.9943 41.8939 68.9943 41.0455C68.9943 40.197 68.7888 39.4479 68.3778 38.7983C67.9668 38.1354 67.4034 37.6184 66.6875 37.2472C65.9716 36.8627 65.1496 36.6705 64.2216 36.6705C63.3068 36.6705 62.4848 36.8627 61.7557 37.2472C61.0398 37.6184 60.4763 38.1354 60.0653 38.7983C59.6543 39.4479 59.4488 40.197 59.4488 41.0455C59.4488 41.8939 59.6543 42.6562 60.0653 43.3324C60.4763 43.9953 61.0398 44.5256 61.7557 44.9233C62.4848 45.3078 63.3068 45.5 64.2216 45.5Z" fill="white"/>
<path d="M38.1144 29.2727H42.1144V25.2727H38.1144V29.2727ZM38.1144 70V74H42.1144V70H38.1144ZM27.0575 70H23.0575V74H27.0575V70ZM27.0575 39.4545H31.0575V35.4545H27.0575V39.4545ZM26.8189 39.4545V35.4545H25.7138L24.7654 36.0219L26.8189 39.4545ZM17.9098 44.7841H13.9098V51.838L19.9633 48.2168L17.9098 44.7841ZM17.9098 35.3977L15.824 31.9846L13.9098 33.1544V35.3977H17.9098ZM27.9325 29.2727V25.2727H26.8071L25.8467 25.8596L27.9325 29.2727ZM34.1144 29.2727V70H42.1144V29.2727H34.1144ZM38.1144 66H27.0575V74H38.1144V66ZM31.0575 70V39.4545H23.0575V70H31.0575ZM27.0575 35.4545H26.8189V43.4545H27.0575V35.4545ZM24.7654 36.0219L15.8563 41.3514L19.9633 48.2168L28.8724 42.8872L24.7654 36.0219ZM21.9098 44.7841V35.3977H13.9098V44.7841H21.9098ZM19.9956 38.8109L30.0183 32.6859L25.8467 25.8596L15.824 31.9846L19.9956 38.8109ZM27.9325 33.2727H38.1144V25.2727H27.9325V33.2727ZM55.4119 69.0256L53.9363 72.7434L53.9428 72.746L55.4119 69.0256ZM49.3267 64.8693L46.2652 67.4437L46.2709 67.4505L46.2767 67.4572L49.3267 64.8693ZM48.3721 54.3295L44.9566 52.2477L44.9493 52.2596L44.9422 52.2716L48.3721 54.3295ZM51.7926 50.8693L53.9462 54.2401L53.9572 54.2331L53.9682 54.2259L51.7926 50.8693ZM56.5852 49.0795L57.18 53.0351L60.5852 52.523V49.0795H56.5852ZM56.5852 48.7614H60.5852V45.3887L57.2611 44.8189L56.5852 48.7614ZM50.8579 45.679L47.8683 48.3364L47.8794 48.349L47.8907 48.3614L50.8579 45.679ZM50.6591 34.0852L53.7582 36.6141L53.7631 36.6081L53.7681 36.602L50.6591 34.0852ZM56.2074 30.1477L57.7146 33.8529L57.7146 33.8529L56.2074 30.1477ZM72.2358 30.1676L70.7107 33.8655L70.7196 33.8691L70.7286 33.8728L72.2358 30.1676ZM77.7841 34.1051L74.6751 36.6219L74.68 36.628L74.6849 36.634L77.7841 34.1051ZM77.5454 45.679L80.5009 48.3744L80.5009 48.3744L77.5454 45.679ZM71.8579 48.7614L71.1706 44.8209L67.8579 45.3986V48.7614H71.8579ZM71.8579 49.0795H67.8579V52.5191L71.2587 53.0344L71.8579 49.0795ZM76.6307 50.8693L74.4551 54.2259L74.4661 54.2331L74.4771 54.2401L76.6307 50.8693ZM80.0511 54.3295L83.4667 52.2477L83.4667 52.2477L80.0511 54.3295ZM79.0966 64.8693L76.0465 62.2814L76.0408 62.2882L76.0351 62.2949L79.0966 64.8693ZM73.0113 69.0256L71.5422 65.3051L71.5357 65.3077L73.0113 69.0256ZM67.0057 62.2841L65.1475 58.7419L67.0057 62.2841ZM68.9148 60.5341L65.5328 58.3981L65.5278 58.4061L65.5228 58.4141L68.9148 60.5341ZM68.9148 55.483L65.5401 57.6305L65.5539 57.6521L65.568 57.6736L68.9148 55.483ZM67.0057 53.7727L65.1475 57.3149L65.1704 57.3269L65.1935 57.3387L67.0057 53.7727ZM61.4375 53.7727L63.2497 57.3387L63.2609 57.333L63.2721 57.3272L61.4375 53.7727ZM59.5085 55.483L56.1617 53.2923L56.1476 53.3138L56.1339 53.3355L59.5085 55.483ZM59.5085 60.5142L56.1165 62.6342L56.13 62.6558L56.1438 62.6772L59.5085 60.5142ZM61.4375 62.2841L59.5342 65.8023L59.5684 65.8208L59.6029 65.8386L61.4375 62.2841ZM66.6875 44.9233L64.795 41.3993L64.795 41.3993L66.6875 44.9233ZM68.3778 43.3324L64.9597 41.2547L64.9597 41.2547L68.3778 43.3324ZM68.3778 38.7983L64.9782 40.9061L64.9878 40.9215L64.9975 40.9369L68.3778 38.7983ZM66.6875 37.2472L64.795 40.7711L64.8205 40.7848L64.8462 40.7982L66.6875 37.2472ZM61.7557 37.2472L63.5969 40.7982L63.6091 40.7918L63.6213 40.7854L61.7557 37.2472ZM60.0653 38.7983L63.4456 40.9369L63.4554 40.9215L63.4649 40.9061L60.0653 38.7983ZM60.0653 43.3324L56.6472 45.41L56.6564 45.4251L56.6657 45.4401L60.0653 43.3324ZM61.7557 44.9233L59.8131 48.4199L59.8513 48.4412L59.89 48.4616L61.7557 44.9233ZM64.2216 66.5568C61.3464 66.5568 58.9213 66.1108 56.881 65.3051L53.9428 72.746C57.0729 73.982 60.521 74.5568 64.2216 74.5568V66.5568ZM56.8876 65.3077C54.8006 64.4794 53.3584 63.4384 52.3767 62.2814L46.2767 67.4572C48.2647 69.8003 50.8793 71.5301 53.9363 72.7434L56.8876 65.3077ZM52.3881 62.2949C51.497 61.2352 51.1193 60.1629 51.1193 58.9432H43.1193C43.1193 62.125 44.2132 65.0034 46.2652 67.4437L52.3881 62.2949ZM51.1193 58.9432C51.1193 57.9562 51.3541 57.1342 51.8021 56.3875L44.9422 52.2716C43.7197 54.309 43.1193 56.5627 43.1193 58.9432H51.1193ZM51.7877 56.4114C52.3056 55.5616 53.0053 54.8412 53.9462 54.2401L49.639 47.4985C47.7162 48.727 46.1356 50.3134 44.9566 52.2477L51.7877 56.4114ZM53.9682 54.2259C54.9002 53.6218 55.9544 53.2194 57.18 53.0351L55.9904 45.124C53.6895 45.47 51.5486 46.2607 49.617 47.5127L53.9682 54.2259ZM60.5852 49.0795V48.7614H52.5852V49.0795H60.5852ZM57.2611 44.8189C55.7734 44.5639 54.6885 43.9515 53.8252 42.9966L47.8907 48.3614C50.0236 50.7208 52.7568 52.1634 55.9094 52.7039L57.2611 44.8189ZM53.8476 43.0215C53.0238 42.0948 52.6307 41.0756 52.6307 39.7727H44.6307C44.6307 43.0039 45.7224 45.9223 47.8683 48.3364L53.8476 43.0215ZM52.6307 39.7727C52.6307 38.5619 52.9873 37.5589 53.7582 36.6141L47.5599 31.5563C45.6263 33.9259 44.6307 36.7146 44.6307 39.7727H52.6307ZM53.7681 36.602C54.6251 35.5433 55.8816 34.5985 57.7146 33.8529L54.7002 26.4425C51.84 27.606 49.3975 29.2863 47.5501 31.5684L53.7681 36.602ZM57.7146 33.8529C59.5035 33.1252 61.6494 32.7159 64.2216 32.7159V24.7159C60.8013 24.7159 57.6044 25.2612 54.7002 26.4425L57.7146 33.8529ZM64.2216 32.7159C66.7873 32.7159 68.9268 33.1297 70.7107 33.8655L73.7609 26.4698C70.8516 25.2699 67.6482 24.7159 64.2216 24.7159V32.7159ZM70.7286 33.8728C72.5616 34.6184 73.818 35.5631 74.6751 36.6219L80.8931 31.5883C79.0456 29.3062 76.6031 27.6259 73.743 26.4624L70.7286 33.8728ZM74.6849 36.634C75.4599 37.5837 75.8125 38.5814 75.8125 39.7727H83.8125C83.8125 36.7216 82.8128 33.9409 80.8832 31.5762L74.6849 36.634ZM75.8125 39.7727C75.8125 41.0742 75.417 42.0767 74.59 42.9836L80.5009 48.3744C82.6966 45.9668 83.8125 43.0319 83.8125 39.7727H75.8125ZM74.59 42.9836C73.6961 43.9637 72.608 44.5702 71.1706 44.8209L72.5452 52.7019C75.6685 52.1571 78.372 50.7087 80.5009 48.3744L74.59 42.9836ZM67.8579 48.7614V49.0795H75.8579V48.7614H67.8579ZM71.2587 53.0344C72.4682 53.2177 73.5182 53.6187 74.4551 54.2259L78.8062 47.5127C76.8795 46.2639 74.7476 45.4717 72.4572 45.1247L71.2587 53.0344ZM74.4771 54.2401C75.4179 54.8412 76.1176 55.5616 76.6356 56.4114L83.4667 52.2477C82.2876 50.3134 80.7071 48.727 78.7842 47.4985L74.4771 54.2401ZM76.6356 56.4114C77.0889 57.1551 77.3238 57.9686 77.3238 58.9432H85.3238C85.3238 56.5503 84.7103 54.2881 83.4667 52.2477L76.6356 56.4114ZM77.3238 58.9432C77.3238 60.1527 76.9467 61.2205 76.0465 62.2814L82.1466 67.4572C84.2162 65.0181 85.3238 62.1352 85.3238 58.9432H77.3238ZM76.0351 62.2949C75.0738 63.4381 73.6418 64.4761 71.5422 65.3051L74.4804 72.746C77.5513 71.5334 80.1761 69.8006 82.158 67.4437L76.0351 62.2949ZM71.5357 65.3077C69.5128 66.1106 67.0973 66.5568 64.2216 66.5568V74.5568C67.9216 74.5568 71.366 73.9822 74.487 72.7434L71.5357 65.3077ZM64.2216 66.9205C65.8205 66.9205 67.4028 66.5928 68.8639 65.8263L65.1475 58.7419C64.9911 58.8239 64.7173 58.9205 64.2216 58.9205V66.9205ZM68.8639 65.8263C70.2727 65.0872 71.4501 64.0247 72.3068 62.6541L65.5228 58.4141C65.4514 58.5283 65.3561 58.6325 65.1475 58.7419L68.8639 65.8263ZM72.2967 62.6701C73.1997 61.2404 73.6307 59.6439 73.6307 57.9886H65.6307C65.6307 58.216 65.5844 58.3164 65.5328 58.3981L72.2967 62.6701ZM73.6307 57.9886C73.6307 56.3343 73.1993 54.725 72.2616 53.2923L65.568 57.6736C65.5847 57.6992 65.6307 57.7604 65.6307 57.9886H73.6307ZM72.2894 53.3355C71.4215 51.9716 70.232 50.9254 68.8179 50.2068L65.1935 57.3387C65.3968 57.442 65.48 57.5359 65.5401 57.6305L72.2894 53.3355ZM68.8639 50.2305C67.4028 49.4641 65.8205 49.1364 64.2216 49.1364V57.1364C64.7173 57.1364 64.9911 57.2329 65.1475 57.3149L68.8639 50.2305ZM64.2216 49.1364C62.6255 49.1364 61.0562 49.4682 59.6029 50.2182L63.2721 57.3272C63.4627 57.2288 63.7495 57.1364 64.2216 57.1364V49.1364ZM59.6253 50.2068C58.2203 50.9208 57.0376 51.9541 56.1617 53.2923L62.8553 57.6736C62.9339 57.5535 63.0373 57.4466 63.2497 57.3387L59.6253 50.2068ZM56.1339 53.3355C55.2252 54.7634 54.8125 56.3571 54.8125 57.9886H62.8125C62.8125 57.7376 62.8638 57.6609 62.8832 57.6305L56.1339 53.3355ZM54.8125 57.9886C54.8125 59.6209 55.2252 61.2081 56.1165 62.6342L62.9005 58.3942C62.8638 58.3355 62.8125 58.2389 62.8125 57.9886H54.8125ZM56.1438 62.6772C57.0016 64.0116 58.1576 65.0575 59.5342 65.8023L63.3408 58.7659C63.1 58.6357 62.97 58.5017 62.8732 58.3512L56.1438 62.6772ZM59.6029 65.8386C61.0562 66.5887 62.6255 66.9205 64.2216 66.9205V58.9205C63.7495 58.9205 63.4627 58.828 63.2721 58.7296L59.6029 65.8386ZM64.2216 49.5C65.7153 49.5 67.2041 49.1862 68.58 48.4473L64.795 41.3993C64.739 41.4294 64.5839 41.5 64.2216 41.5V49.5ZM68.58 48.4473C69.9065 47.7349 71.0041 46.7127 71.7959 45.41L64.9597 41.2547C64.9296 41.3043 64.9003 41.3428 64.795 41.3993L68.58 48.4473ZM71.7959 45.41C72.6152 44.0623 72.9943 42.5716 72.9943 41.0455H64.9943C64.9943 41.1442 64.9827 41.1951 64.978 41.2125C64.9738 41.228 64.9694 41.2388 64.9597 41.2547L71.7959 45.41ZM72.9943 41.0455C72.9943 39.5211 72.6153 38.0146 71.7581 36.6597L64.9975 40.9369C64.9947 40.9323 64.9908 40.9255 64.9873 40.9174C64.9838 40.9094 64.9825 40.9048 64.9827 40.9055C64.983 40.9065 64.9857 40.9166 64.9885 40.9381C64.9913 40.9598 64.9943 40.9949 64.9943 41.0455H72.9943ZM71.7774 36.6905C70.9733 35.3935 69.8619 34.3874 68.5288 33.6961L64.8462 40.7982C64.9449 40.8493 64.9604 40.8773 64.9782 40.9061L71.7774 36.6905ZM68.58 33.7232C67.2041 32.9843 65.7153 32.6705 64.2216 32.6705V40.6705C64.5839 40.6705 64.739 40.7411 64.795 40.7711L68.58 33.7232ZM64.2216 32.6705C62.7292 32.6705 61.2552 32.989 59.89 33.7089L63.6213 40.7854C63.7144 40.7363 63.8844 40.6705 64.2216 40.6705V32.6705ZM59.9144 33.6961C58.5812 34.3874 57.4699 35.3935 56.6657 36.6905L63.4649 40.9061C63.4827 40.8773 63.4983 40.8493 63.5969 40.7982L59.9144 33.6961ZM56.685 36.6597C55.8278 38.0146 55.4488 39.5211 55.4488 41.0455H63.4488C63.4488 40.9949 63.4519 40.9598 63.4547 40.9381C63.4575 40.9166 63.4602 40.9065 63.4604 40.9055C63.4606 40.9048 63.4594 40.9094 63.4559 40.9174C63.4523 40.9255 63.4485 40.9323 63.4456 40.9369L56.685 36.6597ZM55.4488 41.0455C55.4488 42.5716 55.828 44.0623 56.6472 45.41L63.4834 41.2547C63.4737 41.2388 63.4693 41.228 63.4651 41.2125C63.4604 41.1951 63.4488 41.1442 63.4488 41.0455H55.4488ZM56.6657 45.4401C57.4542 46.712 58.532 47.7082 59.8131 48.4199L63.6982 41.4267C63.5475 41.3429 63.4984 41.2786 63.4649 41.2246L56.6657 45.4401ZM59.89 48.4616C61.2552 49.1814 62.7292 49.5 64.2216 49.5V41.5C63.8844 41.5 63.7144 41.4341 63.6213 41.385L59.89 48.4616Z" fill="#E50012" mask="url(#path-3-outside-1_26_134)"/>
</svg>
