<svg width="99" height="99" viewBox="0 0 99 99" fill="none" xmlns="http://www.w3.org/2000/svg">
<circle cx="49.5" cy="49.5" r="45.5" fill="white" stroke="#E50012" stroke-width="8"/>
<path d="M91 49.5C91 54.9499 89.9266 60.3464 87.841 65.3814C85.7554 70.4164 82.6986 74.9913 78.8449 78.8449C74.9913 82.6986 70.4164 85.7554 65.3814 87.841C60.3463 89.9266 54.9499 91 49.5 91C44.0501 91 38.6536 89.9266 33.6186 87.841C28.5836 85.7554 24.0087 82.6986 20.1551 78.8449C16.3014 74.9913 13.2446 70.4164 11.159 65.3814C9.07343 60.3463 8 54.9499 8 49.5L49.5 49.5H91Z" fill="#FF0707"/>
<mask id="path-3-outside-1_26_101" maskUnits="userSpaceOnUse" x="19" y="25" width="58" height="49" fill="black">
<rect fill="white" x="19" y="25" width="58" height="49"/>
<path d="M43.2823 29.2727V70H32.2255V39.4545H31.9869L23.0778 44.7841V35.3977L33.1005 29.2727H43.2823ZM72.7305 29.2727V70H61.6736V39.4545H61.435L52.5259 44.7841V35.3977L62.5486 29.2727H72.7305Z"/>
</mask>
<path d="M43.2823 29.2727V70H32.2255V39.4545H31.9869L23.0778 44.7841V35.3977L33.1005 29.2727H43.2823ZM72.7305 29.2727V70H61.6736V39.4545H61.435L52.5259 44.7841V35.3977L62.5486 29.2727H72.7305Z" fill="white"/>
<path d="M43.2823 29.2727H47.2823V25.2727H43.2823V29.2727ZM43.2823 70V74H47.2823V70H43.2823ZM32.2255 70H28.2255V74H32.2255V70ZM32.2255 39.4545H36.2255V35.4545H32.2255V39.4545ZM31.9869 39.4545V35.4545H30.8818L29.9334 36.0219L31.9869 39.4545ZM23.0778 44.7841H19.0778V51.838L25.1313 48.2168L23.0778 44.7841ZM23.0778 35.3977L20.992 31.9846L19.0778 33.1544V35.3977H23.0778ZM33.1005 29.2727V25.2727H31.975L31.0147 25.8596L33.1005 29.2727ZM39.2823 29.2727V70H47.2823V29.2727H39.2823ZM43.2823 66H32.2255V74H43.2823V66ZM36.2255 70V39.4545H28.2255V70H36.2255ZM32.2255 35.4545H31.9869V43.4545H32.2255V35.4545ZM29.9334 36.0219L21.0243 41.3514L25.1313 48.2168L34.0403 42.8872L29.9334 36.0219ZM27.0778 44.7841V35.3977H19.0778V44.7841H27.0778ZM25.1636 38.8109L35.1863 32.6859L31.0147 25.8596L20.992 31.9846L25.1636 38.8109ZM33.1005 33.2727H43.2823V25.2727H33.1005V33.2727ZM72.7305 29.2727H76.7305V25.2727H72.7305V29.2727ZM72.7305 70V74H76.7305V70H72.7305ZM61.6736 70H57.6736V74H61.6736V70ZM61.6736 39.4545H65.6736V35.4545H61.6736V39.4545ZM61.435 39.4545V35.4545H60.3299L59.3815 36.0219L61.435 39.4545ZM52.5259 44.7841H48.5259V51.838L54.5794 48.2168L52.5259 44.7841ZM52.5259 35.3977L50.4401 31.9846L48.5259 33.1544V35.3977H52.5259ZM62.5486 29.2727V25.2727H61.4232L60.4628 25.8596L62.5486 29.2727ZM68.7305 29.2727V70H76.7305V29.2727H68.7305ZM72.7305 66H61.6736V74H72.7305V66ZM65.6736 70V39.4545H57.6736V70H65.6736ZM61.6736 35.4545H61.435V43.4545H61.6736V35.4545ZM59.3815 36.0219L50.4724 41.3514L54.5794 48.2168L63.4885 42.8872L59.3815 36.0219ZM56.5259 44.7841V35.3977H48.5259V44.7841H56.5259ZM54.6117 38.8109L64.6344 32.6859L60.4628 25.8596L50.4401 31.9846L54.6117 38.8109ZM62.5486 33.2727H72.7305V25.2727H62.5486V33.2727Z" fill="#E50012" mask="url(#path-3-outside-1_26_101)"/>
</svg>
