<svg width="99" height="99" viewBox="0 0 99 99" fill="none" xmlns="http://www.w3.org/2000/svg">
<circle cx="49.5" cy="49.5" r="45.5" fill="white" stroke="#E50012" stroke-width="8"/>
<path d="M91 49.5C91 54.9499 89.9266 60.3464 87.841 65.3814C85.7554 70.4164 82.6986 74.9913 78.8449 78.8449C74.9913 82.6986 70.4164 85.7554 65.3814 87.841C60.3463 89.9266 54.9499 91 49.5 91C44.0501 91 38.6536 89.9266 33.6186 87.841C28.5836 85.7554 24.0087 82.6986 20.1551 78.8449C16.3014 74.9913 13.2446 70.4164 11.159 65.3814C9.07343 60.3463 8 54.9499 8 49.5L49.5 49.5H91Z" fill="#FF0707"/>
<mask id="path-3-outside-1_26_130" maskUnits="userSpaceOnUse" x="16" y="25" width="68" height="49" fill="black">
<rect fill="white" x="16" y="25" width="68" height="49"/>
<path d="M40.3565 29.2727V70H29.2997V39.4545H29.0611L20.152 44.7841V35.3977L30.1747 29.2727H40.3565ZM51.6683 70L67.6569 38.3409V38.1023H48.8842V29.2727H79.1115V38.1023L63.0433 70H51.6683Z"/>
</mask>
<path d="M40.3565 29.2727V70H29.2997V39.4545H29.0611L20.152 44.7841V35.3977L30.1747 29.2727H40.3565ZM51.6683 70L67.6569 38.3409V38.1023H48.8842V29.2727H79.1115V38.1023L63.0433 70H51.6683Z" fill="white"/>
<path d="M40.3565 29.2727H44.3565V25.2727H40.3565V29.2727ZM40.3565 70V74H44.3565V70H40.3565ZM29.2997 70H25.2997V74H29.2997V70ZM29.2997 39.4545H33.2997V35.4545H29.2997V39.4545ZM29.0611 39.4545V35.4545H27.956L27.0076 36.0219L29.0611 39.4545ZM20.152 44.7841H16.152V51.838L22.2055 48.2168L20.152 44.7841ZM20.152 35.3977L18.0662 31.9846L16.152 33.1544V35.3977H20.152ZM30.1747 29.2727V25.2727H29.0493L28.0889 25.8596L30.1747 29.2727ZM36.3565 29.2727V70H44.3565V29.2727H36.3565ZM40.3565 66H29.2997V74H40.3565V66ZM33.2997 70V39.4545H25.2997V70H33.2997ZM29.2997 35.4545H29.0611V43.4545H29.2997V35.4545ZM27.0076 36.0219L18.0985 41.3514L22.2055 48.2168L31.1146 42.8872L27.0076 36.0219ZM24.152 44.7841V35.3977H16.152V44.7841H24.152ZM22.2378 38.8109L32.2605 32.6859L28.0889 25.8596L18.0662 31.9846L22.2378 38.8109ZM30.1747 33.2727H40.3565V25.2727H30.1747V33.2727ZM51.6683 70L48.0978 68.1968L45.167 74H51.6683V70ZM67.6569 38.3409L71.2275 40.1441L71.6569 39.2937V38.3409H67.6569ZM67.6569 38.1023H71.6569V34.1023H67.6569V38.1023ZM48.8842 38.1023H44.8842V42.1023H48.8842V38.1023ZM48.8842 29.2727V25.2727H44.8842V29.2727H48.8842ZM79.1115 29.2727H83.1115V25.2727H79.1115V29.2727ZM79.1115 38.1023L82.6838 39.9018L83.1115 39.0529V38.1023H79.1115ZM63.0433 70V74H65.5072L66.6157 71.7995L63.0433 70ZM55.2388 71.8032L71.2275 40.1441L64.0864 36.5377L48.0978 68.1968L55.2388 71.8032ZM71.6569 38.3409V38.1023H63.6569V38.3409H71.6569ZM67.6569 34.1023H48.8842V42.1023H67.6569V34.1023ZM52.8842 38.1023V29.2727H44.8842V38.1023H52.8842ZM48.8842 33.2727H79.1115V25.2727H48.8842V33.2727ZM75.1115 29.2727V38.1023H83.1115V29.2727H75.1115ZM75.5391 36.3027L59.471 68.2005L66.6157 71.7995L82.6838 39.9018L75.5391 36.3027ZM63.0433 66H51.6683V74H63.0433V66Z" fill="#E50012" mask="url(#path-3-outside-1_26_130)"/>
</svg>
