<svg width="99" height="99" viewBox="0 0 99 99" fill="none" xmlns="http://www.w3.org/2000/svg">
<circle cx="49.5" cy="49.5" r="45.5" fill="white" stroke="#E50012" stroke-width="8"/>
<path d="M91 49.5C91 54.9499 89.9266 60.3464 87.841 65.3814C85.7554 70.4164 82.6986 74.9913 78.8449 78.8449C74.9913 82.6986 70.4164 85.7554 65.3814 87.841C60.3463 89.9266 54.9499 91 49.5 91C44.0501 91 38.6536 89.9266 33.6186 87.841C28.5836 85.7554 24.0087 82.6986 20.1551 78.8449C16.3014 74.9913 13.2446 70.4164 11.159 65.3814C9.07343 60.3463 8 54.9499 8 49.5L49.5 49.5H91Z" fill="#FF0707"/>
<mask id="path-3-outside-1_26_96" maskUnits="userSpaceOnUse" x="12" y="24" width="75" height="52" fill="black">
<rect fill="white" x="12" y="24" width="75" height="52"/>
<path d="M36.9933 29.2727V70H25.9364V39.4545H25.6978L16.7887 44.7841V35.3977L26.8114 29.2727H36.9933ZM64.2141 71.1136C60.5153 71.1004 57.3202 70.2453 54.6289 68.5483C51.9376 66.8513 49.8628 64.4053 48.4045 61.2102C46.9461 58.0152 46.2236 54.1837 46.2368 49.7159C46.2501 45.2348 46.9793 41.4299 48.4243 38.3011C49.8827 35.1723 51.9509 32.7926 54.6289 31.1619C57.3202 29.5312 60.5153 28.7159 64.2141 28.7159C67.913 28.7159 71.1081 29.5379 73.7993 31.1818C76.4906 32.8125 78.5654 35.1922 80.0238 38.321C81.4821 41.4498 82.2046 45.2481 82.1914 49.7159C82.1914 54.2102 81.4622 58.0549 80.0039 61.25C78.5456 64.4451 76.4707 66.8911 73.7795 68.5881C71.1014 70.2718 67.913 71.1136 64.2141 71.1136ZM64.2141 62.125C66.1232 62.125 67.6876 61.1307 68.9073 59.142C70.1403 57.1402 70.7501 53.9981 70.7368 49.7159C70.7368 46.9186 70.4584 44.6316 69.9016 42.8551C69.3448 41.0786 68.5759 39.7661 67.5948 38.9176C66.6137 38.0559 65.4868 37.625 64.2141 37.625C62.305 37.625 60.7473 38.5928 59.5408 40.5284C58.3344 42.464 57.7179 45.5265 57.6914 49.7159C57.6781 52.5663 57.9499 54.9129 58.5067 56.7557C59.0635 58.5852 59.8325 59.9375 60.8135 60.8125C61.8079 61.6875 62.9414 62.125 64.2141 62.125Z"/>
</mask>
<path d="M36.9933 29.2727V70H25.9364V39.4545H25.6978L16.7887 44.7841V35.3977L26.8114 29.2727H36.9933ZM64.2141 71.1136C60.5153 71.1004 57.3202 70.2453 54.6289 68.5483C51.9376 66.8513 49.8628 64.4053 48.4045 61.2102C46.9461 58.0152 46.2236 54.1837 46.2368 49.7159C46.2501 45.2348 46.9793 41.4299 48.4243 38.3011C49.8827 35.1723 51.9509 32.7926 54.6289 31.1619C57.3202 29.5312 60.5153 28.7159 64.2141 28.7159C67.913 28.7159 71.1081 29.5379 73.7993 31.1818C76.4906 32.8125 78.5654 35.1922 80.0238 38.321C81.4821 41.4498 82.2046 45.2481 82.1914 49.7159C82.1914 54.2102 81.4622 58.0549 80.0039 61.25C78.5456 64.4451 76.4707 66.8911 73.7795 68.5881C71.1014 70.2718 67.913 71.1136 64.2141 71.1136ZM64.2141 62.125C66.1232 62.125 67.6876 61.1307 68.9073 59.142C70.1403 57.1402 70.7501 53.9981 70.7368 49.7159C70.7368 46.9186 70.4584 44.6316 69.9016 42.8551C69.3448 41.0786 68.5759 39.7661 67.5948 38.9176C66.6137 38.0559 65.4868 37.625 64.2141 37.625C62.305 37.625 60.7473 38.5928 59.5408 40.5284C58.3344 42.464 57.7179 45.5265 57.6914 49.7159C57.6781 52.5663 57.9499 54.9129 58.5067 56.7557C59.0635 58.5852 59.8325 59.9375 60.8135 60.8125C61.8079 61.6875 62.9414 62.125 64.2141 62.125Z" fill="white"/>
<path d="M36.9933 29.2727H40.9933V25.2727H36.9933V29.2727ZM36.9933 70V74H40.9933V70H36.9933ZM25.9364 70H21.9364V74H25.9364V70ZM25.9364 39.4545H29.9364V35.4545H25.9364V39.4545ZM25.6978 39.4545V35.4545H24.5927L23.6443 36.0219L25.6978 39.4545ZM16.7887 44.7841H12.7887V51.838L18.8422 48.2168L16.7887 44.7841ZM16.7887 35.3977L14.7029 31.9846L12.7887 33.1544V35.3977H16.7887ZM26.8114 29.2727V25.2727H25.686L24.7256 25.8596L26.8114 29.2727ZM32.9933 29.2727V70H40.9933V29.2727H32.9933ZM36.9933 66H25.9364V74H36.9933V66ZM29.9364 70V39.4545H21.9364V70H29.9364ZM25.9364 35.4545H25.6978V43.4545H25.9364V35.4545ZM23.6443 36.0219L14.7352 41.3514L18.8422 48.2168L27.7513 42.8872L23.6443 36.0219ZM20.7887 44.7841V35.3977H12.7887V44.7841H20.7887ZM18.8745 38.8109L28.8972 32.6859L24.7256 25.8596L14.7029 31.9846L18.8745 38.8109ZM26.8114 33.2727H36.9933V25.2727H26.8114V33.2727ZM64.2141 71.1136L64.1998 75.1136L64.2069 75.1136H64.2141V71.1136ZM54.6289 68.5483L52.4954 71.9318L52.4954 71.9318L54.6289 68.5483ZM48.4045 61.2102L44.7656 62.8711L44.7656 62.8711L48.4045 61.2102ZM46.2368 49.7159L50.2368 49.7278L50.2368 49.7277L46.2368 49.7159ZM48.4243 38.3011L44.7988 36.6113L44.793 36.6239L48.4243 38.3011ZM54.6289 31.1619L52.5561 27.7409L52.5486 27.7455L54.6289 31.1619ZM73.7993 31.1818L71.7142 34.5954L71.7204 34.5991L71.7265 34.6028L73.7993 31.1818ZM80.0238 38.321L83.6493 36.6312L83.6493 36.6312L80.0238 38.321ZM82.1914 49.7159L78.1914 49.704V49.7159H82.1914ZM80.0039 61.25L83.6428 62.9109L83.6428 62.9109L80.0039 61.25ZM73.7795 68.5881L75.9085 71.9744L75.9129 71.9716L73.7795 68.5881ZM68.9073 59.142L65.5014 57.0444L65.4975 57.0507L68.9073 59.142ZM70.7368 49.7159L66.7368 49.7159L66.7369 49.7283L70.7368 49.7159ZM69.9016 42.8551L73.7185 41.6588L73.7185 41.6588L69.9016 42.8551ZM67.5948 38.9176L64.955 41.9229L64.9666 41.933L64.9782 41.9431L67.5948 38.9176ZM59.5408 40.5284L56.1462 38.4126L56.1462 38.4126L59.5408 40.5284ZM57.6914 49.7159L53.6915 49.6906L53.6914 49.6973L57.6914 49.7159ZM58.5067 56.7557L54.6777 57.9127L54.68 57.9203L58.5067 56.7557ZM60.8135 60.8125L58.1511 63.7977L58.161 63.8066L58.171 63.8154L60.8135 60.8125ZM64.2285 67.1137C61.1556 67.1026 58.7216 66.4001 56.7624 65.1648L52.4954 71.9318C55.9187 74.0904 59.8749 75.0981 64.1998 75.1136L64.2285 67.1137ZM56.7624 65.1648C54.7975 63.9259 53.2132 62.1123 52.0433 59.5493L44.7656 62.8711C46.5124 66.6983 49.0777 69.7768 52.4954 71.9318L56.7624 65.1648ZM52.0433 59.5493C50.8805 57.0017 50.2248 53.7702 50.2368 49.7278L42.2369 49.704C42.2223 54.5973 43.0117 59.0286 44.7656 62.8711L52.0433 59.5493ZM50.2368 49.7277C50.2489 45.6563 50.9127 42.4531 52.0557 39.9783L44.793 36.6239C43.0458 40.4068 42.2513 44.8134 42.2369 49.7041L50.2368 49.7277ZM52.0499 39.991C53.2098 37.5024 54.7728 35.7575 56.7092 34.5784L52.5486 27.7455C49.1289 29.8277 46.5556 32.8423 44.7988 36.6113L52.0499 39.991ZM56.7017 34.5829C58.6656 33.393 61.1164 32.7159 64.2141 32.7159V24.7159C59.9141 24.7159 55.9748 25.6695 52.5561 27.7409L56.7017 34.5829ZM64.2141 32.7159C67.3061 32.7159 69.7524 33.397 71.7142 34.5954L75.8845 27.7683C72.4637 25.6788 68.5199 24.7159 64.2141 24.7159V32.7159ZM71.7265 34.6028C73.6748 35.7833 75.2408 37.5276 76.3983 40.0109L83.6493 36.6312C81.8901 32.8569 79.3065 29.8417 75.8722 27.7608L71.7265 34.6028ZM76.3983 40.0109C77.5464 42.4742 78.2034 45.6577 78.1914 49.704L86.1914 49.7278C86.2059 44.8385 85.4178 40.4254 83.6493 36.6312L76.3983 40.0109ZM78.1914 49.7159C78.1914 53.7916 77.5287 57.0397 76.365 59.5891L83.6428 62.9109C85.3958 59.0702 86.1914 54.6289 86.1914 49.7159H78.1914ZM76.365 59.5891C75.1952 62.1521 73.6108 63.9656 71.646 65.2045L75.9129 71.9716C79.3307 69.8166 81.8959 66.7381 83.6428 62.9109L76.365 59.5891ZM71.6504 65.2017C69.7117 66.4207 67.2894 67.1136 64.2141 67.1136V75.1136C68.5366 75.1136 72.4912 74.1229 75.9085 71.9744L71.6504 65.2017ZM64.2141 66.125C67.8386 66.125 70.5573 64.1024 72.3171 61.2334L65.4975 57.0507C64.8179 58.1589 64.4078 58.125 64.2141 58.125V66.125ZM72.3132 61.2397C74.1422 58.2699 74.7508 54.2057 74.7368 49.7035L66.7369 49.7283C66.7494 53.7906 66.1383 56.0104 65.5014 57.0444L72.3132 61.2397ZM74.7368 49.7159C74.7368 46.6952 74.4413 43.9648 73.7185 41.6588L66.0847 44.0515C66.4756 45.2985 66.7368 47.1419 66.7368 49.7159H74.7368ZM73.7185 41.6588C73.031 39.4654 71.9486 37.3946 70.2114 35.8922L64.9782 41.9431C65.2031 42.1376 65.6586 42.6918 66.0847 44.0515L73.7185 41.6588ZM70.2346 35.9123C68.5444 34.4277 66.4857 33.625 64.2141 33.625V41.625C64.488 41.625 64.6831 41.684 64.955 41.9229L70.2346 35.9123ZM64.2141 33.625C60.6374 33.625 57.9174 35.571 56.1462 38.4126L62.9354 42.6442C63.5771 41.6146 63.9726 41.625 64.2141 41.625V33.625ZM56.1462 38.4126C54.3409 41.309 53.7193 45.2902 53.6915 49.6906L61.6913 49.7412C61.7165 45.7628 62.3279 43.619 62.9354 42.6442L56.1462 38.4126ZM53.6914 49.6973C53.6771 52.7738 53.9647 55.5531 54.6777 57.9127L62.3358 55.5987C61.9351 54.2727 61.6791 52.3587 61.6913 49.7345L53.6914 49.6973ZM54.68 57.9203C55.3591 60.1515 56.4276 62.2605 58.1511 63.7977L63.476 57.8273C63.2374 57.6145 62.768 57.0189 62.3334 55.591L54.68 57.9203ZM58.171 63.8154C59.8631 65.3044 61.9262 66.125 64.2141 66.125V58.125C63.9566 58.125 63.7526 58.0706 63.4561 57.8096L58.171 63.8154Z" fill="#E50012" mask="url(#path-3-outside-1_26_96)"/>
</svg>
