<svg width="99" height="99" viewBox="0 0 99 99" fill="none" xmlns="http://www.w3.org/2000/svg">
<circle cx="49.5" cy="49.5" r="45.5" fill="white" stroke="#E50012" stroke-width="8"/>
<path d="M91 49.5C91 54.9499 89.9266 60.3464 87.841 65.3814C85.7554 70.4164 82.6986 74.9913 78.8449 78.8449C74.9913 82.6986 70.4164 85.7554 65.3814 87.841C60.3463 89.9266 54.9499 91 49.5 91C44.0501 91 38.6536 89.9266 33.6186 87.841C28.5836 85.7554 24.0087 82.6986 20.1551 78.8449C16.3014 74.9913 13.2446 70.4164 11.159 65.3814C9.07343 60.3463 8 54.9499 8 49.5L49.5 49.5H91Z" fill="#FF0707"/>
<mask id="path-3-outside-1_26_60" maskUnits="userSpaceOnUse" x="26" y="21" width="46" height="56" fill="black">
<rect fill="white" x="26" y="21" width="46" height="56"/>
<path d="M31.4534 73V63.9091L48.817 49.5455C49.9686 48.5909 50.9534 47.697 51.7716 46.8636C52.6049 46.0152 53.2413 45.1439 53.6807 44.25C54.1352 43.3561 54.3625 42.3636 54.3625 41.2727C54.3625 40.0758 54.1049 39.053 53.5898 38.2045C53.0898 37.3561 52.3928 36.7045 51.4989 36.25C50.6049 35.7803 49.5746 35.5455 48.408 35.5455C47.2413 35.5455 46.211 35.7803 45.317 36.25C44.4383 36.7197 43.7564 37.4091 43.2716 38.3182C42.7867 39.2273 42.5443 40.3333 42.5443 41.6364H30.5443C30.5443 38.3636 31.2792 35.5455 32.7489 33.1818C34.2186 30.8182 36.2943 29 38.9761 27.7273C41.658 26.4545 44.8019 25.8182 48.408 25.8182C52.1352 25.8182 55.3625 26.4167 58.0898 27.6136C60.8322 28.7955 62.9458 30.4621 64.4307 32.6136C65.9307 34.7652 66.6807 37.2879 66.6807 40.1818C66.6807 41.9697 66.3095 43.75 65.567 45.5227C64.8246 47.2803 63.4913 49.2273 61.567 51.3636C59.6428 53.5 56.908 56.0455 53.3625 59L48.9989 62.6364V62.9091H67.1807V73H31.4534Z"/>
</mask>
<path d="M31.4534 73V63.9091L48.817 49.5455C49.9686 48.5909 50.9534 47.697 51.7716 46.8636C52.6049 46.0152 53.2413 45.1439 53.6807 44.25C54.1352 43.3561 54.3625 42.3636 54.3625 41.2727C54.3625 40.0758 54.1049 39.053 53.5898 38.2045C53.0898 37.3561 52.3928 36.7045 51.4989 36.25C50.6049 35.7803 49.5746 35.5455 48.408 35.5455C47.2413 35.5455 46.211 35.7803 45.317 36.25C44.4383 36.7197 43.7564 37.4091 43.2716 38.3182C42.7867 39.2273 42.5443 40.3333 42.5443 41.6364H30.5443C30.5443 38.3636 31.2792 35.5455 32.7489 33.1818C34.2186 30.8182 36.2943 29 38.9761 27.7273C41.658 26.4545 44.8019 25.8182 48.408 25.8182C52.1352 25.8182 55.3625 26.4167 58.0898 27.6136C60.8322 28.7955 62.9458 30.4621 64.4307 32.6136C65.9307 34.7652 66.6807 37.2879 66.6807 40.1818C66.6807 41.9697 66.3095 43.75 65.567 45.5227C64.8246 47.2803 63.4913 49.2273 61.567 51.3636C59.6428 53.5 56.908 56.0455 53.3625 59L48.9989 62.6364V62.9091H67.1807V73H31.4534Z" fill="white"/>
<path d="M31.4534 73H27.4534V77H31.4534V73ZM31.4534 63.9091L28.9038 60.827L27.4534 62.0268V63.9091H31.4534ZM48.817 49.5455L51.3667 52.6276L51.3698 52.625L48.817 49.5455ZM51.7716 46.8636L48.9178 44.0608L48.9173 44.0613L51.7716 46.8636ZM53.6807 44.25L50.1151 42.437L50.1029 42.4612L50.0909 42.4855L53.6807 44.25ZM53.5898 38.2045L50.1436 40.2353L50.157 40.258L50.1706 40.2805L53.5898 38.2045ZM51.4989 36.25L49.6383 39.791L49.662 39.8034L49.6859 39.8155L51.4989 36.25ZM45.317 36.25L43.4565 32.709L43.444 32.7156L43.4315 32.7223L45.317 36.25ZM43.2716 38.3182L39.7422 36.4358L39.7422 36.4358L43.2716 38.3182ZM42.5443 41.6364V45.6364H46.5443V41.6364H42.5443ZM30.5443 41.6364H26.5443V45.6364H30.5443V41.6364ZM32.7489 33.1818L29.352 31.0697L29.352 31.0697L32.7489 33.1818ZM38.9761 27.7273L40.6911 31.341L40.6911 31.341L38.9761 27.7273ZM58.0898 27.6136L56.4822 31.2764L56.4945 31.2818L56.5068 31.2871L58.0898 27.6136ZM64.4307 32.6136L61.1386 34.8857L61.144 34.8935L61.1494 34.9013L64.4307 32.6136ZM65.567 45.5227L69.2518 47.0792L69.2566 47.0679L65.567 45.5227ZM61.567 51.3636L64.5392 54.0407L64.5392 54.0407L61.567 51.3636ZM53.3625 59L55.9232 62.0729L53.3625 59ZM48.9989 62.6364L46.4381 59.5635L44.9989 60.7629V62.6364H48.9989ZM48.9989 62.9091H44.9989V66.9091H48.9989V62.9091ZM67.1807 62.9091H71.1807V58.9091H67.1807V62.9091ZM67.1807 73V77H71.1807V73H67.1807ZM35.4534 73V63.9091H27.4534V73H35.4534ZM34.003 66.9912L51.3667 52.6276L46.2674 46.4633L28.9038 60.827L34.003 66.9912ZM51.3698 52.625C52.5989 51.6061 53.6898 50.6194 54.6258 49.666L48.9173 44.0613C48.217 44.7746 47.3382 45.5757 46.2643 46.4659L51.3698 52.625ZM54.6254 49.6665C55.7016 48.5707 56.6103 47.3576 57.2705 46.0145L50.0909 42.4855C49.8723 42.9303 49.5083 43.4596 48.9178 44.0608L54.6254 49.6665ZM57.2462 46.063C58.0109 44.5591 58.3625 42.9373 58.3625 41.2727H50.3625C50.3625 41.7899 50.2596 42.153 50.1151 42.437L57.2462 46.063ZM58.3625 41.2727C58.3625 39.495 57.9755 37.7207 57.0089 36.1286L50.1706 40.2805C50.2343 40.3854 50.3625 40.6565 50.3625 41.2727H58.3625ZM57.0359 36.1738C56.1415 34.6559 54.8721 33.4778 53.3118 32.6845L49.6859 39.8155C49.9135 39.9313 50.0381 40.0562 50.1436 40.2353L57.0359 36.1738ZM53.3594 32.709C51.8083 31.894 50.1217 31.5455 48.408 31.5455V39.5455C49.0276 39.5455 49.4016 39.6666 49.6383 39.791L53.3594 32.709ZM48.408 31.5455C46.6943 31.5455 45.0076 31.894 43.4565 32.709L47.1776 39.791C47.4144 39.6666 47.7883 39.5455 48.408 39.5455V31.5455ZM43.4315 32.7223C41.8292 33.5787 40.5865 34.8527 39.7422 36.4358L46.801 40.2005C46.9264 39.9654 47.0474 39.8607 47.2026 39.7777L43.4315 32.7223ZM39.7422 36.4358C38.8772 38.0576 38.5443 39.8467 38.5443 41.6364H46.5443C46.5443 40.8199 46.6963 40.3969 46.801 40.2005L39.7422 36.4358ZM42.5443 37.6364H30.5443V45.6364H42.5443V37.6364ZM34.5443 41.6364C34.5443 38.977 35.1351 36.9194 36.1457 35.294L29.352 31.0697C27.4232 34.1715 26.5443 37.7502 26.5443 41.6364H34.5443ZM36.1457 35.294C37.1831 33.6257 38.6541 32.3077 40.6911 31.341L37.2612 24.1136C33.9346 25.6923 31.2541 28.0107 29.352 31.0697L36.1457 35.294ZM40.6911 31.341C42.7344 30.3713 45.27 29.8182 48.408 29.8182V21.8182C44.3338 21.8182 40.5815 22.5378 37.2612 24.1136L40.6911 31.341ZM48.408 29.8182C51.7166 29.8182 54.3721 30.3503 56.4822 31.2764L59.6973 23.9509C56.3529 22.4831 52.5539 21.8182 48.408 21.8182V29.8182ZM56.5068 31.2871C58.6597 32.2149 60.1387 33.4368 61.1386 34.8857L67.7228 30.3416C65.753 27.4874 63.0047 25.3761 59.6728 23.9402L56.5068 31.2871ZM61.1494 34.9013C62.1334 36.3126 62.6807 38.0175 62.6807 40.1818H70.6807C70.6807 36.5582 69.728 33.2177 67.7119 30.326L61.1494 34.9013ZM62.6807 40.1818C62.6807 41.4004 62.4306 42.6571 61.8775 43.9775L69.2566 47.0679C70.1884 44.8429 70.6807 42.539 70.6807 40.1818H62.6807ZM61.8823 43.9662C61.3777 45.1608 60.3564 46.7309 58.5949 48.6866L64.5392 54.0407C66.6261 51.7236 68.2716 49.3998 69.2518 47.0792L61.8823 43.9662ZM58.5949 48.6866C56.8508 50.623 54.277 53.0311 50.8018 55.9271L55.9232 62.0729C59.5389 59.0598 62.4348 56.377 64.5392 54.0407L58.5949 48.6866ZM50.8018 55.9271L46.4381 59.5635L51.5596 65.7092L55.9232 62.0729L50.8018 55.9271ZM44.9989 62.6364V62.9091H52.9989V62.6364H44.9989ZM48.9989 66.9091H67.1807V58.9091H48.9989V66.9091ZM63.1807 62.9091V73H71.1807V62.9091H63.1807ZM67.1807 69H31.4534V77H67.1807V69Z" fill="#E50012" mask="url(#path-3-outside-1_26_60)"/>
</svg>
