<svg width="99" height="99" viewBox="0 0 99 99" fill="none" xmlns="http://www.w3.org/2000/svg">
<circle cx="49.5" cy="49.5" r="45.5" fill="white" stroke="#E50012" stroke-width="8"/>
<path d="M91 49.5C91 54.9499 89.9266 60.3464 87.841 65.3814C85.7554 70.4164 82.6986 74.9913 78.8449 78.8449C74.9913 82.6986 70.4164 85.7554 65.3814 87.841C60.3463 89.9266 54.9499 91 49.5 91C44.0501 91 38.6536 89.9266 33.6186 87.841C28.5836 85.7554 24.0087 82.6986 20.1551 78.8449C16.3014 74.9913 13.2446 70.4164 11.159 65.3814C9.07343 60.3463 8 54.9499 8 49.5L49.5 49.5H91Z" fill="#FF0707"/>
<mask id="path-3-outside-1_26_70" maskUnits="userSpaceOnUse" x="25" y="22" width="49" height="55" fill="black">
<rect fill="white" x="25" y="22" width="49" height="55"/>
<path d="M29.2176 65.7273V55.9091L47.9449 26.4545H56.854V39.5455H51.7631L41.6722 55.5455V55.9091H69.3085V65.7273H29.2176ZM51.854 73V62.7273L52.1267 58.4545V26.4545H63.9449V73H51.854Z"/>
</mask>
<path d="M29.2176 65.7273V55.9091L47.9449 26.4545H56.854V39.5455H51.7631L41.6722 55.5455V55.9091H69.3085V65.7273H29.2176ZM51.854 73V62.7273L52.1267 58.4545V26.4545H63.9449V73H51.854Z" fill="white"/>
<path d="M29.2176 65.7273H25.2176V69.7273H29.2176V65.7273ZM29.2176 55.9091L25.8421 53.7629L25.2176 54.7452V55.9091H29.2176ZM47.9449 26.4545V22.4545H45.7481L44.5694 24.3084L47.9449 26.4545ZM56.854 26.4545H60.854V22.4545H56.854V26.4545ZM56.854 39.5455V43.5455H60.854V39.5455H56.854ZM51.7631 39.5455V35.5455H49.5567L48.3797 37.4117L51.7631 39.5455ZM41.6722 55.5455L38.2888 53.4117L37.6722 54.3894V55.5455H41.6722ZM41.6722 55.9091H37.6722V59.9091H41.6722V55.9091ZM69.3085 55.9091H73.3085V51.9091H69.3085V55.9091ZM69.3085 65.7273V69.7273H73.3085V65.7273H69.3085ZM51.854 73H47.854V77H51.854V73ZM51.854 62.7273L47.8621 62.4725L47.854 62.5997V62.7273H51.854ZM52.1267 58.4545L56.1186 58.7093L56.1267 58.5821V58.4545H52.1267ZM52.1267 26.4545V22.4545H48.1267V26.4545H52.1267ZM63.9449 26.4545H67.9449V22.4545H63.9449V26.4545ZM63.9449 73V77H67.9449V73H63.9449ZM33.2176 65.7273V55.9091H25.2176V65.7273H33.2176ZM32.5931 58.0552L51.3204 28.6007L44.5694 24.3084L25.8421 53.7629L32.5931 58.0552ZM47.9449 30.4545H56.854V22.4545H47.9449V30.4545ZM52.854 26.4545V39.5455H60.854V26.4545H52.854ZM56.854 35.5455H51.7631V43.5455H56.854V35.5455ZM48.3797 37.4117L38.2888 53.4117L45.0555 57.6793L55.1464 41.6793L48.3797 37.4117ZM37.6722 55.5455V55.9091H45.6722V55.5455H37.6722ZM41.6722 59.9091H69.3085V51.9091H41.6722V59.9091ZM65.3085 55.9091V65.7273H73.3085V55.9091H65.3085ZM69.3085 61.7273H29.2176V69.7273H69.3085V61.7273ZM55.854 73V62.7273H47.854V73H55.854ZM55.8459 62.9821L56.1186 58.7093L48.1348 58.1997L47.8621 62.4725L55.8459 62.9821ZM56.1267 58.4545V26.4545H48.1267V58.4545H56.1267ZM52.1267 30.4545H63.9449V22.4545H52.1267V30.4545ZM59.9449 26.4545V73H67.9449V26.4545H59.9449ZM63.9449 69H51.854V77H63.9449V69Z" fill="#E50012" mask="url(#path-3-outside-1_26_70)"/>
</svg>
