<svg width="99" height="99" viewBox="0 0 99 99" fill="none" xmlns="http://www.w3.org/2000/svg">
<circle cx="49.5" cy="49.5" r="45.5" fill="white" stroke="#E50012" stroke-width="8"/>
<path d="M91 49.5C91 54.9499 89.9266 60.3464 87.841 65.3814C85.7554 70.4164 82.6986 74.9913 78.8449 78.8449C74.9913 82.6986 70.4164 85.7554 65.3814 87.841C60.3463 89.9266 54.9499 91 49.5 91C44.0501 91 38.6536 89.9266 33.6186 87.841C28.5836 85.7554 24.0087 82.6986 20.1551 78.8449C16.3014 74.9913 13.2446 70.4164 11.159 65.3814C9.07343 60.3463 8 54.9499 8 49.5L49.5 49.5H91Z" fill="#FF0707"/>
<mask id="path-3-outside-1_26_121" maskUnits="userSpaceOnUse" x="14" y="25" width="71" height="50" fill="black">
<rect fill="white" x="14" y="25" width="71" height="50"/>
<path d="M38.7159 29.2727V70H27.6591V39.4545H27.4205L18.5114 44.7841V35.3977L28.5341 29.2727H38.7159ZM64.505 70.5568C61.3762 70.5568 58.5987 70.0066 56.1726 68.9062C53.7597 67.7926 51.8572 66.2614 50.4652 64.3125C49.0864 62.3636 48.3837 60.1231 48.3572 57.5909H59.0959C59.1356 58.9962 59.6792 60.1165 60.7265 60.9517C61.7872 61.7869 63.0466 62.2045 64.505 62.2045C65.6318 62.2045 66.6262 61.9659 67.4879 61.4886C68.3497 60.9981 69.0258 60.3087 69.5163 59.4205C70.0068 58.5322 70.2455 57.4981 70.2322 56.3182C70.2455 55.125 70.0068 54.0909 69.5163 53.2159C69.0258 52.3277 68.3497 51.6449 67.4879 51.1676C66.6262 50.6771 65.6318 50.4318 64.505 50.4318C63.3383 50.4318 62.2578 50.7169 61.2635 51.2869C60.2824 51.8438 59.5599 52.6193 59.0959 53.6136L49.3913 51.7045L50.9822 29.2727H78.3459V38.1023H60.0504L59.255 47.0909H59.4936C60.13 45.858 61.2303 44.8371 62.7947 44.0284C64.3591 43.2064 66.1754 42.7955 68.2436 42.7955C70.6697 42.7955 72.8307 43.3589 74.7265 44.4858C76.6356 45.6127 78.1404 47.1705 79.2408 49.1591C80.3544 51.1345 80.9046 53.4148 80.8913 56C80.9046 58.8371 80.2284 61.3561 78.8629 63.5568C77.5106 65.7443 75.6082 67.4612 73.1555 68.7074C70.7029 69.9403 67.8193 70.5568 64.505 70.5568Z"/>
</mask>
<path d="M38.7159 29.2727V70H27.6591V39.4545H27.4205L18.5114 44.7841V35.3977L28.5341 29.2727H38.7159ZM64.505 70.5568C61.3762 70.5568 58.5987 70.0066 56.1726 68.9062C53.7597 67.7926 51.8572 66.2614 50.4652 64.3125C49.0864 62.3636 48.3837 60.1231 48.3572 57.5909H59.0959C59.1356 58.9962 59.6792 60.1165 60.7265 60.9517C61.7872 61.7869 63.0466 62.2045 64.505 62.2045C65.6318 62.2045 66.6262 61.9659 67.4879 61.4886C68.3497 60.9981 69.0258 60.3087 69.5163 59.4205C70.0068 58.5322 70.2455 57.4981 70.2322 56.3182C70.2455 55.125 70.0068 54.0909 69.5163 53.2159C69.0258 52.3277 68.3497 51.6449 67.4879 51.1676C66.6262 50.6771 65.6318 50.4318 64.505 50.4318C63.3383 50.4318 62.2578 50.7169 61.2635 51.2869C60.2824 51.8438 59.5599 52.6193 59.0959 53.6136L49.3913 51.7045L50.9822 29.2727H78.3459V38.1023H60.0504L59.255 47.0909H59.4936C60.13 45.858 61.2303 44.8371 62.7947 44.0284C64.3591 43.2064 66.1754 42.7955 68.2436 42.7955C70.6697 42.7955 72.8307 43.3589 74.7265 44.4858C76.6356 45.6127 78.1404 47.1705 79.2408 49.1591C80.3544 51.1345 80.9046 53.4148 80.8913 56C80.9046 58.8371 80.2284 61.3561 78.8629 63.5568C77.5106 65.7443 75.6082 67.4612 73.1555 68.7074C70.7029 69.9403 67.8193 70.5568 64.505 70.5568Z" fill="white"/>
<path d="M38.7159 29.2727H42.7159V25.2727H38.7159V29.2727ZM38.7159 70V74H42.7159V70H38.7159ZM27.6591 70H23.6591V74H27.6591V70ZM27.6591 39.4545H31.6591V35.4545H27.6591V39.4545ZM27.4205 39.4545V35.4545H26.3154L25.367 36.0219L27.4205 39.4545ZM18.5114 44.7841H14.5114V51.838L20.5649 48.2168L18.5114 44.7841ZM18.5114 35.3977L16.4256 31.9846L14.5114 33.1544V35.3977H18.5114ZM28.5341 29.2727V25.2727H27.4086L26.4483 25.8596L28.5341 29.2727ZM34.7159 29.2727V70H42.7159V29.2727H34.7159ZM38.7159 66H27.6591V74H38.7159V66ZM31.6591 70V39.4545H23.6591V70H31.6591ZM27.6591 35.4545H27.4205V43.4545H27.6591V35.4545ZM25.367 36.0219L16.4579 41.3514L20.5649 48.2168L29.4739 42.8872L25.367 36.0219ZM22.5114 44.7841V35.3977H14.5114V44.7841H22.5114ZM20.5972 38.8109L30.6199 32.6859L26.4483 25.8596L16.4256 31.9846L20.5972 38.8109ZM28.5341 33.2727H38.7159V25.2727H28.5341V33.2727ZM56.1726 68.9062L54.4963 72.5381L54.5083 72.5436L54.5204 72.5491L56.1726 68.9062ZM50.4652 64.3125L47.1998 66.6227L47.205 66.6301L47.2102 66.6375L50.4652 64.3125ZM48.3572 57.5909V53.5909H44.3151L44.3574 57.6328L48.3572 57.5909ZM59.0959 57.5909L63.0943 57.4777L62.9843 53.5909H59.0959V57.5909ZM60.7265 60.9517L58.2326 64.079L58.2422 64.0867L58.2518 64.0943L60.7265 60.9517ZM67.4879 61.4886L69.4259 64.9878L69.4464 64.9765L69.4667 64.9649L67.4879 61.4886ZM69.5163 59.4205L66.0148 57.4868L66.0148 57.4868L69.5163 59.4205ZM70.2322 56.3182L66.2325 56.2737L66.232 56.3184L66.2325 56.3631L70.2322 56.3182ZM69.5163 53.2159L66.0148 55.1496L66.0209 55.1608L66.0272 55.1719L69.5163 53.2159ZM67.4879 51.1676L65.5091 54.6439L65.5294 54.6554L65.5499 54.6668L67.4879 51.1676ZM61.2635 51.2869L63.2379 54.7657L63.2455 54.7614L63.253 54.7571L61.2635 51.2869ZM59.0959 53.6136L58.3238 57.5384L61.3963 58.1429L62.7206 55.3052L59.0959 53.6136ZM49.3913 51.7045L45.4013 51.4216L45.1513 54.9471L48.6192 55.6293L49.3913 51.7045ZM50.9822 29.2727V25.2727H47.2559L46.9922 28.9897L50.9822 29.2727ZM78.3459 29.2727H82.3459V25.2727H78.3459V29.2727ZM78.3459 38.1023V42.1023H82.3459V38.1023H78.3459ZM60.0504 38.1023V34.1023H56.3888L56.066 37.7497L60.0504 38.1023ZM59.255 47.0909L55.2705 46.7383L54.8853 51.0909H59.255V47.0909ZM59.4936 47.0909V51.0909H61.9304L63.0481 48.9255L59.4936 47.0909ZM62.7947 44.0284L64.6316 47.5817L64.6434 47.5756L64.6552 47.5694L62.7947 44.0284ZM74.7265 44.4858L72.6827 47.9242L72.6932 47.9305L74.7265 44.4858ZM79.2408 49.1591L75.7408 51.0957L75.7485 51.1096L75.7563 51.1235L79.2408 49.1591ZM80.8913 56L76.8914 55.9795L76.8913 55.9991L76.8914 56.0187L80.8913 56ZM78.8629 63.5568L75.464 61.4479L75.4605 61.4535L78.8629 63.5568ZM73.1555 68.7074L74.9521 72.2812L74.9598 72.2774L74.9675 72.2735L73.1555 68.7074ZM64.505 66.5568C61.8476 66.5568 59.6492 66.0909 57.8248 65.2634L54.5204 72.5491C57.5482 73.9224 60.9047 74.5568 64.505 74.5568V66.5568ZM57.8488 65.2744C55.996 64.4193 54.6653 63.3109 53.7201 61.9875L47.2102 66.6375C49.0491 69.2119 51.5234 71.166 54.4963 72.5381L57.8488 65.2744ZM53.7306 62.0023C52.8508 60.7587 52.3756 59.3202 52.357 57.549L44.3574 57.6328C44.3919 60.926 45.322 63.9686 47.1998 66.6227L53.7306 62.0023ZM48.3572 61.5909H59.0959V53.5909H48.3572V61.5909ZM55.0975 57.7041C55.1687 60.2199 56.2136 62.469 58.2326 64.079L63.2205 57.8244C63.1687 57.783 63.1455 57.7563 63.1383 57.7475C63.1344 57.7426 63.1328 57.7401 63.1326 57.7398C63.1324 57.7396 63.1324 57.7395 63.1321 57.7389C63.1318 57.7384 63.1303 57.7353 63.128 57.7286C63.1256 57.7218 63.1218 57.7098 63.1175 57.6913C63.1091 57.6546 63.0973 57.5862 63.0943 57.4777L55.0975 57.7041ZM58.2518 64.0943C60.0758 65.5307 62.2257 66.2045 64.505 66.2045V58.2045C63.8675 58.2045 63.4985 58.0432 63.2013 57.8092L58.2518 64.0943ZM64.505 66.2045C66.2111 66.2045 67.8903 65.8383 69.4259 64.9878L65.5499 57.9895C65.3621 58.0935 65.0526 58.2045 64.505 58.2045V66.2045ZM69.4667 64.9649C70.9839 64.1013 72.1801 62.8711 73.0179 61.3541L66.0148 57.4868C65.8714 57.7463 65.7154 57.8949 65.5091 58.0124L69.4667 64.9649ZM73.0179 61.3541C73.8937 59.7682 74.2517 58.031 74.232 56.2732L66.2325 56.3631C66.2392 56.9652 66.12 57.2962 66.0148 57.4868L73.0179 61.3541ZM74.232 56.3626C74.2515 54.6026 73.898 52.852 73.0054 51.2599L66.0272 55.1719C66.1157 55.3298 66.2394 55.6474 66.2325 56.2737L74.232 56.3626ZM73.0179 51.2822C72.1752 49.7564 70.9662 48.5215 69.4259 47.6684L65.5499 54.6668C65.7331 54.7682 65.8763 54.8989 66.0148 55.1496L73.0179 51.2822ZM69.4667 47.6914C67.9235 46.8129 66.2295 46.4318 64.505 46.4318V54.4318C65.0342 54.4318 65.3288 54.5413 65.5091 54.6439L69.4667 47.6914ZM64.505 46.4318C62.6533 46.4318 60.8851 46.8931 59.2739 47.8168L63.253 54.7571C63.6305 54.5406 64.0232 54.4318 64.505 54.4318V46.4318ZM59.2891 47.8082C57.6074 48.7627 56.2968 50.1529 55.4711 51.9221L62.7206 55.3052C62.823 55.0857 62.9575 54.9248 63.2379 54.7657L59.2891 47.8082ZM59.868 49.6889L50.1634 47.7798L48.6192 55.6293L58.3238 57.5384L59.868 49.6889ZM53.3813 51.9875L54.9722 29.5557L46.9922 28.9897L45.4013 51.4216L53.3813 51.9875ZM50.9822 33.2727H78.3459V25.2727H50.9822V33.2727ZM74.3459 29.2727V38.1023H82.3459V29.2727H74.3459ZM78.3459 34.1023H60.0504V42.1023H78.3459V34.1023ZM56.066 37.7497L55.2705 46.7383L63.2394 47.4435L64.0348 38.4549L56.066 37.7497ZM59.255 51.0909H59.4936V43.0909H59.255V51.0909ZM63.0481 48.9255C63.2127 48.6065 63.605 48.1124 64.6316 47.5817L60.9579 40.4751C58.8557 41.5618 57.0472 43.1094 55.9391 45.2563L63.0481 48.9255ZM64.6552 47.5694C65.5554 47.0964 66.7131 46.7955 68.2436 46.7955V38.7955C65.6377 38.7955 63.1629 39.3164 60.9342 40.4874L64.6552 47.5694ZM68.2436 46.7955C70.0245 46.7955 71.466 47.201 72.6827 47.9242L76.7704 41.0474C74.1954 39.5168 71.315 38.7955 68.2436 38.7955V46.7955ZM72.6932 47.9305C73.9716 48.685 74.9769 49.7151 75.7408 51.0957L82.7407 47.2225C81.3039 44.6258 79.2997 42.5403 76.7599 41.0411L72.6932 47.9305ZM75.7563 51.1235C76.4831 52.4126 76.9016 53.9906 76.8914 55.9795L84.8913 56.0205C84.9076 52.839 84.2257 49.8564 82.7252 47.1947L75.7563 51.1235ZM76.8914 56.0187C76.9015 58.1785 76.3958 59.9461 75.464 61.4479L82.2618 65.6658C84.061 62.766 84.9077 59.4957 84.8913 55.9813L76.8914 56.0187ZM75.4605 61.4535C74.5212 62.973 73.1894 64.2034 71.3436 65.1413L74.9675 72.2735C78.027 70.7189 80.5 68.5157 82.2653 65.6601L75.4605 61.4535ZM71.3589 65.1335C69.5677 66.034 67.3233 66.5568 64.505 66.5568V74.5568C68.3154 74.5568 71.838 73.8467 74.9521 72.2812L71.3589 65.1335Z" fill="#E50012" mask="url(#path-3-outside-1_26_121)"/>
</svg>
