<svg width="99" height="99" viewBox="0 0 99 99" fill="none" xmlns="http://www.w3.org/2000/svg">
<circle cx="49.5" cy="49.5" r="45.5" fill="white" stroke="#E50012" stroke-width="8"/>
<circle cx="49.5" cy="49.5" r="41.5" fill="#FF0707"/>
<mask id="path-3-outside-1_26_65" maskUnits="userSpaceOnUse" x="25" y="21" width="48" height="57" fill="black">
<rect fill="white" x="25" y="21" width="48" height="57"/>
<path d="M48.729 73.6364C45.0623 73.6364 41.8047 73.0076 38.9563 71.75C36.1229 70.4773 33.8956 68.7273 32.2744 66.5C30.6532 64.2727 29.835 61.7121 29.8199 58.8182H42.5472C42.5623 59.7121 42.835 60.5152 43.3653 61.2273C43.9108 61.9242 44.6532 62.4697 45.5926 62.8636C46.532 63.2576 47.6078 63.4545 48.8199 63.4545C49.9866 63.4545 51.0169 63.25 51.9108 62.8409C52.8047 62.4167 53.5017 61.8333 54.0017 61.0909C54.5017 60.3485 54.7441 59.5 54.729 58.5455C54.7441 57.6061 54.4563 56.7727 53.8653 56.0455C53.2896 55.3182 52.479 54.75 51.4335 54.3409C50.3881 53.9318 49.1835 53.7273 47.8199 53.7273H43.0926V45H47.8199C49.0775 45 50.1835 44.7955 51.1381 44.3864C52.1078 43.9773 52.8578 43.4091 53.3881 42.6818C53.9335 41.9545 54.1987 41.1212 54.1835 40.1818C54.1987 39.2727 53.979 38.4697 53.5244 37.7727C53.0699 37.0758 52.4335 36.5303 51.6153 36.1364C50.8123 35.7424 49.8805 35.5455 48.8199 35.5455C47.6684 35.5455 46.6381 35.75 45.729 36.1591C44.835 36.5682 44.1305 37.1364 43.6153 37.8636C43.1002 38.5909 42.835 39.4242 42.8199 40.3636H30.729C30.7441 37.5152 31.5244 35 33.0699 32.8182C34.6305 30.6364 36.7669 28.9242 39.479 27.6818C42.1911 26.4394 45.3047 25.8182 48.8199 25.8182C52.2593 25.8182 55.2972 26.4015 57.9335 27.5682C60.585 28.7348 62.6532 30.3409 64.1381 32.3864C65.6381 34.4167 66.3805 36.7424 66.3653 39.3636C66.3956 41.9697 65.5017 44.1061 63.6835 45.7727C61.8805 47.4394 59.5926 48.4242 56.8199 48.7273V49.0909C60.5775 49.5 63.4032 50.6515 65.2972 52.5455C67.1911 54.4242 68.1229 56.7879 68.0926 59.6364C68.1078 62.3636 67.2896 64.7803 65.6381 66.8864C64.0017 68.9924 61.7214 70.6439 58.7972 71.8409C55.8881 73.0379 52.532 73.6364 48.729 73.6364Z"/>
</mask>
<path d="M48.729 73.6364C45.0623 73.6364 41.8047 73.0076 38.9563 71.75C36.1229 70.4773 33.8956 68.7273 32.2744 66.5C30.6532 64.2727 29.835 61.7121 29.8199 58.8182H42.5472C42.5623 59.7121 42.835 60.5152 43.3653 61.2273C43.9108 61.9242 44.6532 62.4697 45.5926 62.8636C46.532 63.2576 47.6078 63.4545 48.8199 63.4545C49.9866 63.4545 51.0169 63.25 51.9108 62.8409C52.8047 62.4167 53.5017 61.8333 54.0017 61.0909C54.5017 60.3485 54.7441 59.5 54.729 58.5455C54.7441 57.6061 54.4563 56.7727 53.8653 56.0455C53.2896 55.3182 52.479 54.75 51.4335 54.3409C50.3881 53.9318 49.1835 53.7273 47.8199 53.7273H43.0926V45H47.8199C49.0775 45 50.1835 44.7955 51.1381 44.3864C52.1078 43.9773 52.8578 43.4091 53.3881 42.6818C53.9335 41.9545 54.1987 41.1212 54.1835 40.1818C54.1987 39.2727 53.979 38.4697 53.5244 37.7727C53.0699 37.0758 52.4335 36.5303 51.6153 36.1364C50.8123 35.7424 49.8805 35.5455 48.8199 35.5455C47.6684 35.5455 46.6381 35.75 45.729 36.1591C44.835 36.5682 44.1305 37.1364 43.6153 37.8636C43.1002 38.5909 42.835 39.4242 42.8199 40.3636H30.729C30.7441 37.5152 31.5244 35 33.0699 32.8182C34.6305 30.6364 36.7669 28.9242 39.479 27.6818C42.1911 26.4394 45.3047 25.8182 48.8199 25.8182C52.2593 25.8182 55.2972 26.4015 57.9335 27.5682C60.585 28.7348 62.6532 30.3409 64.1381 32.3864C65.6381 34.4167 66.3805 36.7424 66.3653 39.3636C66.3956 41.9697 65.5017 44.1061 63.6835 45.7727C61.8805 47.4394 59.5926 48.4242 56.8199 48.7273V49.0909C60.5775 49.5 63.4032 50.6515 65.2972 52.5455C67.1911 54.4242 68.1229 56.7879 68.0926 59.6364C68.1078 62.3636 67.2896 64.7803 65.6381 66.8864C64.0017 68.9924 61.7214 70.6439 58.7972 71.8409C55.8881 73.0379 52.532 73.6364 48.729 73.6364Z" fill="white"/>
<path d="M38.9563 71.75L37.3172 75.3988L37.329 75.4041L37.3407 75.4092L38.9563 71.75ZM32.2744 66.5L35.5084 64.146L35.5084 64.146L32.2744 66.5ZM29.8199 58.8182V54.8182H25.7989L25.8199 58.8391L29.8199 58.8182ZM42.5472 58.8182L46.5466 58.7504L46.4799 54.8182H42.5472V58.8182ZM43.3653 61.2273L40.1572 63.6163L40.1858 63.6548L40.2153 63.6925L43.3653 61.2273ZM45.5926 62.8636L44.0457 66.5524L44.0457 66.5524L45.5926 62.8636ZM51.9108 62.8409L53.5753 66.4781L53.6006 66.4666L53.6258 66.4546L51.9108 62.8409ZM54.0017 61.0909L57.3195 63.3253L57.3195 63.3253L54.0017 61.0909ZM54.729 58.5455L50.7295 58.4809L50.7285 58.5449L50.7295 58.6089L54.729 58.5455ZM53.8653 56.0455L50.7292 58.5283L50.7449 58.5481L50.7609 58.5678L53.8653 56.0455ZM43.0926 53.7273H39.0926V57.7273H43.0926V53.7273ZM43.0926 45V41H39.0926V45H43.0926ZM51.1381 44.3864L49.5833 40.7009L49.5728 40.7053L49.5624 40.7098L51.1381 44.3864ZM53.3881 42.6818L50.1881 40.2818L50.1719 40.3034L50.156 40.3251L53.3881 42.6818ZM54.1835 40.1818L50.1841 40.1152L50.183 40.1807L50.184 40.2463L54.1835 40.1818ZM53.5244 37.7727L50.174 39.9578L50.174 39.9578L53.5244 37.7727ZM51.6153 36.1364L49.8536 39.7275L49.8668 39.734L49.8801 39.7404L51.6153 36.1364ZM45.729 36.1591L44.0875 32.5114L44.076 32.5166L44.0645 32.5219L45.729 36.1591ZM43.6153 37.8636L46.8794 40.1757L46.8794 40.1757L43.6153 37.8636ZM42.8199 40.3636V44.3636H46.7559L46.8194 40.4281L42.8199 40.3636ZM30.729 40.3636L26.729 40.3424L26.7076 44.3636H30.729V40.3636ZM33.0699 32.8182L29.8165 30.4911L29.8111 30.4986L29.8058 30.5061L33.0699 32.8182ZM39.479 27.6818L41.1449 31.3184L41.1449 31.3184L39.479 27.6818ZM57.9335 27.5682L56.3148 31.226L56.3226 31.2294L57.9335 27.5682ZM64.1381 32.3864L60.9011 34.7362L60.9109 34.7498L60.9209 34.7633L64.1381 32.3864ZM66.3653 39.3636L62.3654 39.3405L62.3652 39.3753L62.3656 39.4101L66.3653 39.3636ZM63.6835 45.7727L60.9806 42.8241L60.9745 42.8297L60.9684 42.8354L63.6835 45.7727ZM56.8199 48.7273L56.3853 44.7509L52.8199 45.1406V48.7273H56.8199ZM56.8199 49.0909H52.8199V52.6791L56.387 53.0674L56.8199 49.0909ZM65.2972 52.5455L62.4687 55.3739L62.4744 55.3796L62.4801 55.3852L65.2972 52.5455ZM68.0926 59.6364L64.0928 59.5938L64.0925 59.6262L64.0927 59.6586L68.0926 59.6364ZM65.6381 66.8864L62.4904 64.4181L62.4849 64.4251L62.4794 64.4322L65.6381 66.8864ZM58.7972 71.8409L57.2819 68.139L57.2751 68.1418L58.7972 71.8409ZM48.729 69.6364C45.5211 69.6364 42.829 69.0873 40.5718 68.0908L37.3407 75.4092C40.7804 76.9278 44.6035 77.6364 48.729 77.6364V69.6364ZM40.5953 68.1012C38.3147 67.0768 36.6696 65.7413 35.5084 64.146L29.0404 68.854C31.1217 71.7133 33.9311 73.8778 37.3172 75.3988L40.5953 68.1012ZM35.5084 64.146C34.4067 62.6324 33.8308 60.8975 33.8198 58.7972L25.8199 58.8391C25.8392 62.5268 26.8997 65.913 29.0404 68.854L35.5084 64.146ZM29.8199 62.8182H42.5472V54.8182H29.8199V62.8182ZM38.5477 58.886C38.577 60.6112 39.1228 62.2274 40.1572 63.6163L46.5735 58.8382C46.5583 58.8178 46.5519 58.8061 46.5502 58.803C46.5487 58.8 46.5494 58.8011 46.5506 58.8046C46.5518 58.8081 46.5514 58.8082 46.5505 58.8026C46.5495 58.7967 46.5471 58.7801 46.5466 58.7504L38.5477 58.886ZM40.2153 63.6925C41.2418 65.0041 42.5724 65.9346 44.0457 66.5524L47.1395 59.1749C46.7341 59.0048 46.5798 58.8444 46.5154 58.762L40.2153 63.6925ZM44.0457 66.5524C45.5587 67.1869 47.1756 67.4545 48.8199 67.4545V59.4545C48.0399 59.4545 47.5053 59.3283 47.1395 59.1749L44.0457 66.5524ZM48.8199 67.4545C50.4551 67.4545 52.0706 67.1667 53.5753 66.4781L50.2463 59.2037C49.9631 59.3333 49.518 59.4545 48.8199 59.4545V67.4545ZM53.6258 66.4546C55.0977 65.7561 56.3773 64.7243 57.3195 63.3253L50.684 58.8565C50.6262 58.9423 50.5118 59.0773 50.1958 59.2272L53.6258 66.4546ZM57.3195 63.3253C58.3073 61.8585 58.7557 60.1967 58.7285 58.482L50.7295 58.6089C50.7313 58.7253 50.7172 58.782 50.7124 58.7988C50.7083 58.8133 50.7027 58.8286 50.684 58.8565L57.3195 63.3253ZM58.7285 58.61C58.7587 56.7325 58.1557 54.9826 56.9698 53.5231L50.7609 58.5678C50.7726 58.5823 50.7724 58.5843 50.7663 58.5734C50.76 58.5623 50.7514 58.5445 50.7437 58.522C50.7359 58.4995 50.7318 58.4807 50.73 58.469C50.7283 58.4578 50.7298 58.4606 50.7295 58.4809L58.7285 58.61ZM57.0015 53.5626C55.9021 52.1739 54.4576 51.2289 52.8911 50.6159L49.9759 58.0659C50.5003 58.2711 50.6771 58.4625 50.7292 58.5283L57.0015 53.5626ZM52.8911 50.6159C51.2933 49.9907 49.5782 49.7273 47.8199 49.7273V57.7273C48.7888 57.7273 49.4829 57.873 49.9759 58.0659L52.8911 50.6159ZM47.8199 49.7273H43.0926V57.7273H47.8199V49.7273ZM47.0926 53.7273V45H39.0926V53.7273H47.0926ZM43.0926 49H47.8199V41H43.0926V49ZM47.8199 49C49.5075 49 51.168 48.7254 52.7137 48.0629L49.5624 40.7098C49.1991 40.8655 48.6474 41 47.8199 41V49ZM52.6929 48.0718C54.2172 47.4288 55.5939 46.4459 56.6201 45.0385L50.156 40.3251C50.1216 40.3723 49.9984 40.5258 49.5833 40.7009L52.6929 48.0718ZM56.5881 45.0818C57.685 43.6193 58.212 41.9121 58.183 40.1173L50.184 40.2463C50.1846 40.283 50.1823 40.3026 50.1815 40.3079C50.1808 40.3129 50.1811 40.3087 50.1843 40.2985C50.1876 40.2883 50.1916 40.279 50.1949 40.2727C50.198 40.2666 50.1973 40.2696 50.1881 40.2818L56.5881 45.0818ZM58.183 40.2485C58.2101 38.6182 57.8061 37.0156 56.8749 35.5877L50.174 39.9578C50.1757 39.9604 50.1747 39.9592 50.1729 39.9553C50.1712 39.9514 50.171 39.95 50.1719 39.9533C50.173 39.9574 50.1859 40.0049 50.1841 40.1152L58.183 40.2485ZM56.8749 35.5877C55.9855 34.2239 54.7645 33.2131 53.3506 32.5324L49.8801 39.7404C50.1026 39.8475 50.1543 39.9276 50.174 39.9578L56.8749 35.5877ZM53.377 32.5452C51.9329 31.8367 50.3787 31.5455 48.8199 31.5455V39.5455C49.3823 39.5455 49.6917 39.6481 49.8536 39.7275L53.377 32.5452ZM48.8199 31.5455C47.1897 31.5455 45.5867 31.8368 44.0875 32.5114L47.3704 39.8068C47.6894 39.6632 48.147 39.5455 48.8199 39.5455V31.5455ZM44.0645 32.5219C42.5977 33.1931 41.3146 34.1915 40.3512 35.5516L46.8794 40.1757C46.9464 40.0812 47.0723 39.9433 47.3935 39.7963L44.0645 32.5219ZM40.3512 35.5516C39.3441 36.9735 38.8478 38.5997 38.8204 40.2991L46.8194 40.4281C46.8223 40.2488 46.8563 40.2083 46.8794 40.1757L40.3512 35.5516ZM42.8199 36.3636H30.729V44.3636H42.8199V36.3636ZM34.7289 40.3849C34.74 38.3007 35.2949 36.5973 36.334 35.1302L29.8058 30.5061C27.754 33.4027 26.7483 36.7296 26.729 40.3424L34.7289 40.3849ZM36.3233 35.1453C37.4339 33.5926 38.9943 32.3036 41.1449 31.3184L37.8131 24.0452C34.5394 25.5449 31.8271 27.6801 29.8165 30.4911L36.3233 35.1453ZM41.1449 31.3184C43.2493 30.3544 45.7782 29.8182 48.8199 29.8182V21.8182C44.8312 21.8182 41.1329 22.5244 37.8131 24.0452L41.1449 31.3184ZM48.8199 29.8182C51.8076 29.8182 54.2769 30.3242 56.3148 31.226L59.5522 23.9103C56.3174 22.4788 52.7109 21.8182 48.8199 21.8182V29.8182ZM56.3226 31.2294C58.4217 32.1531 59.8902 33.3437 60.9011 34.7362L67.3751 30.0365C65.4162 27.3381 62.7483 25.3166 59.5445 23.9069L56.3226 31.2294ZM60.9209 34.7633C61.887 36.071 62.3758 37.5473 62.3654 39.3405L70.3653 39.3868C70.3852 35.9376 69.3891 32.7624 67.3553 30.0095L60.9209 34.7633ZM62.3656 39.4101C62.3835 40.9517 61.9081 41.9739 60.9806 42.8241L66.3864 48.7213C69.0953 46.2382 70.4078 42.9876 70.3651 39.3171L62.3656 39.4101ZM60.9684 42.8354C59.8784 43.8429 58.4271 44.5278 56.3853 44.7509L57.2545 52.7036C60.7581 52.3207 63.8826 51.0359 66.3987 48.71L60.9684 42.8354ZM52.8199 48.7273V49.0909H60.8199V48.7273H52.8199ZM56.387 53.0674C59.6041 53.4177 61.4384 54.3435 62.4687 55.3739L68.1256 49.717C65.3681 46.9595 61.5508 45.5823 57.2528 45.1144L56.387 53.0674ZM62.4801 55.3852C63.5504 56.4469 64.1125 57.7449 64.0928 59.5938L72.0924 59.6789C72.1333 55.8309 70.8318 52.4015 68.1142 49.7057L62.4801 55.3852ZM64.0927 59.6586C64.1029 61.5019 63.5736 63.0368 62.4904 64.4181L68.7857 69.3546C71.0056 66.5238 72.1126 63.2253 72.0926 59.6141L64.0927 59.6586ZM62.4794 64.4322C61.3455 65.8916 59.6788 67.1579 57.2819 68.139L60.3124 75.5428C63.764 74.13 66.6579 72.0933 68.7967 69.3406L62.4794 64.4322ZM57.2751 68.1418C54.9384 69.1032 52.1163 69.6364 48.729 69.6364V77.6364C52.9477 77.6364 56.8377 76.9725 60.3192 75.54L57.2751 68.1418Z" fill="#E50012" mask="url(#path-3-outside-1_26_65)"/>
</svg>
