<svg width="99" height="99" viewBox="0 0 99 99" fill="none" xmlns="http://www.w3.org/2000/svg">
<circle cx="49.5" cy="49.5" r="45.5" fill="white" stroke="#E50012" stroke-width="8"/>
<circle cx="49.5" cy="49.5" r="41.5" fill="#FF0707"/>
<mask id="path-3-outside-1_26_75" maskUnits="userSpaceOnUse" x="26" y="22" width="47" height="56" fill="black">
<rect fill="white" x="26" y="22" width="47" height="56"/>
<path d="M49.371 73.6364C45.7953 73.6364 42.621 73.0076 39.8483 71.75C37.0907 70.4773 34.9165 68.7273 33.3256 66.5C31.7498 64.2727 30.9468 61.7121 30.9165 58.8182H43.1892C43.2347 60.4242 43.8559 61.7045 45.0528 62.6591C46.265 63.6136 47.7044 64.0909 49.371 64.0909C50.6589 64.0909 51.7953 63.8182 52.7801 63.2727C53.765 62.7121 54.5377 61.9242 55.0983 60.9091C55.6589 59.8939 55.9316 58.7121 55.9165 57.3636C55.9316 56 55.6589 54.8182 55.0983 53.8182C54.5377 52.803 53.765 52.0227 52.7801 51.4773C51.7953 50.9167 50.6589 50.6364 49.371 50.6364C48.0377 50.6364 46.8028 50.9621 45.6665 51.6136C44.5453 52.25 43.7195 53.1364 43.1892 54.2727L32.0983 52.0909L33.9165 26.4545H65.1892V36.5455H44.2801L43.371 46.8182H43.6438C44.371 45.4091 45.6286 44.2424 47.4165 43.3182C49.2044 42.3788 51.2801 41.9091 53.6438 41.9091C56.4165 41.9091 58.8862 42.553 61.0528 43.8409C63.2347 45.1288 64.9544 46.9091 66.2119 49.1818C67.4847 51.4394 68.1134 54.0455 68.0983 57C68.1134 60.2424 67.3407 63.1212 65.7801 65.6364C64.2347 68.1364 62.0604 70.0985 59.2574 71.5227C56.4544 72.9318 53.1589 73.6364 49.371 73.6364Z"/>
</mask>
<path d="M49.371 73.6364C45.7953 73.6364 42.621 73.0076 39.8483 71.75C37.0907 70.4773 34.9165 68.7273 33.3256 66.5C31.7498 64.2727 30.9468 61.7121 30.9165 58.8182H43.1892C43.2347 60.4242 43.8559 61.7045 45.0528 62.6591C46.265 63.6136 47.7044 64.0909 49.371 64.0909C50.6589 64.0909 51.7953 63.8182 52.7801 63.2727C53.765 62.7121 54.5377 61.9242 55.0983 60.9091C55.6589 59.8939 55.9316 58.7121 55.9165 57.3636C55.9316 56 55.6589 54.8182 55.0983 53.8182C54.5377 52.803 53.765 52.0227 52.7801 51.4773C51.7953 50.9167 50.6589 50.6364 49.371 50.6364C48.0377 50.6364 46.8028 50.9621 45.6665 51.6136C44.5453 52.25 43.7195 53.1364 43.1892 54.2727L32.0983 52.0909L33.9165 26.4545H65.1892V36.5455H44.2801L43.371 46.8182H43.6438C44.371 45.4091 45.6286 44.2424 47.4165 43.3182C49.2044 42.3788 51.2801 41.9091 53.6438 41.9091C56.4165 41.9091 58.8862 42.553 61.0528 43.8409C63.2347 45.1288 64.9544 46.9091 66.2119 49.1818C67.4847 51.4394 68.1134 54.0455 68.0983 57C68.1134 60.2424 67.3407 63.1212 65.7801 65.6364C64.2347 68.1364 62.0604 70.0985 59.2574 71.5227C56.4544 72.9318 53.1589 73.6364 49.371 73.6364Z" fill="white"/>
<path d="M39.8483 71.75L38.1721 75.3818L38.1841 75.3874L38.1961 75.3928L39.8483 71.75ZM33.3256 66.5L30.0602 68.8102L30.0654 68.8176L30.0706 68.825L33.3256 66.5ZM30.9165 58.8182V54.8182H26.8744L26.9167 58.8601L30.9165 58.8182ZM43.1892 58.8182L47.1876 58.705L47.0776 54.8182H43.1892V58.8182ZM45.0528 62.6591L42.5589 65.7864L42.5685 65.7941L42.5781 65.8016L45.0528 62.6591ZM52.7801 63.2727L54.7181 66.7719L54.7386 66.7606L54.7589 66.749L52.7801 63.2727ZM55.0983 60.9091L51.5967 58.9754L51.5967 58.9754L55.0983 60.9091ZM55.9165 57.3636L51.9167 57.3192L51.9162 57.3639L51.9167 57.4086L55.9165 57.3636ZM55.0983 53.8182L51.5967 55.7519L51.6029 55.7631L51.6092 55.7742L55.0983 53.8182ZM52.7801 51.4773L50.8013 54.9535L50.8217 54.9651L50.8421 54.9764L52.7801 51.4773ZM45.6665 51.6136L47.6409 55.0924L47.6485 55.0881L47.656 55.0838L45.6665 51.6136ZM43.1892 54.2727L42.4171 58.1975L45.4897 58.8019L46.8139 55.9643L43.1892 54.2727ZM32.0983 52.0909L28.1083 51.8079L27.8583 55.3335L31.3262 56.0157L32.0983 52.0909ZM33.9165 26.4545V22.4545H30.1901L29.9265 26.1716L33.9165 26.4545ZM65.1892 26.4545H69.1892V22.4545H65.1892V26.4545ZM65.1892 36.5455V40.5455H69.1892V36.5455H65.1892ZM44.2801 36.5455V32.5455H40.6185L40.2957 36.1928L44.2801 36.5455ZM43.371 46.8182L39.3866 46.4656L39.0014 50.8182H43.371V46.8182ZM43.6438 46.8182V50.8182H46.0806L47.1982 48.6528L43.6438 46.8182ZM47.4165 43.3182L49.2534 46.8715L49.2652 46.8654L49.277 46.8592L47.4165 43.3182ZM61.0528 43.8409L59.009 47.2794L59.0195 47.2856L61.0528 43.8409ZM66.2119 49.1818L62.712 51.1184L62.7197 51.1323L62.7275 51.1462L66.2119 49.1818ZM68.0983 57L64.0984 56.9795L64.0983 56.9991L64.0983 57.0187L68.0983 57ZM65.7801 65.6364L62.3812 63.5274L62.3777 63.5331L65.7801 65.6364ZM59.2574 71.5227L61.054 75.0966L61.0617 75.0927L61.0693 75.0888L59.2574 71.5227ZM49.371 69.6364C46.2667 69.6364 43.6715 69.0918 41.5005 68.1072L38.1961 75.3928C41.5705 76.9233 45.3238 77.6364 49.371 77.6364V69.6364ZM41.5245 68.1182C39.327 67.1039 37.7246 65.7768 36.5805 64.175L30.0706 68.825C32.1084 71.6778 34.8545 73.8506 38.1721 75.3818L41.5245 68.1182ZM36.591 64.1898C35.5142 62.6678 34.9386 60.9092 34.9163 58.7763L26.9167 58.8601C26.955 62.515 27.9855 65.8777 30.0602 68.8102L36.591 64.1898ZM30.9165 62.8182H43.1892V54.8182H30.9165V62.8182ZM39.1908 58.9313C39.2677 61.648 40.3903 64.057 42.5589 65.7864L47.5468 59.5318C47.3215 59.3521 47.2016 59.2005 47.1876 58.705L39.1908 58.9313ZM42.5781 65.8016C44.5537 67.3574 46.8835 68.0909 49.371 68.0909V60.0909C48.5252 60.0909 47.9763 59.8699 47.5276 59.5165L42.5781 65.8016ZM49.371 68.0909C51.2381 68.0909 53.0594 67.6906 54.7181 66.7719L50.8421 59.7736C50.5312 59.9458 50.0797 60.0909 49.371 60.0909V68.0909ZM54.7589 66.749C56.3992 65.8153 57.692 64.4866 58.5998 62.8428L51.5967 58.9754C51.3833 59.3618 51.1308 59.6089 50.8013 59.7965L54.7589 66.749ZM58.5998 62.8428C59.5457 61.13 59.9379 59.245 59.9162 57.3187L51.9167 57.4086C51.9254 58.1792 51.7721 58.6579 51.5967 58.9754L58.5998 62.8428ZM59.9162 57.4081C59.9377 55.4776 59.5501 53.5793 58.5874 51.8622L51.6092 55.7742C51.7677 56.0571 51.9256 56.5224 51.9167 57.3192L59.9162 57.4081ZM58.5998 51.8845C57.6871 50.2317 56.3815 48.8994 54.7181 47.9781L50.8421 54.9764C51.1484 55.1461 51.3882 55.3743 51.5967 55.7519L58.5998 51.8845ZM54.7589 48.001C53.0926 47.0525 51.2565 46.6364 49.371 46.6364V54.6364C50.0613 54.6364 50.4979 54.7808 50.8013 54.9535L54.7589 48.001ZM49.371 46.6364C47.3527 46.6364 45.4302 47.1383 43.6769 48.1435L47.656 55.0838C48.1755 54.7859 48.7226 54.6364 49.371 54.6364V46.6364ZM43.6921 48.1349C41.8702 49.1689 40.4564 50.6699 39.5645 52.5812L46.8139 55.9643C46.9826 55.6028 47.2203 55.3311 47.6409 55.0924L43.6921 48.1349ZM43.9613 50.3479L32.8704 48.1661L31.3262 56.0157L42.4171 58.1975L43.9613 50.3479ZM36.0883 52.3739L37.9065 26.7375L29.9265 26.1716L28.1083 51.8079L36.0883 52.3739ZM33.9165 30.4545H65.1892V22.4545H33.9165V30.4545ZM61.1892 26.4545V36.5455H69.1892V26.4545H61.1892ZM65.1892 32.5455H44.2801V40.5455H65.1892V32.5455ZM40.2957 36.1928L39.3866 46.4656L47.3555 47.1708L48.2645 36.8981L40.2957 36.1928ZM43.371 50.8182H43.6438V42.8182H43.371V50.8182ZM47.1982 48.6528C47.4538 48.1577 48.0033 47.5177 49.2534 46.8715L45.5796 39.7649C43.2539 40.9671 41.2883 42.6605 40.0893 44.9836L47.1982 48.6528ZM49.277 46.8592C50.4006 46.2688 51.8178 45.9091 53.6438 45.9091V37.9091C50.7424 37.9091 48.0081 38.4888 45.556 39.7772L49.277 46.8592ZM53.6438 45.9091C55.7712 45.9091 57.5215 46.3951 59.009 47.2793L63.0967 40.4025C60.2509 38.7109 57.0617 37.9091 53.6438 37.9091V45.9091ZM59.0195 47.2856C60.5706 48.2011 61.7909 49.4537 62.712 51.1184L69.7119 47.2452C68.1179 44.3645 65.8987 42.0564 63.0861 40.3962L59.0195 47.2856ZM62.7275 51.1462C63.6133 52.7175 64.1104 54.6212 64.0984 56.9795L72.0982 57.0205C72.1165 53.4697 71.356 50.1613 69.6964 47.2174L62.7275 51.1462ZM64.0983 57.0187C64.1103 59.5838 63.5081 61.7113 62.3812 63.5274L69.179 67.7453C71.1733 64.5312 72.1166 60.901 72.0983 56.9813L64.0983 57.0187ZM62.3777 63.5331C61.2453 65.365 59.6416 66.8408 57.4454 67.9567L61.0693 75.0888C64.4792 73.3562 67.2241 70.9077 69.1825 67.7397L62.3777 63.5331ZM57.4608 67.9489C55.3192 69.0255 52.6629 69.6364 49.371 69.6364V77.6364C53.6549 77.6364 57.5895 76.8381 61.054 75.0966L57.4608 67.9489Z" fill="#E50012" mask="url(#path-3-outside-1_26_75)"/>
</svg>
