<svg width="99" height="99" viewBox="0 0 99 99" fill="none" xmlns="http://www.w3.org/2000/svg">
<circle cx="49.5" cy="49.5" r="45.5" fill="white" stroke="#E50012" stroke-width="8"/>
<path d="M91 49.5C91 54.9499 89.9266 60.3464 87.841 65.3814C85.7554 70.4164 82.6986 74.9913 78.8449 78.8449C74.9913 82.6986 70.4164 85.7554 65.3814 87.841C60.3463 89.9266 54.9499 91 49.5 91C44.0501 91 38.6536 89.9266 33.6186 87.841C28.5836 85.7554 24.0087 82.6986 20.1551 78.8449C16.3014 74.9913 13.2446 70.4164 11.159 65.3814C9.07343 60.3463 8 54.9499 8 49.5L49.5 49.5H91Z" fill="#FF0707"/>
<mask id="path-3-outside-1_26_88" maskUnits="userSpaceOnUse" x="29" y="21" width="40" height="57" fill="black">
<rect fill="white" x="29" y="21" width="40" height="57"/>
<path d="M49.0585 73.6364C45.9373 73.6364 43.1797 73.0833 40.7858 71.9773C38.407 70.8561 36.5509 69.3182 35.2176 67.3636C33.8843 65.3939 33.2252 63.1515 33.2403 60.6364C33.2252 58.6667 33.6116 56.8485 34.3994 55.1818C35.1873 53.5 36.2631 52.0985 37.6267 50.9773C39.0055 49.8409 40.5434 49.1212 42.2403 48.8182V48.5455C40.0131 47.9697 38.2403 46.7197 36.9222 44.7955C35.604 42.8561 34.9525 40.6515 34.9676 38.1818C34.9525 35.8182 35.5509 33.7045 36.7631 31.8409C37.9752 29.9773 39.6419 28.5076 41.7631 27.4318C43.8994 26.3561 46.3313 25.8182 49.0585 25.8182C51.7555 25.8182 54.1646 26.3561 56.2858 27.4318C58.407 28.5076 60.0737 29.9773 61.2858 31.8409C62.5131 33.7045 63.1343 35.8182 63.1494 38.1818C63.1343 40.6515 62.46 42.8561 61.1267 44.7955C59.8085 46.7197 58.0585 47.9697 55.8767 48.5455V48.8182C57.5585 49.1212 59.0737 49.8409 60.4222 50.9773C61.7706 52.0985 62.8464 53.5 63.6494 55.1818C64.4525 56.8485 64.8616 58.6667 64.8767 60.6364C64.8616 63.1515 64.1797 65.3939 62.8313 67.3636C61.4979 69.3182 59.6419 70.8561 57.2631 71.9773C54.8994 73.0833 52.1646 73.6364 49.0585 73.6364ZM49.0585 68.6364C51.1646 68.6364 52.9828 68.2955 54.5131 67.6136C56.0434 66.9318 57.2252 65.9697 58.0585 64.7273C58.8919 63.4848 59.3161 62.0303 59.3313 60.3636C59.3161 58.6061 58.8616 57.053 57.9676 55.7045C57.0737 54.3561 55.854 53.2955 54.3085 52.5227C52.7782 51.75 51.0282 51.3636 49.0585 51.3636C47.0737 51.3636 45.3009 51.75 43.7403 52.5227C42.1949 53.2955 40.9752 54.3561 40.0813 55.7045C39.2025 57.053 38.7706 58.6061 38.7858 60.3636C38.7706 62.0303 39.1722 63.4848 39.9903 64.7273C40.8237 65.9697 42.0131 66.9318 43.5585 67.6136C45.104 68.2955 46.9373 68.6364 49.0585 68.6364ZM49.0585 46.5455C50.7252 46.5455 52.2025 46.2121 53.4903 45.5455C54.7934 44.8788 55.8161 43.947 56.5585 42.75C57.3009 41.553 57.6797 40.1515 57.6949 38.5455C57.6797 36.9697 57.3085 35.5985 56.5813 34.4318C55.854 33.25 54.8464 32.3409 53.5585 31.7045C52.2706 31.053 50.7706 30.7273 49.0585 30.7273C47.3161 30.7273 45.7934 31.053 44.4903 31.7045C43.1873 32.3409 42.1797 33.25 41.4676 34.4318C40.7555 35.5985 40.407 36.9697 40.4222 38.5455C40.407 40.1515 40.7631 41.553 41.4903 42.75C42.2328 43.947 43.2555 44.8788 44.5585 45.5455C45.8616 46.2121 47.3616 46.5455 49.0585 46.5455Z"/>
</mask>
<path d="M49.0585 73.6364C45.9373 73.6364 43.1797 73.0833 40.7858 71.9773C38.407 70.8561 36.5509 69.3182 35.2176 67.3636C33.8843 65.3939 33.2252 63.1515 33.2403 60.6364C33.2252 58.6667 33.6116 56.8485 34.3994 55.1818C35.1873 53.5 36.2631 52.0985 37.6267 50.9773C39.0055 49.8409 40.5434 49.1212 42.2403 48.8182V48.5455C40.0131 47.9697 38.2403 46.7197 36.9222 44.7955C35.604 42.8561 34.9525 40.6515 34.9676 38.1818C34.9525 35.8182 35.5509 33.7045 36.7631 31.8409C37.9752 29.9773 39.6419 28.5076 41.7631 27.4318C43.8994 26.3561 46.3313 25.8182 49.0585 25.8182C51.7555 25.8182 54.1646 26.3561 56.2858 27.4318C58.407 28.5076 60.0737 29.9773 61.2858 31.8409C62.5131 33.7045 63.1343 35.8182 63.1494 38.1818C63.1343 40.6515 62.46 42.8561 61.1267 44.7955C59.8085 46.7197 58.0585 47.9697 55.8767 48.5455V48.8182C57.5585 49.1212 59.0737 49.8409 60.4222 50.9773C61.7706 52.0985 62.8464 53.5 63.6494 55.1818C64.4525 56.8485 64.8616 58.6667 64.8767 60.6364C64.8616 63.1515 64.1797 65.3939 62.8313 67.3636C61.4979 69.3182 59.6419 70.8561 57.2631 71.9773C54.8994 73.0833 52.1646 73.6364 49.0585 73.6364ZM49.0585 68.6364C51.1646 68.6364 52.9828 68.2955 54.5131 67.6136C56.0434 66.9318 57.2252 65.9697 58.0585 64.7273C58.8919 63.4848 59.3161 62.0303 59.3313 60.3636C59.3161 58.6061 58.8616 57.053 57.9676 55.7045C57.0737 54.3561 55.854 53.2955 54.3085 52.5227C52.7782 51.75 51.0282 51.3636 49.0585 51.3636C47.0737 51.3636 45.3009 51.75 43.7403 52.5227C42.1949 53.2955 40.9752 54.3561 40.0813 55.7045C39.2025 57.053 38.7706 58.6061 38.7858 60.3636C38.7706 62.0303 39.1722 63.4848 39.9903 64.7273C40.8237 65.9697 42.0131 66.9318 43.5585 67.6136C45.104 68.2955 46.9373 68.6364 49.0585 68.6364ZM49.0585 46.5455C50.7252 46.5455 52.2025 46.2121 53.4903 45.5455C54.7934 44.8788 55.8161 43.947 56.5585 42.75C57.3009 41.553 57.6797 40.1515 57.6949 38.5455C57.6797 36.9697 57.3085 35.5985 56.5813 34.4318C55.854 33.25 54.8464 32.3409 53.5585 31.7045C52.2706 31.053 50.7706 30.7273 49.0585 30.7273C47.3161 30.7273 45.7934 31.053 44.4903 31.7045C43.1873 32.3409 42.1797 33.25 41.4676 34.4318C40.7555 35.5985 40.407 36.9697 40.4222 38.5455C40.407 40.1515 40.7631 41.553 41.4903 42.75C42.2328 43.947 43.2555 44.8788 44.5585 45.5455C45.8616 46.2121 47.3616 46.5455 49.0585 46.5455Z" fill="white"/>
<path d="M40.7858 71.9773L39.0804 75.5955L39.0942 75.602L39.1081 75.6084L40.7858 71.9773ZM35.2176 67.3636L31.9052 69.6059L31.9092 69.6118L31.9132 69.6178L35.2176 67.3636ZM33.2403 60.6364L37.2403 60.6605L37.2404 60.633L37.2402 60.6056L33.2403 60.6364ZM34.3994 55.1818L38.0157 56.8913L38.0217 56.8787L34.3994 55.1818ZM37.6267 50.9773L40.1671 54.067L40.1707 54.064L37.6267 50.9773ZM42.2403 48.8182L42.9435 52.7559L46.2403 52.1672V48.8182H42.2403ZM42.2403 48.5455H46.2403V45.448L43.2414 44.6728L42.2403 48.5455ZM36.9222 44.7955L33.614 47.044L33.6181 47.05L33.6222 47.0561L36.9222 44.7955ZM34.9676 38.1818L38.9675 38.2064L38.9677 38.1813L38.9675 38.1562L34.9676 38.1818ZM36.7631 31.8409L40.1162 34.0218L40.1162 34.0218L36.7631 31.8409ZM41.7631 27.4318L39.9641 23.8592L39.9539 23.8644L41.7631 27.4318ZM61.2858 31.8409L57.9326 34.0218L57.9389 34.0314L57.9451 34.0409L61.2858 31.8409ZM63.1494 38.1818L67.1494 38.2064L67.1495 38.1813L67.1494 38.1562L63.1494 38.1818ZM61.1267 44.7955L57.8305 42.5293L57.8268 42.5349L61.1267 44.7955ZM55.8767 48.5455L54.8561 44.6779L51.8767 45.4641V48.5455H55.8767ZM55.8767 48.8182H51.8767V52.1619L55.1674 52.7548L55.8767 48.8182ZM60.4222 50.9773L57.8446 54.036L57.8547 54.0445L57.8648 54.053L60.4222 50.9773ZM63.6494 55.1818L60.0398 56.9054L60.0459 56.9181L63.6494 55.1818ZM64.8767 60.6364L68.8766 60.6605L68.8768 60.633L68.8766 60.6056L64.8767 60.6364ZM62.8313 67.3636L59.5306 65.104L59.5269 65.1095L62.8313 67.3636ZM57.2631 71.9773L58.9584 75.6002L58.9685 75.5955L57.2631 71.9773ZM54.5131 67.6136L52.8852 63.9599L52.8852 63.9599L54.5131 67.6136ZM58.0585 64.7273L54.7366 62.4991L54.7366 62.4991L58.0585 64.7273ZM59.3313 60.3636L63.3311 60.4L63.3314 60.3646L63.3311 60.3292L59.3313 60.3636ZM57.9676 55.7045L54.6337 57.9147L54.6337 57.9147L57.9676 55.7045ZM54.3085 52.5227L52.5055 56.0933L52.5126 56.0969L52.5197 56.1004L54.3085 52.5227ZM43.7403 52.5227L41.9654 48.9381L41.9584 48.9415L41.9515 48.945L43.7403 52.5227ZM40.0813 55.7045L36.7473 53.4944L36.7386 53.5075L36.7301 53.5206L40.0813 55.7045ZM38.7858 60.3636L42.7856 60.4L42.786 60.3646L42.7856 60.3292L38.7858 60.3636ZM39.9903 64.7273L36.6497 66.9272L36.659 66.9414L36.6684 66.9554L39.9903 64.7273ZM43.5585 67.6136L45.1731 63.954L43.5585 67.6136ZM53.4903 45.5455L51.6684 41.9845L51.66 41.9888L51.6515 41.9932L53.4903 45.5455ZM56.5585 42.75L59.9578 44.8584L59.9578 44.8584L56.5585 42.75ZM57.6949 38.5455L61.6947 38.5832L61.6951 38.5451L61.6947 38.507L57.6949 38.5455ZM56.5813 34.4318L53.1746 36.5282L53.1807 36.538L53.1868 36.5478L56.5813 34.4318ZM53.5585 31.7045L51.7529 35.2738L51.7697 35.2823L51.7866 35.2907L53.5585 31.7045ZM44.4903 31.7045L46.2457 35.2988L46.2625 35.2906L46.2792 35.2823L44.4903 31.7045ZM41.4676 34.4318L44.8818 36.5158L44.8878 36.5061L44.8937 36.4963L41.4676 34.4318ZM40.4222 38.5455L44.422 38.5832L44.4223 38.5451L44.422 38.507L40.4222 38.5455ZM41.4903 42.75L38.0719 44.827L38.0814 44.8428L38.0911 44.8584L41.4903 42.75ZM49.0585 69.6364C46.4115 69.6364 44.2437 69.1686 42.4635 68.3461L39.1081 75.6084C42.1157 76.998 45.4631 77.6364 49.0585 77.6364V69.6364ZM42.4912 68.359C40.6837 67.5071 39.4099 66.411 38.522 65.1095L31.9132 69.6178C33.692 72.2253 36.1303 74.205 39.0804 75.5955L42.4912 68.359ZM38.5301 65.1214C37.6761 63.8599 37.2297 62.4171 37.2403 60.6605L29.2404 60.6123C29.2207 63.886 30.0925 66.928 31.9052 69.6059L38.5301 65.1214ZM37.2402 60.6056C37.2294 59.1954 37.5023 57.9773 38.0157 56.8913L30.7831 53.4723C29.7208 55.7196 29.221 58.1379 29.2405 60.6671L37.2402 60.6056ZM38.0217 56.8787C38.5705 55.7071 39.2871 54.7905 40.1671 54.067L35.0863 47.8876C33.239 49.4064 31.8041 51.2929 30.7772 53.4849L38.0217 56.8787ZM40.1707 54.064C41.0393 53.3481 41.9483 52.9336 42.9435 52.7559L41.5372 44.8805C39.1384 45.3088 36.9716 46.3337 35.0827 47.8905L40.1707 54.064ZM46.2403 48.8182V48.5455H38.2403V48.8182H46.2403ZM43.2414 44.6728C41.9643 44.3426 41.0023 43.6738 40.2221 42.5349L33.6222 47.0561C35.4783 49.7656 38.0618 51.5968 41.2392 52.4182L43.2414 44.6728ZM40.2303 42.5469C39.3926 41.3144 38.9571 39.9114 38.9675 38.2064L30.9677 38.1573C30.9478 41.3916 31.8153 44.3977 33.614 47.044L40.2303 42.5469ZM38.9675 38.1562C38.9571 36.5235 39.3585 35.1868 40.1162 34.0218L33.4099 29.66C31.7434 32.2223 30.9479 35.1128 30.9677 38.2075L38.9675 38.1562ZM40.1162 34.0218C40.9178 32.7894 42.0333 31.7797 43.5723 30.9993L39.9539 23.8644C37.2504 25.2354 35.0326 27.1652 33.4099 29.66L40.1162 34.0218ZM43.5621 31.0044C45.0667 30.2468 46.868 29.8182 49.0585 29.8182V21.8182C45.7945 21.8182 42.7322 22.4653 39.9641 23.8592L43.5621 31.0044ZM49.0585 29.8182C51.2117 29.8182 52.9872 30.2439 54.4766 30.9993L58.095 23.8644C55.342 22.4682 52.2993 21.8182 49.0585 21.8182V29.8182ZM54.4766 30.9993C56.0155 31.7797 57.1311 32.7894 57.9326 34.0218L64.6389 29.66C63.0163 27.1652 60.7985 25.2354 58.095 23.8644L54.4766 30.9993ZM57.9451 34.0409C58.7214 35.2197 59.139 36.569 59.1495 38.2075L67.1494 38.1562C67.1296 35.0674 66.3047 32.1894 64.6265 29.6409L57.9451 34.0409ZM59.1495 38.1573C59.139 39.868 58.6871 41.2835 57.8305 42.5293L64.4229 47.0616C66.233 44.4286 67.1296 41.435 67.1494 38.2064L59.1495 38.1573ZM57.8268 42.5349C57.031 43.6965 56.0764 44.3558 54.8561 44.6779L56.8973 52.4131C60.0407 51.5836 62.586 49.7429 64.4267 47.0561L57.8268 42.5349ZM51.8767 48.5455V48.8182H59.8767V48.5455H51.8767ZM55.1674 52.7548C56.1378 52.9296 57.0135 53.3357 57.8446 54.036L62.9998 47.9185C61.1339 46.3462 58.9793 45.3128 56.586 44.8816L55.1674 52.7548ZM57.8648 54.053C58.7414 54.7819 59.4698 55.7116 60.0398 56.9053L67.2591 53.4583C66.223 51.2884 64.7999 49.4151 62.9795 47.9016L57.8648 54.053ZM60.0459 56.9181C60.5761 58.0184 60.8659 59.2492 60.8768 60.6671L68.8766 60.6056C68.8572 58.0841 68.3289 55.6786 67.253 53.4456L60.0459 56.9181ZM60.8768 60.6123C60.8662 62.3744 60.4033 63.8294 59.5306 65.104L66.1319 69.6233C67.9562 66.9585 68.8569 63.9287 68.8766 60.6605L60.8768 60.6123ZM59.5269 65.1095C58.639 66.411 57.3652 67.5071 55.5577 68.359L58.9685 75.5955C61.9185 74.205 64.3568 72.2253 66.1356 69.6178L59.5269 65.1095ZM55.5677 68.3543C53.8262 69.1693 51.6888 69.6364 49.0585 69.6364V77.6364C52.6404 77.6364 55.9727 76.9974 58.9584 75.6002L55.5677 68.3543ZM49.0585 72.6364C51.5859 72.6364 53.9846 72.2282 56.141 71.2674L52.8852 63.9599C51.981 64.3627 50.7433 64.6364 49.0585 64.6364V72.6364ZM56.141 71.2674C58.274 70.317 60.0789 68.8959 61.3805 66.9554L54.7366 62.4991C54.3714 63.0435 53.8128 63.5466 52.8852 63.9599L56.141 71.2674ZM61.3805 66.9554C62.6977 64.9916 63.3097 62.7554 63.3311 60.4L55.3314 60.3273C55.3225 61.3052 55.086 61.9781 54.7366 62.4991L61.3805 66.9554ZM63.3311 60.3292C63.3099 57.8669 62.6604 55.5441 61.3016 53.4944L54.6337 57.9147C55.0627 58.5619 55.3223 59.3452 55.3314 60.3981L63.3311 60.3292ZM61.3016 53.4944C59.9947 51.5231 58.2246 50.0086 56.0974 48.945L52.5197 56.1004C53.4834 56.5823 54.1526 57.1891 54.6337 57.9147L61.3016 53.4944ZM56.1115 48.9521C53.9441 47.8577 51.5609 47.3636 49.0585 47.3636V55.3636C50.4955 55.3636 51.6123 55.6423 52.5055 56.0933L56.1115 48.9521ZM49.0585 47.3636C46.5444 47.3636 44.1504 47.8562 41.9654 48.9381L45.5153 56.1074C46.4515 55.6438 47.6029 55.3636 49.0585 55.3636V47.3636ZM41.9515 48.945C39.8243 50.0086 38.0541 51.5231 36.7473 53.4944L43.4152 57.9147C43.8962 57.1891 44.5655 56.5823 45.5292 56.1004L41.9515 48.945ZM36.7301 53.5206C35.382 55.5892 34.7647 57.9289 34.7859 60.3981L42.7856 60.3292C42.7766 59.2832 43.0229 58.5168 43.4324 57.8885L36.7301 53.5206ZM34.786 60.3273C34.7645 62.6891 35.343 64.9431 36.6497 66.9272L43.331 62.5273C43.0013 62.0266 42.7768 61.3715 42.7856 60.4L34.786 60.3273ZM36.6684 66.9554C37.9765 68.9057 39.7973 70.3263 41.944 71.2733L45.1731 63.954C44.2288 63.5374 43.6708 63.0337 43.3123 62.4991L36.6684 66.9554ZM41.944 71.2733C44.1105 72.2291 46.5189 72.6364 49.0585 72.6364V64.6364C47.3557 64.6364 46.0975 64.3618 45.1731 63.954L41.944 71.2733ZM49.0585 50.5455C51.2691 50.5455 53.3934 50.0998 55.3292 49.0977L51.6515 41.9932C51.0115 42.3245 50.1813 42.5455 49.0585 42.5455V50.5455ZM55.3122 49.1064C57.2369 48.1218 58.8161 46.699 59.9578 44.8584L53.1593 40.6416C52.8161 41.195 52.3499 41.6358 51.6684 41.9845L55.3122 49.1064ZM59.9578 44.8584C61.1379 42.9557 61.6736 40.8165 61.6947 38.5832L53.6951 38.5077C53.6858 39.4865 53.464 40.1504 53.1593 40.6416L59.9578 44.8584ZM61.6947 38.507C61.6735 36.3059 61.146 34.1931 59.9757 32.3158L53.1868 36.5478C53.471 37.0038 53.6859 37.6335 53.6951 38.5839L61.6947 38.507ZM59.9879 32.3354C58.8522 30.49 57.2675 29.0755 55.3305 28.1184L51.7866 35.2907C52.4253 35.6063 52.8557 36.01 53.1746 36.5282L59.9879 32.3354ZM55.3642 28.1353C53.4213 27.1524 51.2818 26.7273 49.0585 26.7273V34.7273C50.2595 34.7273 51.12 34.9536 51.7529 35.2738L55.3642 28.1353ZM49.0585 26.7273C46.8157 26.7273 44.6586 27.1483 42.7015 28.1268L46.2792 35.2823C46.9281 34.9578 47.8165 34.7273 49.0585 34.7273V26.7273ZM42.735 28.1103C40.7764 29.0668 39.1723 30.4908 38.0415 32.3674L44.8937 36.4963C45.1872 36.0092 45.5982 35.615 46.2457 35.2988L42.735 28.1103ZM38.0534 32.3478C36.8947 34.2461 36.4011 36.3766 36.4223 38.5839L44.422 38.507C44.4129 37.5628 44.6163 36.9509 44.8818 36.5158L38.0534 32.3478ZM36.4223 38.5077C36.4012 40.7474 36.9034 42.9039 38.0719 44.827L44.9088 40.673C44.6228 40.2022 44.4128 39.5557 44.422 38.5832L36.4223 38.5077ZM38.0911 44.8584C39.2328 46.699 40.812 48.1218 42.7366 49.1064L46.3804 41.9845C45.699 41.6358 45.2328 41.195 44.8896 40.6416L38.0911 44.8584ZM42.7366 49.1064C44.6873 50.1045 46.8292 50.5455 49.0585 50.5455V42.5455C47.8939 42.5455 47.0358 42.3198 46.3804 41.9845L42.7366 49.1064Z" fill="#E50012" mask="url(#path-3-outside-1_26_88)"/>
</svg>
