<svg width="99" height="99" viewBox="0 0 99 99" fill="none" xmlns="http://www.w3.org/2000/svg">
<circle cx="49.5" cy="49.5" r="45.5" fill="white" stroke="#E50012" stroke-width="8"/>
<path d="M91 49.5C91 54.9499 89.9266 60.3464 87.841 65.3814C85.7554 70.4164 82.6986 74.9913 78.8449 78.8449C74.9913 82.6986 70.4164 85.7554 65.3814 87.841C60.3463 89.9266 54.9499 91 49.5 91C44.0501 91 38.6536 89.9266 33.6186 87.841C28.5836 85.7554 24.0087 82.6986 20.1551 78.8449C16.3014 74.9913 13.2446 70.4164 11.159 65.3814C9.07343 60.3463 8 54.9499 8 49.5L49.5 49.5H91Z" fill="#FF0707"/>
<mask id="path-3-outside-1_26_116" maskUnits="userSpaceOnUse" x="13" y="25" width="73" height="49" fill="black">
<rect fill="white" x="13" y="25" width="73" height="49"/>
<path d="M37.7862 29.2727V70H26.7294V39.4545H26.4908L17.5817 44.7841V35.3977L27.6044 29.2727H37.7862ZM46.8707 63.6364V55.0455L63.2571 29.2727H71.0525V40.7273H66.598L57.7685 54.7273V55.0455H81.9503V63.6364H46.8707ZM66.6775 70V61.0114L66.9162 57.2727V29.2727H77.2571V70H66.6775Z"/>
</mask>
<path d="M37.7862 29.2727V70H26.7294V39.4545H26.4908L17.5817 44.7841V35.3977L27.6044 29.2727H37.7862ZM46.8707 63.6364V55.0455L63.2571 29.2727H71.0525V40.7273H66.598L57.7685 54.7273V55.0455H81.9503V63.6364H46.8707ZM66.6775 70V61.0114L66.9162 57.2727V29.2727H77.2571V70H66.6775Z" fill="white"/>
<path d="M37.7862 29.2727H41.7862V25.2727H37.7862V29.2727ZM37.7862 70V74H41.7862V70H37.7862ZM26.7294 70H22.7294V74H26.7294V70ZM26.7294 39.4545H30.7294V35.4545H26.7294V39.4545ZM26.4908 39.4545V35.4545H25.3857L24.4373 36.0219L26.4908 39.4545ZM17.5817 44.7841H13.5817V51.838L19.6352 48.2168L17.5817 44.7841ZM17.5817 35.3977L15.4959 31.9846L13.5817 33.1544V35.3977H17.5817ZM27.6044 29.2727V25.2727H26.479L25.5186 25.8596L27.6044 29.2727ZM33.7862 29.2727V70H41.7862V29.2727H33.7862ZM37.7862 66H26.7294V74H37.7862V66ZM30.7294 70V39.4545H22.7294V70H30.7294ZM26.7294 35.4545H26.4908V43.4545H26.7294V35.4545ZM24.4373 36.0219L15.5282 41.3514L19.6352 48.2168L28.5443 42.8872L24.4373 36.0219ZM21.5817 44.7841V35.3977H13.5817V44.7841H21.5817ZM19.6675 38.8109L29.6902 32.6859L25.5186 25.8596L15.4959 31.9846L19.6675 38.8109ZM27.6044 33.2727H37.7862V25.2727H27.6044V33.2727ZM46.8707 63.6364H42.8707V67.6364H46.8707V63.6364ZM46.8707 55.0455L43.4952 52.8993L42.8707 53.8815V55.0455H46.8707ZM63.2571 29.2727V25.2727H61.0603L59.8816 27.1266L63.2571 29.2727ZM71.0525 29.2727H75.0525V25.2727H71.0525V29.2727ZM71.0525 40.7273V44.7273H75.0525V40.7273H71.0525ZM66.598 40.7273V36.7273H64.3916L63.2147 38.5935L66.598 40.7273ZM57.7685 54.7273L54.3851 52.5935L53.7685 53.5713V54.7273H57.7685ZM57.7685 55.0455H53.7685V59.0455H57.7685V55.0455ZM81.9503 55.0455H85.9503V51.0455H81.9503V55.0455ZM81.9503 63.6364V67.6364H85.9503V63.6364H81.9503ZM66.6775 70H62.6775V74H66.6775V70ZM66.6775 61.0114L62.6857 60.7566L62.6775 60.8838V61.0114H66.6775ZM66.9162 57.2727L70.9081 57.5275L70.9162 57.4003V57.2727H66.9162ZM66.9162 29.2727V25.2727H62.9162V29.2727H66.9162ZM77.2571 29.2727H81.2571V25.2727H77.2571V29.2727ZM77.2571 70V74H81.2571V70H77.2571ZM50.8707 63.6364V55.0455H42.8707V63.6364H50.8707ZM50.2462 57.1916L66.6326 31.4189L59.8816 27.1266L43.4952 52.8993L50.2462 57.1916ZM63.2571 33.2727H71.0525V25.2727H63.2571V33.2727ZM67.0525 29.2727V40.7273H75.0525V29.2727H67.0525ZM71.0525 36.7273H66.598V44.7273H71.0525V36.7273ZM63.2147 38.5935L54.3851 52.5935L61.1518 56.8611L69.9813 42.8611L63.2147 38.5935ZM53.7685 54.7273V55.0455H61.7685V54.7273H53.7685ZM57.7685 59.0455H81.9503V51.0455H57.7685V59.0455ZM77.9503 55.0455V63.6364H85.9503V55.0455H77.9503ZM81.9503 59.6364H46.8707V67.6364H81.9503V59.6364ZM70.6775 70V61.0114H62.6775V70H70.6775ZM70.6694 61.2662L70.9081 57.5275L62.9243 57.0179L62.6857 60.7566L70.6694 61.2662ZM70.9162 57.2727V29.2727H62.9162V57.2727H70.9162ZM66.9162 33.2727H77.2571V25.2727H66.9162V33.2727ZM73.2571 29.2727V70H81.2571V29.2727H73.2571ZM77.2571 66H66.6775V74H77.2571V66Z" fill="#E50012" mask="url(#path-3-outside-1_26_116)"/>
</svg>
