<svg width="99" height="99" viewBox="0 0 99 99" fill="none" xmlns="http://www.w3.org/2000/svg">
<circle cx="49.5" cy="49.5" r="45.5" fill="white" stroke="#E50012" stroke-width="8"/>
<path d="M91 49.5C91 54.9499 89.9266 60.3464 87.841 65.3814C85.7554 70.4164 82.6986 74.9913 78.8449 78.8449C74.9913 82.6986 70.4164 85.7554 65.3814 87.841C60.3463 89.9266 54.9499 91 49.5 91C44.0501 91 38.6536 89.9266 33.6186 87.841C28.5836 85.7554 24.0087 82.6986 20.1551 78.8449C16.3014 74.9913 13.2446 70.4164 11.159 65.3814C9.07343 60.3463 8 54.9499 8 49.5L49.5 49.5H91Z" fill="#FF0707"/>
<mask id="path-3-outside-1_26_111" maskUnits="userSpaceOnUse" x="14" y="24" width="71" height="51" fill="black">
<rect fill="white" x="14" y="24" width="71" height="51"/>
<path d="M38.5519 29.2727V70H27.495V39.4545H27.2564L18.3473 44.7841V35.3977L28.37 29.2727H38.5519ZM63.9432 70.5568C60.7348 70.5568 57.8845 70.0066 55.392 68.9062C52.9129 67.7926 50.964 66.2614 49.5454 64.3125C48.1269 62.3636 47.411 60.1231 47.3977 57.5909H58.5341C58.5473 58.3731 58.786 59.0758 59.25 59.6989C59.7273 60.3087 60.3769 60.786 61.1988 61.1307C62.0208 61.4754 62.9621 61.6477 64.0227 61.6477C65.0435 61.6477 65.9451 61.4687 66.7273 61.1108C67.5095 60.7396 68.1193 60.2292 68.5568 59.5795C68.9943 58.9299 69.2064 58.1875 69.1932 57.3523C69.2064 56.5303 68.9545 55.8011 68.4375 55.1648C67.9337 54.5284 67.2244 54.0312 66.3096 53.6733C65.3949 53.3153 64.3409 53.1364 63.1477 53.1364H59.0113V45.5H63.1477C64.2481 45.5 65.2159 45.321 66.0511 44.9631C66.8996 44.6051 67.5559 44.108 68.0199 43.4716C68.4971 42.8352 68.7292 42.1061 68.7159 41.2841C68.7292 40.4886 68.5369 39.786 68.1392 39.1761C67.7415 38.5663 67.1846 38.089 66.4687 37.7443C65.7661 37.3996 64.9507 37.2273 64.0227 37.2273C63.0151 37.2273 62.1136 37.4062 61.3182 37.7642C60.536 38.1222 59.9195 38.6193 59.4687 39.2557C59.018 39.892 58.786 40.6212 58.7727 41.4432H48.1932C48.2064 38.9508 48.8892 36.75 50.2415 34.8409C51.607 32.9318 53.4763 31.4337 55.8494 30.3466C58.2225 29.2595 60.947 28.7159 64.0227 28.7159C67.0322 28.7159 69.6903 29.2263 71.9971 30.2472C74.3172 31.268 76.1269 32.6733 77.4261 34.4631C78.7386 36.2396 79.3882 38.2746 79.375 40.5682C79.4015 42.8485 78.6193 44.7178 77.0284 46.1761C75.4507 47.6345 73.4488 48.4962 71.0227 48.7614V49.0795C74.3106 49.4375 76.7831 50.4451 78.4403 52.1023C80.0975 53.7462 80.9129 55.8144 80.8863 58.3068C80.8996 60.6932 80.1837 62.8078 78.7386 64.6506C77.3068 66.4934 75.3115 67.9384 72.7528 68.9858C70.2074 70.0331 67.2708 70.5568 63.9432 70.5568Z"/>
</mask>
<path d="M38.5519 29.2727V70H27.495V39.4545H27.2564L18.3473 44.7841V35.3977L28.37 29.2727H38.5519ZM63.9432 70.5568C60.7348 70.5568 57.8845 70.0066 55.392 68.9062C52.9129 67.7926 50.964 66.2614 49.5454 64.3125C48.1269 62.3636 47.411 60.1231 47.3977 57.5909H58.5341C58.5473 58.3731 58.786 59.0758 59.25 59.6989C59.7273 60.3087 60.3769 60.786 61.1988 61.1307C62.0208 61.4754 62.9621 61.6477 64.0227 61.6477C65.0435 61.6477 65.9451 61.4687 66.7273 61.1108C67.5095 60.7396 68.1193 60.2292 68.5568 59.5795C68.9943 58.9299 69.2064 58.1875 69.1932 57.3523C69.2064 56.5303 68.9545 55.8011 68.4375 55.1648C67.9337 54.5284 67.2244 54.0312 66.3096 53.6733C65.3949 53.3153 64.3409 53.1364 63.1477 53.1364H59.0113V45.5H63.1477C64.2481 45.5 65.2159 45.321 66.0511 44.9631C66.8996 44.6051 67.5559 44.108 68.0199 43.4716C68.4971 42.8352 68.7292 42.1061 68.7159 41.2841C68.7292 40.4886 68.5369 39.786 68.1392 39.1761C67.7415 38.5663 67.1846 38.089 66.4687 37.7443C65.7661 37.3996 64.9507 37.2273 64.0227 37.2273C63.0151 37.2273 62.1136 37.4062 61.3182 37.7642C60.536 38.1222 59.9195 38.6193 59.4687 39.2557C59.018 39.892 58.786 40.6212 58.7727 41.4432H48.1932C48.2064 38.9508 48.8892 36.75 50.2415 34.8409C51.607 32.9318 53.4763 31.4337 55.8494 30.3466C58.2225 29.2595 60.947 28.7159 64.0227 28.7159C67.0322 28.7159 69.6903 29.2263 71.9971 30.2472C74.3172 31.268 76.1269 32.6733 77.4261 34.4631C78.7386 36.2396 79.3882 38.2746 79.375 40.5682C79.4015 42.8485 78.6193 44.7178 77.0284 46.1761C75.4507 47.6345 73.4488 48.4962 71.0227 48.7614V49.0795C74.3106 49.4375 76.7831 50.4451 78.4403 52.1023C80.0975 53.7462 80.9129 55.8144 80.8863 58.3068C80.8996 60.6932 80.1837 62.8078 78.7386 64.6506C77.3068 66.4934 75.3115 67.9384 72.7528 68.9858C70.2074 70.0331 67.2708 70.5568 63.9432 70.5568Z" fill="white"/>
<path d="M38.5519 29.2727H42.5519V25.2727H38.5519V29.2727ZM38.5519 70V74H42.5519V70H38.5519ZM27.495 70H23.495V74H27.495V70ZM27.495 39.4545H31.495V35.4545H27.495V39.4545ZM27.2564 39.4545V35.4545H26.1513L25.2029 36.0219L27.2564 39.4545ZM18.3473 44.7841H14.3473V51.838L20.4008 48.2168L18.3473 44.7841ZM18.3473 35.3977L16.2615 31.9846L14.3473 33.1544V35.3977H18.3473ZM28.37 29.2727V25.2727H27.2446L26.2842 25.8596L28.37 29.2727ZM34.5519 29.2727V70H42.5519V29.2727H34.5519ZM38.5519 66H27.495V74H38.5519V66ZM31.495 70V39.4545H23.495V70H31.495ZM27.495 35.4545H27.2564V43.4545H27.495V35.4545ZM25.2029 36.0219L16.2938 41.3514L20.4008 48.2168L29.3099 42.8872L25.2029 36.0219ZM22.3473 44.7841V35.3977H14.3473V44.7841H22.3473ZM20.4331 38.8109L30.4558 32.6859L26.2842 25.8596L16.2615 31.9846L20.4331 38.8109ZM28.37 33.2727H38.5519V25.2727H28.37V33.2727ZM55.392 68.9062L53.753 72.555L53.7647 72.5603L53.7765 72.5655L55.392 68.9062ZM49.5454 64.3125L52.7794 61.9585L52.7794 61.9585L49.5454 64.3125ZM47.3977 57.5909V53.5909H43.3767L43.3978 57.6119L47.3977 57.5909ZM58.5341 57.5909L62.5335 57.5231L62.4669 53.5909H58.5341V57.5909ZM59.25 59.6989L56.0418 62.0879L56.0704 62.1264L56.1 62.1641L59.25 59.6989ZM61.1988 61.1307L59.6519 64.8195L59.6519 64.8195L61.1988 61.1307ZM66.7273 61.1108L68.3918 64.748L68.4171 64.7364L68.4422 64.7245L66.7273 61.1108ZM68.5568 59.5795L71.8746 61.8139L71.8746 61.8139L68.5568 59.5795ZM69.1932 57.3523L65.1937 57.2878L65.1927 57.3518L65.1937 57.4158L69.1932 57.3523ZM68.4375 55.1648L65.3013 57.6476L65.317 57.6675L65.333 57.6871L68.4375 55.1648ZM66.3096 53.6733L64.852 57.3983L66.3096 53.6733ZM59.0113 53.1364H55.0113V57.1364H59.0113V53.1364ZM59.0113 45.5V41.5H55.0113V45.5H59.0113ZM66.0511 44.9631L64.4963 41.2776L64.4859 41.282L64.4754 41.2865L66.0511 44.9631ZM68.0199 43.4716L64.8199 41.0716L64.8037 41.0931L64.7878 41.1149L68.0199 43.4716ZM68.7159 41.2841L64.7164 41.2174L64.7154 41.283L64.7164 41.3486L68.7159 41.2841ZM68.1392 39.1761L64.7887 41.3612L64.7887 41.3612L68.1392 39.1761ZM66.4687 37.7443L64.707 41.3355L64.7202 41.3419L64.7335 41.3483L66.4687 37.7443ZM61.3182 37.7642L59.6767 34.1165L59.6652 34.1217L59.6537 34.127L61.3182 37.7642ZM59.4687 39.2557L62.7328 41.5678L62.7328 41.5677L59.4687 39.2557ZM58.7727 41.4432V45.4432H62.7087L62.7722 41.5077L58.7727 41.4432ZM48.1932 41.4432L44.1932 41.4219L44.1718 45.4432H48.1932V41.4432ZM50.2415 34.8409L46.9881 32.5138L46.9827 32.5213L46.9774 32.5288L50.2415 34.8409ZM55.8494 30.3466L57.5153 33.9832L57.5153 33.9832L55.8494 30.3466ZM71.9971 30.2472L70.3784 33.905L70.3862 33.9084L71.9971 30.2472ZM77.4261 34.4631L74.1891 36.8129L74.199 36.8265L74.2089 36.84L77.4261 34.4631ZM79.375 40.5682L75.3751 40.5451L75.3748 40.5799L75.3753 40.6147L79.375 40.5682ZM77.0284 46.1761L74.3255 43.2275L74.3193 43.2332L74.3132 43.2388L77.0284 46.1761ZM71.0227 48.7614L70.5881 44.785L67.0227 45.1747V48.7614H71.0227ZM71.0227 49.0795H67.0227V52.6677L70.5898 53.056L71.0227 49.0795ZM78.4403 52.1023L75.6119 54.9307L75.6176 54.9364L75.6233 54.942L78.4403 52.1023ZM80.8863 58.3068L76.8866 58.2643L76.8862 58.2967L76.8864 58.329L80.8863 58.3068ZM78.7386 64.6506L75.591 62.1823L75.5855 62.1893L75.58 62.1964L78.7386 64.6506ZM72.7528 68.9858L71.2375 65.2839L71.2308 65.2867L72.7528 68.9858ZM63.9432 66.5568C61.1936 66.5568 58.9088 66.0864 57.0075 65.247L53.7765 72.5655C56.8601 73.9269 60.2761 74.5568 63.9432 74.5568V66.5568ZM57.0311 65.2575C55.1047 64.3921 53.738 63.2754 52.7794 61.9585L46.3114 66.6665C48.19 69.2474 50.7211 71.1931 53.753 72.555L57.0311 65.2575ZM52.7794 61.9585C51.8804 60.7233 51.4068 59.3085 51.3977 57.57L43.3978 57.6119C43.4152 60.9377 44.3734 64.0039 46.3114 66.6665L52.7794 61.9585ZM47.3977 61.5909H58.5341V53.5909H47.3977V61.5909ZM54.5346 57.6587C54.562 59.2721 55.0738 60.788 56.0418 62.0879L62.4582 57.3098C62.4639 57.3175 62.4893 57.3557 62.5105 57.4182C62.5202 57.4468 62.5264 57.4727 62.5299 57.4936C62.5334 57.5143 62.5335 57.5249 62.5335 57.5231L54.5346 57.6587ZM56.1 62.1641C57.0583 63.3886 58.296 64.2509 59.6519 64.8195L62.7458 57.4419C62.5957 57.379 62.5086 57.3239 62.4635 57.2907C62.4205 57.2591 62.4048 57.2398 62.4 57.2336L56.1 62.1641ZM59.6519 64.8195C61.0475 65.4047 62.5299 65.6477 64.0227 65.6477V57.6477C63.3943 57.6477 62.9941 57.5461 62.7458 57.4419L59.6519 64.8195ZM64.0227 65.6477C65.5121 65.6477 66.9988 65.3855 68.3918 64.748L65.0628 57.4736C64.8913 57.552 64.575 57.6477 64.0227 57.6477V65.6477ZM68.4422 64.7245C69.8024 64.079 70.9948 63.1202 71.8746 61.8139L65.2391 57.3451C65.2333 57.3536 65.2254 57.3643 65.204 57.3822C65.1808 57.4016 65.1242 57.444 65.0123 57.4971L68.4422 64.7245ZM71.8746 61.8139C72.7999 60.4399 73.218 58.8842 73.1927 57.2888L65.1937 57.4158C65.1941 57.4456 65.1924 57.4599 65.1923 57.4611C65.1922 57.4619 65.1933 57.4529 65.1979 57.4366C65.2026 57.4202 65.2093 57.4018 65.2179 57.3834C65.2265 57.365 65.2344 57.352 65.2391 57.3451L71.8746 61.8139ZM73.1926 57.4168C73.221 55.6568 72.654 54.0111 71.5419 52.6424L65.333 57.6871C65.3154 57.6655 65.2695 57.5994 65.2334 57.495C65.1974 57.3908 65.1933 57.3121 65.1937 57.2878L73.1926 57.4168ZM71.5737 52.682C70.5462 51.3841 69.2031 50.5102 67.7672 49.9483L64.852 57.3983C65.2458 57.5523 65.3212 57.6727 65.3013 57.6476L71.5737 52.682ZM67.7672 49.9483C66.3001 49.3742 64.7356 49.1364 63.1477 49.1364V57.1364C63.9462 57.1364 64.4897 57.2565 64.852 57.3983L67.7672 49.9483ZM63.1477 49.1364H59.0113V57.1364H63.1477V49.1364ZM63.0113 53.1364V45.5H55.0113V53.1364H63.0113ZM59.0113 49.5H63.1477V41.5H59.0113V49.5ZM63.1477 49.5C64.6781 49.5 66.2004 49.251 67.6268 48.6396L64.4754 41.2865C64.2314 41.3911 63.8181 41.5 63.1477 41.5V49.5ZM67.6059 48.6485C69.009 48.0566 70.292 47.1447 71.2519 45.8283L64.7878 41.1149C64.7962 41.1034 64.7952 41.1099 64.7642 41.1334C64.7304 41.159 64.6498 41.2129 64.4963 41.2776L67.6059 48.6485ZM71.2199 45.8716C72.2486 44.5 72.7424 42.897 72.7154 41.2196L64.7164 41.3486C64.7166 41.3587 64.7154 41.3125 64.7401 41.2346C64.7654 41.1552 64.8003 41.0977 64.8199 41.0716L71.2199 45.8716ZM72.7153 41.3507C72.7406 39.8341 72.3641 38.3319 71.4896 36.9911L64.7887 41.3612C64.7762 41.342 64.7629 41.3182 64.7506 41.2909C64.7383 41.2635 64.7294 41.2378 64.7234 41.2161C64.7108 41.1699 64.7173 41.164 64.7164 41.2174L72.7153 41.3507ZM71.4896 36.9911C70.657 35.7144 69.5156 34.7718 68.204 34.1403L64.7335 41.3483C64.7698 41.3658 64.793 41.3796 64.8057 41.3879C64.8183 41.396 64.8222 41.3996 64.8201 41.3978C64.8179 41.3959 64.8123 41.3908 64.8053 41.3828C64.7983 41.3748 64.7926 41.3671 64.7887 41.3612L71.4896 36.9911ZM68.2304 34.1532C66.8867 33.4939 65.4489 33.2273 64.0227 33.2273V41.2273C64.4525 41.2273 64.6455 41.3053 64.707 41.3355L68.2304 34.1532ZM64.0227 33.2273C62.5365 33.2273 61.0623 33.493 59.6767 34.1165L62.9596 41.4119C63.1649 41.3195 63.4938 41.2273 64.0227 41.2273V33.2273ZM59.6537 34.127C58.2987 34.7471 57.1036 35.6744 56.2046 36.9436L62.7328 41.5677C62.7354 41.5642 62.7733 41.4973 62.9827 41.4014L59.6537 34.127ZM56.2046 36.9436C55.2618 38.2746 54.7987 39.7967 54.7732 41.3787L62.7722 41.5077C62.7726 41.4811 62.7746 41.4689 62.7746 41.4688C62.7746 41.4686 62.7743 41.4709 62.7732 41.4752C62.7722 41.4796 62.7706 41.4855 62.7684 41.4926C62.7636 41.5077 62.7571 41.5238 62.7494 41.5392C62.7417 41.5545 62.7353 41.5643 62.7328 41.5678L56.2046 36.9436ZM58.7727 37.4432H48.1932V45.4432H58.7727V37.4432ZM52.1931 41.4645C52.2023 39.7363 52.6596 38.3473 53.5056 37.153L46.9774 32.5288C45.1188 35.1527 44.2105 38.1652 44.1932 41.4219L52.1931 41.4645ZM53.4949 37.168C54.4103 35.8881 55.7038 34.813 57.5153 33.9832L54.1835 26.71C51.2488 28.0544 48.8036 29.9755 46.9881 32.5138L53.4949 37.168ZM57.5153 33.9832C59.2807 33.1744 61.4205 32.7159 64.0227 32.7159V24.7159C60.4734 24.7159 57.1643 25.3445 54.1835 26.71L57.5153 33.9832ZM64.0227 32.7159C66.5805 32.7159 68.6701 33.149 70.3784 33.905L73.6158 26.5893C70.7106 25.3036 67.4838 24.7159 64.0227 24.7159V32.7159ZM70.3862 33.9084C72.1539 34.6862 73.3639 35.6761 74.1891 36.8129L80.6631 32.1132C78.8899 29.6705 76.4805 27.8498 73.6081 26.5859L70.3862 33.9084ZM74.2089 36.84C74.9876 37.8939 75.3835 39.0795 75.3751 40.5451L83.3749 40.5913C83.393 37.4698 82.4897 34.5853 80.6433 32.0862L74.2089 36.84ZM75.3753 40.6147C75.3894 41.8305 75.0257 42.5857 74.3255 43.2275L79.7313 49.1248C82.2129 46.8499 83.4136 43.8664 83.3747 40.5217L75.3753 40.6147ZM74.3132 43.2388C73.4487 44.038 72.2834 44.5998 70.5881 44.785L71.4573 52.7377C74.6143 52.3927 77.4528 51.231 79.7436 49.1135L74.3132 43.2388ZM67.0227 48.7614V49.0795H75.0227V48.7614H67.0227ZM70.5898 53.056C73.3372 53.3552 74.8183 54.1371 75.6119 54.9307L81.2688 49.2738C78.748 46.7531 75.284 45.5198 71.4556 45.103L70.5898 53.056ZM75.6233 54.942C76.4568 55.7689 76.9025 56.7714 76.8866 58.2643L84.8861 58.3494C84.9233 54.8574 83.7382 51.7235 81.2574 49.2625L75.6233 54.942ZM76.8864 58.329C76.8948 59.8315 76.4677 61.0642 75.591 62.1823L81.8863 67.1189C83.8997 64.5513 84.9045 61.5549 84.8863 58.2846L76.8864 58.329ZM75.58 62.1964C74.6506 63.3925 73.2689 64.4524 71.2375 65.2839L74.2681 72.6877C77.3541 71.4245 79.963 69.5942 81.8973 67.1048L75.58 62.1964ZM71.2308 65.2867C69.2577 66.0985 66.8552 66.5568 63.9432 66.5568V74.5568C67.6865 74.5568 71.157 73.9678 74.2749 72.6849L71.2308 65.2867Z" fill="#E50012" mask="url(#path-3-outside-1_26_111)"/>
</svg>
