<svg width="99" height="99" viewBox="0 0 99 99" fill="none" xmlns="http://www.w3.org/2000/svg">
<circle cx="49.5" cy="49.5" r="45.5" fill="white" stroke="#E50012" stroke-width="8"/>
<path d="M91 49.5C91 54.9499 89.9266 60.3464 87.841 65.3814C85.7554 70.4164 82.6986 74.9913 78.8449 78.8449C74.9913 82.6986 70.4164 85.7554 65.3814 87.841C60.3463 89.9266 54.9499 91 49.5 91C44.0501 91 38.6536 89.9266 33.6186 87.841C28.5836 85.7554 24.0087 82.6986 20.1551 78.8449C16.3014 74.9913 13.2446 70.4164 11.159 65.3814C9.07343 60.3463 8 54.9499 8 49.5L49.5 49.5H91Z" fill="#FF0707"/>
<mask id="path-3-outside-1_26_92" maskUnits="userSpaceOnUse" x="25" y="21" width="48" height="57" fill="black">
<rect fill="white" x="25" y="21" width="48" height="57"/>
<path d="M48.4165 25.8182C51.1286 25.8182 53.6968 26.25 56.121 27.1136C58.5453 27.9621 60.6892 29.303 62.5528 31.1364C64.4316 32.9697 65.9013 35.3636 66.9619 38.3182C68.0377 41.2576 68.5831 44.8182 68.5983 49C68.6135 52.8182 68.1362 56.25 67.1665 59.2955C66.2119 62.3258 64.8407 64.9091 63.0528 67.0455C61.2801 69.1818 59.1438 70.8182 56.6438 71.9545C54.1589 73.0758 51.3862 73.6364 48.3256 73.6364C44.8862 73.6364 41.8634 72.9773 39.2574 71.6591C36.6513 70.3409 34.5756 68.5682 33.0301 66.3409C31.4847 64.1136 30.5831 61.6364 30.3256 58.9091H42.7801C43.0831 60.3182 43.7498 61.3409 44.7801 61.9773C45.8104 62.5985 46.9922 62.9091 48.3256 62.9091C50.9922 62.9091 52.9392 61.7576 54.1665 59.4545C55.4089 57.1364 56.0377 54.0455 56.0528 50.1818H55.7801C55.1892 51.6061 54.2953 52.8258 53.0983 53.8409C51.9013 54.8561 50.5074 55.6364 48.9165 56.1818C47.3256 56.7273 45.6438 57 43.871 57C41.068 57 38.6134 56.3712 36.5074 55.1136C34.4013 53.8409 32.7574 52.1061 31.5756 49.9091C30.3938 47.697 29.7953 45.1818 29.7801 42.3636C29.765 39.0606 30.5453 36.1667 32.121 33.6818C33.6968 31.197 35.8862 29.2652 38.6892 27.8864C41.4922 26.5076 44.7347 25.8182 48.4165 25.8182ZM48.5074 35.3636C47.2498 35.3636 46.1286 35.6515 45.1438 36.2273C44.1741 36.803 43.4089 37.5833 42.8483 38.5682C42.3028 39.553 42.0377 40.6667 42.0528 41.9091C42.068 43.1515 42.3483 44.2652 42.8938 45.25C43.4544 46.2348 44.2119 47.0152 45.1665 47.5909C46.1362 48.1667 47.2498 48.4545 48.5074 48.4545C49.4316 48.4545 50.2877 48.2955 51.0756 47.9773C51.8634 47.6439 52.5453 47.1818 53.121 46.5909C53.7119 45.9848 54.1665 45.2879 54.4847 44.5C54.818 43.697 54.9771 42.8333 54.9619 41.9091C54.9468 40.6667 54.6589 39.553 54.0983 38.5682C53.5377 37.5833 52.7725 36.803 51.8028 36.2273C50.8331 35.6515 49.7347 35.3636 48.5074 35.3636Z"/>
</mask>
<path d="M48.4165 25.8182C51.1286 25.8182 53.6968 26.25 56.121 27.1136C58.5453 27.9621 60.6892 29.303 62.5528 31.1364C64.4316 32.9697 65.9013 35.3636 66.9619 38.3182C68.0377 41.2576 68.5831 44.8182 68.5983 49C68.6135 52.8182 68.1362 56.25 67.1665 59.2955C66.2119 62.3258 64.8407 64.9091 63.0528 67.0455C61.2801 69.1818 59.1438 70.8182 56.6438 71.9545C54.1589 73.0758 51.3862 73.6364 48.3256 73.6364C44.8862 73.6364 41.8634 72.9773 39.2574 71.6591C36.6513 70.3409 34.5756 68.5682 33.0301 66.3409C31.4847 64.1136 30.5831 61.6364 30.3256 58.9091H42.7801C43.0831 60.3182 43.7498 61.3409 44.7801 61.9773C45.8104 62.5985 46.9922 62.9091 48.3256 62.9091C50.9922 62.9091 52.9392 61.7576 54.1665 59.4545C55.4089 57.1364 56.0377 54.0455 56.0528 50.1818H55.7801C55.1892 51.6061 54.2953 52.8258 53.0983 53.8409C51.9013 54.8561 50.5074 55.6364 48.9165 56.1818C47.3256 56.7273 45.6438 57 43.871 57C41.068 57 38.6134 56.3712 36.5074 55.1136C34.4013 53.8409 32.7574 52.1061 31.5756 49.9091C30.3938 47.697 29.7953 45.1818 29.7801 42.3636C29.765 39.0606 30.5453 36.1667 32.121 33.6818C33.6968 31.197 35.8862 29.2652 38.6892 27.8864C41.4922 26.5076 44.7347 25.8182 48.4165 25.8182ZM48.5074 35.3636C47.2498 35.3636 46.1286 35.6515 45.1438 36.2273C44.1741 36.803 43.4089 37.5833 42.8483 38.5682C42.3028 39.553 42.0377 40.6667 42.0528 41.9091C42.068 43.1515 42.3483 44.2652 42.8938 45.25C43.4544 46.2348 44.2119 47.0152 45.1665 47.5909C46.1362 48.1667 47.2498 48.4545 48.5074 48.4545C49.4316 48.4545 50.2877 48.2955 51.0756 47.9773C51.8634 47.6439 52.5453 47.1818 53.121 46.5909C53.7119 45.9848 54.1665 45.2879 54.4847 44.5C54.818 43.697 54.9771 42.8333 54.9619 41.9091C54.9468 40.6667 54.6589 39.553 54.0983 38.5682C53.5377 37.5833 52.7725 36.803 51.8028 36.2273C50.8331 35.6515 49.7347 35.3636 48.5074 35.3636Z" fill="white"/>
<path d="M56.121 27.1136L54.7787 30.8817L54.7891 30.8854L54.7996 30.8891L56.121 27.1136ZM62.5528 31.1364L59.7477 33.9879L59.7535 33.9936L59.7593 33.9992L62.5528 31.1364ZM66.9619 38.3182L63.1972 39.6696L63.2013 39.6813L63.2056 39.6929L66.9619 38.3182ZM68.5983 49L64.5983 49.0145L64.5983 49.0159L68.5983 49ZM67.1665 59.2955L63.355 58.0818L63.3513 58.0937L67.1665 59.2955ZM63.0528 67.0455L59.9853 64.4783L59.9799 64.4847L59.9746 64.4912L63.0528 67.0455ZM56.6438 71.9545L58.2889 75.6006L58.299 75.596L56.6438 71.9545ZM39.2574 71.6591L37.452 75.2285L39.2574 71.6591ZM30.3256 58.9091V54.9091H25.93L26.3433 59.2852L30.3256 58.9091ZM42.7801 58.9091L46.6907 58.0681L46.0114 54.9091H42.7801V58.9091ZM44.7801 61.9773L42.6781 65.3805L42.6964 65.3917L42.7147 65.4028L44.7801 61.9773ZM54.1665 59.4545L50.6409 57.565L50.6364 57.5734L54.1665 59.4545ZM56.0528 50.1818L60.0528 50.1975L60.0686 46.1818H56.0528V50.1818ZM55.7801 50.1818V46.1818H53.1091L52.0855 48.6489L55.7801 50.1818ZM53.0983 53.8409L50.5111 50.7903L50.5111 50.7903L53.0983 53.8409ZM36.5074 55.1136L34.4385 58.5371L34.4476 58.5425L34.4567 58.548L36.5074 55.1136ZM31.5756 49.9091L28.0475 51.794L28.0529 51.804L31.5756 49.9091ZM29.7801 42.3636L25.7802 42.382L25.7802 42.3851L29.7801 42.3636ZM32.121 33.6818L28.743 31.5396L32.121 33.6818ZM38.6892 27.8864L40.4547 31.4756L40.4547 31.4756L38.6892 27.8864ZM45.1438 36.2273L43.125 32.7741L43.1133 32.7809L43.1016 32.7879L45.1438 36.2273ZM42.8483 38.5682L39.372 36.5894L39.3605 36.6097L39.3491 36.6302L42.8483 38.5682ZM42.0528 41.9091L38.0531 41.9579L38.0531 41.9579L42.0528 41.9091ZM42.8938 45.25L39.3946 47.188L39.4059 47.2085L39.4175 47.2288L42.8938 45.25ZM45.1665 47.5909L43.1005 51.0161L43.1124 51.0232L43.1243 51.0303L45.1665 47.5909ZM51.0756 47.9773L52.5734 51.6862L52.6039 51.6739L52.6341 51.6611L51.0756 47.9773ZM53.121 46.5909L50.257 43.7985L50.2561 43.7995L53.121 46.5909ZM54.4847 44.5L50.7903 42.9665L50.7829 42.9843L50.7757 43.0021L54.4847 44.5ZM54.9619 41.9091L50.9622 41.9579L50.9623 41.9663L50.9625 41.9747L54.9619 41.9091ZM54.0983 38.5682L50.622 40.547L50.622 40.547L54.0983 38.5682ZM48.4165 29.8182C50.696 29.8182 52.8081 30.1797 54.7787 30.8817L57.4634 23.3456C54.5854 22.3203 51.5612 21.8182 48.4165 21.8182V29.8182ZM54.7996 30.8891C56.6571 31.5392 58.2967 32.5605 59.7477 33.9879L65.358 28.2848C63.0817 26.0455 60.4335 24.3851 57.4424 23.3382L54.7996 30.8891ZM59.7593 33.9992C61.127 35.3339 62.3018 37.1754 63.1972 39.6696L70.7267 36.9667C69.5009 33.5518 67.7363 30.6055 65.3464 28.2735L59.7593 33.9992ZM63.2056 39.6929C64.0783 42.0775 64.5843 45.1504 64.5983 49.0145L72.5983 48.9855C72.582 44.4859 71.9971 40.4377 70.7183 36.9434L63.2056 39.6929ZM64.5983 49.0159C64.6121 52.4956 64.1763 55.5025 63.355 58.0819L70.9779 60.5091C72.096 56.9975 72.6148 53.1408 72.5983 48.9841L64.5983 49.0159ZM63.3513 58.0937C62.5322 60.694 61.393 62.7962 59.9853 64.4783L66.1204 69.6126C68.2884 67.022 69.8917 63.9575 70.9817 60.4972L63.3513 58.0937ZM59.9746 64.4912C58.5836 66.1675 56.9319 67.4297 54.9885 68.3131L58.299 75.596C61.3556 74.2066 63.9766 72.1961 66.1311 69.5997L59.9746 64.4912ZM54.9986 68.3085C53.0909 69.1693 50.8887 69.6364 48.3256 69.6364V77.6364C51.8836 77.6364 55.2269 76.9822 58.2889 75.6006L54.9986 68.3085ZM48.3256 69.6364C45.4024 69.6364 43.0178 69.0786 41.0628 68.0897L37.452 75.2285C40.7091 76.8759 44.37 77.6364 48.3256 77.6364V69.6364ZM41.0628 68.0897C39.0027 67.0477 37.454 65.7 36.3165 64.0606L29.7438 68.6212C31.6971 71.4363 34.2999 73.6341 37.452 75.2285L41.0628 68.0897ZM36.3165 64.0606C35.167 62.4039 34.5015 60.5838 34.3078 58.533L26.3433 59.2852C26.6648 62.6889 27.8024 65.8233 29.7438 68.6212L36.3165 64.0606ZM30.3256 62.9091H42.7801V54.9091H30.3256V62.9091ZM38.8695 59.7501C39.3545 62.0051 40.5468 64.0641 42.6781 65.3805L46.8821 58.5741C46.8701 58.5667 46.869 58.5645 46.8719 58.5674C46.8747 58.5702 46.87 58.5665 46.8583 58.5486C46.8356 58.5138 46.7576 58.379 46.6907 58.0681L38.8695 59.7501ZM42.7147 65.4028C44.4344 66.4396 46.3454 66.9091 48.3256 66.9091V58.9091C47.6391 58.9091 47.1865 58.7573 46.8455 58.5518L42.7147 65.4028ZM48.3256 66.9091C50.246 66.9091 52.1295 66.4894 53.8221 65.4884C55.5194 64.4845 56.7917 63.0337 57.6965 61.3357L50.6364 57.5734C50.314 58.1785 49.9992 58.4549 49.7495 58.6025C49.4952 58.753 49.0718 58.9091 48.3256 58.9091V66.9091ZM57.6921 61.3441C59.3544 58.2423 60.0362 54.4308 60.0528 50.1975L52.0529 50.1661C52.0392 53.6601 51.4634 56.0304 50.6409 57.565L57.6921 61.3441ZM56.0528 46.1818H55.7801V54.1818H56.0528V46.1818ZM52.0855 48.6489C51.7425 49.4757 51.2326 50.1783 50.5111 50.7903L55.6855 56.8915C57.3579 55.4732 58.636 53.7364 59.4747 51.7147L52.0855 48.6489ZM50.5111 50.7903C49.7211 51.4603 48.7722 52.0027 47.6192 52.398L50.2138 59.9656C52.2426 59.27 54.0815 58.2519 55.6855 56.8915L50.5111 50.7903ZM47.6192 52.398C46.468 52.7927 45.2264 53 43.871 53V61C46.0611 61 48.1832 60.6618 50.2138 59.9656L47.6192 52.398ZM43.871 53C41.6851 53 39.9598 52.5163 38.5581 51.6793L34.4567 58.548C37.2671 60.2261 40.4509 61 43.871 61V53ZM38.5762 51.6902C37.0916 50.793 35.9459 49.5898 35.0982 48.0141L28.0529 51.804C29.5689 54.6223 31.711 56.8888 34.4385 58.5371L38.5762 51.6902ZM35.1036 48.0242C34.2645 46.4535 33.7922 44.5916 33.7801 42.3421L25.7802 42.3851C25.7984 45.7721 26.523 48.9405 28.0475 51.794L35.1036 48.0242ZM33.7801 42.3453C33.768 39.7104 34.3818 37.5859 35.4991 35.824L28.743 31.5396C26.7088 34.7475 25.7619 38.4108 25.7802 42.382L33.7801 42.3453ZM35.4991 35.824C36.6561 33.9994 38.2696 32.5505 40.4547 31.4756L36.9237 24.2971C33.5027 25.9798 30.7375 28.3945 28.743 31.5396L35.4991 35.824ZM40.4547 31.4756C42.6186 30.4113 45.2381 29.8182 48.4165 29.8182V21.8182C44.2312 21.8182 40.3659 22.6039 36.9237 24.2971L40.4547 31.4756ZM48.5074 31.3636C46.6149 31.3636 44.7837 31.8044 43.125 32.7741L47.1625 39.6805C47.4735 39.4987 47.8847 39.3636 48.5074 39.3636V31.3636ZM43.1016 32.7879C41.5322 33.7197 40.2741 35.0046 39.372 36.5894L46.3246 40.547C46.5437 40.1621 46.8159 39.8864 47.1859 39.6667L43.1016 32.7879ZM39.3491 36.6302C38.4331 38.2841 38.0304 40.0948 38.0531 41.9579L46.0525 41.8603C46.045 41.2386 46.1725 40.822 46.3475 40.5062L39.3491 36.6302ZM38.0531 41.9579C38.0755 43.7918 38.4964 45.5662 39.3946 47.188L46.3929 43.312C46.2002 42.9641 46.0605 42.5112 46.0525 41.8603L38.0531 41.9579ZM39.4175 47.2288C40.3108 48.7982 41.5498 50.0807 43.1005 51.0161L47.2325 44.1657C46.8741 43.9496 46.5979 43.6715 46.37 43.2712L39.4175 47.2288ZM43.1243 51.0303C44.7811 52.0141 46.616 52.4545 48.5074 52.4545V44.4545C47.8837 44.4545 47.4912 44.3193 47.2086 44.1515L43.1243 51.0303ZM48.5074 52.4545C49.8997 52.4545 51.2693 52.2129 52.5734 51.6862L49.5777 44.2683C49.3061 44.378 48.9636 44.4545 48.5074 44.4545V52.4545ZM52.6341 51.6611C53.894 51.1281 55.0247 50.3689 55.9859 49.3824L50.2561 43.7995C50.0658 43.9948 49.8329 44.1598 49.517 44.2934L52.6341 51.6611ZM55.985 49.3833C56.9405 48.4033 57.6814 47.2662 58.1936 45.9979L50.7757 43.0021C50.6515 43.3096 50.4833 43.5664 50.257 43.7985L55.985 49.3833ZM58.179 46.0335C58.7357 44.6925 58.985 43.2809 58.9614 41.8435L50.9625 41.9747C50.9692 42.3858 50.9003 42.7014 50.7903 42.9665L58.179 46.0335ZM58.9616 41.8603C58.939 40.0075 58.5019 38.2184 57.5746 36.5894L50.622 40.547C50.816 40.8876 50.9545 41.3258 50.9622 41.9579L58.9616 41.8603ZM57.5746 36.5894C56.6724 35.0046 55.4144 33.7197 53.845 32.7879L49.7607 39.6667C50.1307 39.8864 50.4029 40.1621 50.622 40.547L57.5746 36.5894ZM53.845 32.7879C52.2033 31.8131 50.3879 31.3636 48.5074 31.3636V39.3636C49.0815 39.3636 49.463 39.4899 49.7607 39.6667L53.845 32.7879Z" fill="#E50012" mask="url(#path-3-outside-1_26_92)"/>
</svg>
