<svg width="99" height="99" viewBox="0 0 99 99" fill="none" xmlns="http://www.w3.org/2000/svg">
<circle cx="49.5" cy="49.5" r="45.5" fill="white" stroke="#E50012" stroke-width="8"/>
<path d="M91 49.5C91 54.9499 89.9266 60.3464 87.841 65.3814C85.7554 70.4164 82.6986 74.9913 78.8449 78.8449C74.9913 82.6986 70.4164 85.7554 65.3814 87.841C60.3463 89.9266 54.9499 91 49.5 91C44.0501 91 38.6536 89.9266 33.6186 87.841C28.5836 85.7554 24.0087 82.6986 20.1551 78.8449C16.3014 74.9913 13.2446 70.4164 11.159 65.3814C9.07343 60.3463 8 54.9499 8 49.5L49.5 49.5H91Z" fill="#FF0707"/>
<mask id="path-3-outside-1_26_84" maskUnits="userSpaceOnUse" x="27" y="22" width="44" height="55" fill="black">
<rect fill="white" x="27" y="22" width="44" height="55"/>
<path d="M34.7006 73L52.9733 36.8182V36.5455H31.5188V26.4545H66.0642V36.5455L47.7006 73H34.7006Z"/>
</mask>
<path d="M34.7006 73L52.9733 36.8182V36.5455H31.5188V26.4545H66.0642V36.5455L47.7006 73H34.7006Z" fill="white"/>
<path d="M34.7006 73L31.1301 71.1968L28.1993 77H34.7006V73ZM52.9733 36.8182L56.5438 38.6214L56.9733 37.7709V36.8182H52.9733ZM52.9733 36.5455H56.9733V32.5455H52.9733V36.5455ZM31.5188 36.5455H27.5188V40.5455H31.5188V36.5455ZM31.5188 26.4545V22.4545H27.5188V26.4545H31.5188ZM66.0642 26.4545H70.0642V22.4545H66.0642V26.4545ZM66.0642 36.5455L69.6366 38.345L70.0642 37.496V36.5455H66.0642ZM47.7006 73V77H50.1645L51.2729 74.7995L47.7006 73ZM38.2711 74.8032L56.5438 38.6214L49.4028 35.015L31.1301 71.1968L38.2711 74.8032ZM56.9733 36.8182V36.5455H48.9733V36.8182H56.9733ZM52.9733 32.5455H31.5188V40.5455H52.9733V32.5455ZM35.5188 36.5455V26.4545H27.5188V36.5455H35.5188ZM31.5188 30.4545H66.0642V22.4545H31.5188V30.4545ZM62.0642 26.4545V36.5455H70.0642V26.4545H62.0642ZM62.4919 34.7459L44.1282 71.2005L51.2729 74.7995L69.6366 38.345L62.4919 34.7459ZM47.7006 69H34.7006V77H47.7006V69Z" fill="#E50012" mask="url(#path-3-outside-1_26_84)"/>
</svg>
