<svg width="99" height="99" viewBox="0 0 99 99" fill="none" xmlns="http://www.w3.org/2000/svg">
<circle cx="49.5" cy="49.5" r="45.5" fill="white" stroke="#E50012" stroke-width="8"/>
<path d="M91 49.5C91 54.9499 89.9266 60.3464 87.841 65.3814C85.7554 70.4164 82.6986 74.9913 78.8449 78.8449C74.9913 82.6986 70.4164 85.7554 65.3814 87.841C60.3463 89.9266 54.9499 91 49.5 91C44.0501 91 38.6536 89.9266 33.6186 87.841C28.5836 85.7554 24.0087 82.6986 20.1551 78.8449C16.3014 74.9913 13.2446 70.4164 11.159 65.3814C9.07343 60.3463 8 54.9499 8 49.5L49.5 49.5H91Z" fill="#FF0707"/>
<mask id="path-3-outside-1_26_80" maskUnits="userSpaceOnUse" x="25" y="21" width="48" height="57" fill="black">
<rect fill="white" x="25" y="21" width="48" height="57"/>
<path d="M49.6892 73.6364C46.9771 73.6364 44.4013 73.2121 41.9619 72.3636C39.5377 71.5 37.3862 70.1439 35.5074 68.2955C33.6286 66.447 32.1513 64.0379 31.0756 61.0682C30.015 58.0985 29.4922 54.5 29.5074 50.2727C29.5225 46.5 30.0074 43.1061 30.9619 40.0909C31.9316 37.0758 33.3028 34.5076 35.0756 32.3864C36.8634 30.2652 38.9998 28.6439 41.4847 27.5227C43.9695 26.3864 46.7347 25.8182 49.7801 25.8182C53.2044 25.8182 56.2195 26.4773 58.8256 27.7955C61.4316 29.1136 63.5074 30.8788 65.0528 33.0909C66.6134 35.2879 67.5225 37.7121 67.7801 40.3636H55.3256C55.0377 39.0455 54.371 38.0833 53.3256 37.4773C52.2953 36.8561 51.1134 36.5455 49.7801 36.5455C47.1286 36.5455 45.1816 37.697 43.9392 40C42.7119 42.303 42.0831 45.3333 42.0528 49.0909H42.3256C42.9165 47.6667 43.8104 46.447 45.0074 45.4318C46.2044 44.4167 47.5983 43.6364 49.1892 43.0909C50.7801 42.5455 52.4619 42.2727 54.2347 42.2727C57.0528 42.2727 59.515 42.9091 61.621 44.1818C63.7422 45.4545 65.3938 47.197 66.5756 49.4091C67.7574 51.6212 68.3407 54.1515 68.3256 57C68.3407 60.3333 67.5528 63.25 65.9619 65.75C64.3862 68.25 62.1968 70.1894 59.3938 71.5682C56.5907 72.947 53.3559 73.6364 49.6892 73.6364ZM49.5983 64.0909C50.8559 64.0909 51.9695 63.803 52.9392 63.2273C53.9241 62.6515 54.6892 61.8636 55.2347 60.8636C55.7953 59.8636 56.068 58.7273 56.0528 57.4545C56.068 56.1667 55.7953 55.0303 55.2347 54.0455C54.6892 53.0455 53.9241 52.2576 52.9392 51.6818C51.9695 51.1061 50.8559 50.8182 49.5983 50.8182C48.6741 50.8182 47.818 50.9848 47.0301 51.3182C46.2574 51.6364 45.5831 52.0985 45.0074 52.7045C44.4316 53.2955 43.9771 54 43.6438 54.8182C43.3256 55.6212 43.1589 56.5 43.1438 57.4545C43.1589 58.7273 43.4468 59.8636 44.0074 60.8636C44.568 61.8636 45.3331 62.6515 46.3028 63.2273C47.2725 63.803 48.371 64.0909 49.5983 64.0909Z"/>
</mask>
<path d="M49.6892 73.6364C46.9771 73.6364 44.4013 73.2121 41.9619 72.3636C39.5377 71.5 37.3862 70.1439 35.5074 68.2955C33.6286 66.447 32.1513 64.0379 31.0756 61.0682C30.015 58.0985 29.4922 54.5 29.5074 50.2727C29.5225 46.5 30.0074 43.1061 30.9619 40.0909C31.9316 37.0758 33.3028 34.5076 35.0756 32.3864C36.8634 30.2652 38.9998 28.6439 41.4847 27.5227C43.9695 26.3864 46.7347 25.8182 49.7801 25.8182C53.2044 25.8182 56.2195 26.4773 58.8256 27.7955C61.4316 29.1136 63.5074 30.8788 65.0528 33.0909C66.6134 35.2879 67.5225 37.7121 67.7801 40.3636H55.3256C55.0377 39.0455 54.371 38.0833 53.3256 37.4773C52.2953 36.8561 51.1134 36.5455 49.7801 36.5455C47.1286 36.5455 45.1816 37.697 43.9392 40C42.7119 42.303 42.0831 45.3333 42.0528 49.0909H42.3256C42.9165 47.6667 43.8104 46.447 45.0074 45.4318C46.2044 44.4167 47.5983 43.6364 49.1892 43.0909C50.7801 42.5455 52.4619 42.2727 54.2347 42.2727C57.0528 42.2727 59.515 42.9091 61.621 44.1818C63.7422 45.4545 65.3938 47.197 66.5756 49.4091C67.7574 51.6212 68.3407 54.1515 68.3256 57C68.3407 60.3333 67.5528 63.25 65.9619 65.75C64.3862 68.25 62.1968 70.1894 59.3938 71.5682C56.5907 72.947 53.3559 73.6364 49.6892 73.6364ZM49.5983 64.0909C50.8559 64.0909 51.9695 63.803 52.9392 63.2273C53.9241 62.6515 54.6892 61.8636 55.2347 60.8636C55.7953 59.8636 56.068 58.7273 56.0528 57.4545C56.068 56.1667 55.7953 55.0303 55.2347 54.0455C54.6892 53.0455 53.9241 52.2576 52.9392 51.6818C51.9695 51.1061 50.8559 50.8182 49.5983 50.8182C48.6741 50.8182 47.818 50.9848 47.0301 51.3182C46.2574 51.6364 45.5831 52.0985 45.0074 52.7045C44.4316 53.2955 43.9771 54 43.6438 54.8182C43.3256 55.6212 43.1589 56.5 43.1438 57.4545C43.1589 58.7273 43.4468 59.8636 44.0074 60.8636C44.568 61.8636 45.3331 62.6515 46.3028 63.2273C47.2725 63.803 48.371 64.0909 49.5983 64.0909Z" fill="white"/>
<path d="M41.9619 72.3636L40.6196 76.1317L40.6337 76.1367L40.6479 76.1416L41.9619 72.3636ZM35.5074 68.2955L38.3127 65.4441L38.3127 65.4441L35.5074 68.2955ZM31.0756 61.0682L27.3086 62.4135L27.3116 62.422L27.3147 62.4305L31.0756 61.0682ZM29.5074 50.2727L25.5074 50.2567L25.5074 50.2584L29.5074 50.2727ZM30.9619 40.0909L27.154 38.8663L27.1512 38.8749L27.1485 38.8836L30.9619 40.0909ZM35.0756 32.3864L32.0171 29.8085L32.0117 29.8149L32.0063 29.8213L35.0756 32.3864ZM41.4847 27.5227L43.1298 31.1687L43.139 31.1646L43.1482 31.1604L41.4847 27.5227ZM58.8256 27.7955L57.0201 31.3648L58.8256 27.7955ZM65.0528 33.0909L61.7738 35.3817L61.7828 35.3946L61.7918 35.4073L65.0528 33.0909ZM67.7801 40.3636V44.3636H72.1875L71.7614 39.9769L67.7801 40.3636ZM55.3256 40.3636L51.4177 41.2171L52.1049 44.3636H55.3256V40.3636ZM53.3256 37.4773L51.2602 40.9028L51.2897 40.9206L51.3194 40.9378L53.3256 37.4773ZM43.9392 40L40.4188 38.1008L40.414 38.1098L40.4092 38.1189L43.9392 40ZM42.0528 49.0909L38.053 49.0587L38.0205 53.0909H42.0528V49.0909ZM42.3256 49.0909V53.0909H44.9966L46.0202 50.6238L42.3256 49.0909ZM45.0074 45.4318L47.5946 48.4824L47.5946 48.4824L45.0074 45.4318ZM49.1892 43.0909L50.4865 46.8747L50.4865 46.8747L49.1892 43.0909ZM61.621 44.1818L59.5522 47.6053L59.563 47.6118L61.621 44.1818ZM68.3256 57L64.3256 56.9787L64.3255 56.9985L64.3256 57.0182L68.3256 57ZM65.9619 65.75L62.5873 63.6025L62.5826 63.6098L62.578 63.6171L65.9619 65.75ZM59.3938 71.5682L57.6282 67.9789L57.6282 67.9789L59.3938 71.5682ZM52.9392 63.2273L50.9204 59.7741L50.9087 59.7809L50.8971 59.7879L52.9392 63.2273ZM55.2347 60.8636L51.7455 58.9076L51.7342 58.9279L51.7231 58.9482L55.2347 60.8636ZM56.0528 57.4545L52.0531 57.4075L52.0526 57.4548L52.0531 57.5022L56.0528 57.4545ZM55.2347 54.0455L51.7231 55.9609L51.7405 55.9927L51.7584 56.0242L55.2347 54.0455ZM52.9392 51.6818L50.8971 55.1212L50.9087 55.1282L50.9204 55.135L52.9392 51.6818ZM47.0301 51.3182L48.5531 55.0169L48.5709 55.0096L48.5887 55.0021L47.0301 51.3182ZM45.0074 52.7045L47.8723 55.496L47.89 55.4779L47.9074 55.4595L45.0074 52.7045ZM43.6438 54.8182L39.9394 53.309L39.9321 53.3268L39.925 53.3447L43.6438 54.8182ZM43.1438 57.4545L39.1443 57.3911L39.1434 57.4466L39.144 57.5022L43.1438 57.4545ZM44.0074 60.8636L40.5183 62.8197L40.5183 62.8197L44.0074 60.8636ZM46.3028 63.2273L48.345 59.7879L48.345 59.7879L46.3028 63.2273ZM49.6892 69.6364C47.4018 69.6364 45.272 69.2799 43.276 68.5856L40.6479 76.1416C43.5306 77.1443 46.5523 77.6364 49.6892 77.6364V69.6364ZM43.3043 68.5956C41.4421 67.9322 39.7867 66.8944 38.3127 65.4441L32.702 71.1468C34.9856 73.3935 37.6333 75.0678 40.6196 76.1317L43.3043 68.5956ZM38.3127 65.4441C36.9357 64.0894 35.7486 62.224 34.8364 59.7058L27.3147 62.4305C28.554 65.8517 30.3215 68.8046 32.702 71.1468L38.3127 65.4441ZM34.8425 59.7228C33.9808 57.3098 33.4933 54.1989 33.5074 50.2871L25.5074 50.2584C25.4911 54.8011 26.0492 58.8871 27.3086 62.4135L34.8425 59.7228ZM33.5074 50.2888C33.5212 46.8447 33.9637 43.862 34.7754 41.2982L27.1485 38.8836C26.0511 42.3501 25.5239 46.1553 25.5074 50.2567L33.5074 50.2888ZM34.7698 41.3156C35.6047 38.7198 36.7469 36.6242 38.1449 34.9514L32.0063 29.8213C29.8588 32.3909 28.2586 35.4317 27.154 38.8663L34.7698 41.3156ZM38.1341 34.9643C39.5436 33.2919 41.1999 32.0396 43.1298 31.1687L39.8395 23.8767C36.7998 25.2483 34.1833 27.2384 32.0171 29.8085L38.1341 34.9643ZM43.1482 31.1604C45.054 30.2888 47.2426 29.8182 49.7801 29.8182V21.8182C46.2267 21.8182 42.885 22.4839 39.8211 23.8851L43.1482 31.1604ZM49.7801 29.8182C52.685 29.8182 55.0628 30.3748 57.0201 31.3648L60.631 24.2261C57.3763 22.5798 53.7237 21.8182 49.7801 21.8182V29.8182ZM57.0201 31.3648C59.0867 32.4101 60.6372 33.7548 61.7738 35.3817L68.3319 30.8001C66.3776 28.0028 63.7766 25.8171 60.631 24.2261L57.0201 31.3648ZM61.7918 35.4073C62.9529 37.0419 63.6096 38.8023 63.7989 40.7504L71.7614 39.9769C71.4355 36.6219 70.274 33.5338 68.3138 30.7745L61.7918 35.4073ZM67.7801 36.3636H55.3256V44.3636H67.7801V36.3636ZM59.2335 39.5102C58.7369 37.2365 57.468 35.2552 55.3317 34.0167L51.3194 40.9378C51.3414 40.9506 51.3442 40.9549 51.3369 40.9483C51.3293 40.9413 51.3235 40.934 51.3218 40.9316C51.3154 40.9223 51.3684 40.9916 51.4177 41.2171L59.2335 39.5102ZM55.391 34.0518C53.6713 33.0149 51.7603 32.5455 49.7801 32.5455V40.5455C50.4666 40.5455 50.9192 40.6972 51.2602 40.9028L55.391 34.0518ZM49.7801 32.5455C47.8626 32.5455 45.9842 32.9671 44.295 33.9662C42.6029 34.9669 41.3302 36.4114 40.4188 38.1008L47.4596 41.8992C47.7906 41.2856 48.1126 41.0028 48.3675 40.852C48.6253 40.6995 49.0461 40.5455 49.7801 40.5455V32.5455ZM40.4092 38.1189C38.7745 41.1863 38.0863 44.9207 38.053 49.0587L46.0527 49.1232C46.0799 45.746 46.6493 43.4197 47.4693 41.8811L40.4092 38.1189ZM42.0528 53.0909H42.3256V45.0909H42.0528V53.0909ZM46.0202 50.6238C46.3632 49.797 46.8731 49.0944 47.5946 48.4824L42.4202 42.3812C40.7478 43.7996 39.4697 45.5363 38.6309 47.558L46.0202 50.6238ZM47.5946 48.4824C48.3846 47.8125 49.3335 47.27 50.4865 46.8747L47.8919 39.3071C45.8631 40.0027 44.0241 41.0209 42.4202 42.3812L47.5946 48.4824ZM50.4865 46.8747C51.6377 46.48 52.8793 46.2727 54.2347 46.2727V38.2727C52.0446 38.2727 49.9225 38.6109 47.8919 39.3071L50.4865 46.8747ZM54.2347 46.2727C56.4316 46.2727 58.1567 46.7619 59.5522 47.6053L63.6899 40.7584C60.8733 39.0563 57.6741 38.2727 54.2347 38.2727V46.2727ZM59.563 47.6118C61.0544 48.5066 62.2019 49.7111 63.0475 51.294L70.1036 47.5242C68.5856 44.6828 66.4301 42.4025 63.679 40.7518L59.563 47.6118ZM63.0475 51.294C63.8757 52.8442 64.3377 54.7036 64.3256 56.9787L72.3255 57.0213C72.3437 53.5994 71.6391 50.3983 70.1036 47.5242L63.0475 51.294ZM64.3256 57.0182C64.3377 59.6834 63.7165 61.8281 62.5873 63.6025L69.3366 67.8975C71.3892 64.6719 72.3437 60.9833 72.3255 56.9818L64.3256 57.0182ZM62.578 63.6171C61.4196 65.4551 59.8071 66.9072 57.6282 67.9789L61.1593 75.1575C64.5865 73.4716 67.3528 71.0449 69.3458 67.8829L62.578 63.6171ZM57.6282 67.9789C55.4622 69.0443 52.8496 69.6364 49.6892 69.6364V77.6364C53.8622 77.6364 57.7192 76.8496 61.1593 75.1575L57.6282 67.9789ZM49.5983 68.0909C51.4897 68.0909 53.3246 67.6504 54.9814 66.6667L50.8971 59.7879C50.6145 59.9556 50.222 60.0909 49.5983 60.0909V68.0909ZM54.958 66.6805C56.5701 65.738 57.8518 64.4189 58.7462 62.779L51.7231 58.9482C51.5266 59.3084 51.2781 59.565 50.9204 59.7741L54.958 66.6805ZM58.7238 62.8197C59.664 61.1425 60.0751 59.3016 60.0526 57.4069L52.0531 57.5022C52.0609 58.153 51.9265 58.5848 51.7455 58.9076L58.7238 62.8197ZM60.0526 57.5016C60.0749 55.6027 59.6685 53.7489 58.7109 52.0667L51.7584 56.0242C51.922 56.3117 52.0611 56.7306 52.0531 57.4075L60.0526 57.5016ZM58.7462 52.13C57.8518 50.4902 56.5701 49.1711 54.958 48.2286L50.9204 55.135C51.2781 55.3441 51.5266 55.6007 51.7231 55.9609L58.7462 52.13ZM54.9814 48.2424C53.3246 47.2587 51.4897 46.8182 49.5983 46.8182V54.8182C50.222 54.8182 50.6145 54.9534 50.8971 55.1212L54.9814 48.2424ZM49.5983 46.8182C48.1821 46.8182 46.7911 47.0761 45.4716 47.6343L48.5887 55.0021C48.8449 54.8936 49.166 54.8182 49.5983 54.8182V46.8182ZM45.5071 47.6195C44.214 48.1519 43.0705 48.9357 42.1074 49.9495L47.9074 55.4595C48.0958 55.2613 48.3008 55.1208 48.5531 55.0169L45.5071 47.6195ZM42.1425 49.9131C41.182 50.8989 40.4533 52.0475 39.9394 53.309L47.3481 56.3274C47.5008 55.9525 47.6813 55.692 47.8723 55.496L42.1425 49.9131ZM39.925 53.3447C39.4111 54.6418 39.1663 56.0042 39.1443 57.3911L47.1432 57.518C47.1515 56.9958 47.2401 56.6006 47.3625 56.2916L39.925 53.3447ZM39.144 57.5022C39.1663 59.3685 39.5957 61.174 40.5183 62.8197L47.4965 58.9076C47.2979 58.5533 47.1516 58.086 47.1435 57.4069L39.144 57.5022ZM40.5183 62.8197C41.4165 64.422 42.6763 65.726 44.2607 66.6667L48.345 59.7879C47.99 59.5771 47.7194 59.3053 47.4965 58.9076L40.5183 62.8197ZM44.2607 66.6667C45.9024 67.6414 47.7178 68.0909 49.5983 68.0909V60.0909C49.0242 60.0909 48.6427 59.9646 48.345 59.7879L44.2607 66.6667Z" fill="#E50012" mask="url(#path-3-outside-1_26_80)"/>
</svg>
